<?xml version="1.0" encoding="utf-8"?>
<!-- Generator: Adobe Illustrator 18.1.1, SVG Export Plug-In . SVG Version: 6.00 Build 0)  -->
<!DOCTYPE svg PUBLIC "-//W3C//DTD SVG 1.1//EN" "http://www.w3.org/Graphics/SVG/1.1/DTD/svg11.dtd">
<svg version="1.1" id="Layer_1" xmlns="http://www.w3.org/2000/svg" xmlns:xlink="http://www.w3.org/1999/xlink" x="0px" y="0px"
	 viewBox="0 0 40 40" enable-background="new 0 0 40 40" xml:space="preserve">
<g>
	<rect x="6.2" y="6.2" transform="matrix(-0.7071 0.7071 -0.7071 -0.7071 48.4045 19.9502)" width="27.7" height="27.7"/>
</g>
<g>
	<path id="Facebook_Places" fill="#FFFFFF" d="M25.5,16.9c-0.1-0.2-0.2-0.5-0.3-0.7c-1-2.5-3.3-3.4-5.2-3.4c-2.5,0-5.2,1.7-5.6,5.1
		v0.7c0,0,0,0.3,0,0.4c0.2,1.6,1.5,3.4,2.5,5c1,1.7,2.1,3.5,3.2,5.2c0.7-1.1,1.3-2.3,2-3.4c0.2-0.3,0.4-0.6,0.6-0.9
		c0.1-0.2,0.3-0.4,0.4-0.6c1-1.9,2.7-3.8,2.7-5.7v-0.8C25.7,17.6,25.5,16.9,25.5,16.9z M20,20.4c-0.7,0-1.5-0.4-1.9-1.4
		c-0.1-0.2-0.1-0.5-0.1-0.5v-0.5c0-1.3,1.1-1.9,2-1.9c1.2,0,2.1,0.9,2.1,2.1C22.2,19.5,21.2,20.4,20,20.4z"/>
</g>
</svg>
