<?xml version="1.0" encoding="utf-8"?>
<!-- Generator: Adobe Illustrator 18.1.1, SVG Export Plug-In . SVG Version: 6.00 Build 0)  -->
<!DOCTYPE svg PUBLIC "-//W3C//DTD SVG 1.1//EN" "http://www.w3.org/Graphics/SVG/1.1/DTD/svg11.dtd">
<svg version="1.1" id="Layer_1" xmlns="http://www.w3.org/2000/svg" xmlns:xlink="http://www.w3.org/1999/xlink" x="0px" y="0px"
	 viewBox="0 0 40 40" enable-background="new 0 0 40 40" xml:space="preserve">
<g>
	<rect x="6.2" y="6.2" transform="matrix(-0.7071 0.7071 -0.7071 -0.7071 48.4045 19.9502)" width="27.7" height="27.7"/>
</g>
<g>
	<path fill="#FFFFFF" d="M27.6,23.8c0,0.3-0.1,0.6-0.2,0.9l-4.8-5.3l4.7-4.1c0.2,0.3,0.3,0.6,0.3,1L27.6,23.8L27.6,23.8z M20,20.3
		l6.6-5.8c-0.3-0.1-0.6-0.2-0.9-0.2H14.3c-0.3,0-0.6,0.1-0.9,0.2L20,20.3z M21.8,20l-1.5,1.3c-0.1,0.1-0.2,0.1-0.3,0.1
		c-0.1,0-0.2,0-0.3-0.1L18.2,20l-4.8,5.4c0.3,0.2,0.6,0.3,1,0.3h11.4c0.4,0,0.7-0.1,1-0.3L21.8,20z M12.7,15.2
		c-0.2,0.3-0.3,0.6-0.3,1v7.6c0,0.3,0.1,0.6,0.2,0.9l4.8-5.3L12.7,15.2z"/>
</g>
</svg>
