<?xml version="1.0" encoding="utf-8"?>
<!-- Generator: Adobe Illustrator 18.1.1, SVG Export Plug-In . SVG Version: 6.00 Build 0)  -->
<!DOCTYPE svg PUBLIC "-//W3C//DTD SVG 1.1//EN" "http://www.w3.org/Graphics/SVG/1.1/DTD/svg11.dtd">
<svg version="1.1" id="Layer_1" xmlns="http://www.w3.org/2000/svg" xmlns:xlink="http://www.w3.org/1999/xlink" x="0px" y="0px"
	 viewBox="0 0 40 40" enable-background="new 0 0 40 40" xml:space="preserve">
<g>
	<rect x="6.2" y="6.2" transform="matrix(-0.7071 0.7071 -0.7071 -0.7071 48.4045 19.9502)" width="27.7" height="27.7"/>
</g>
<g>
	<g>
		<path fill="#FFFFFF" d="M27,24.1c0,0.2,0,0.4-0.2,0.6l-2,2c-0.1,0.1-0.2,0.2-0.4,0.3C24.4,27,24.2,27,24.1,27c0,0,0,0-0.1,0
			c0,0-0.1,0-0.2,0c-0.2,0-0.5,0-0.9-0.1s-0.9-0.2-1.6-0.5c-0.6-0.3-1.3-0.6-2.1-1.1c-0.8-0.5-1.6-1.2-2.5-2.1
			c-0.7-0.7-1.3-1.3-1.7-2c-0.5-0.6-0.8-1.2-1.1-1.7c-0.3-0.5-0.5-1-0.6-1.4S13.1,17.3,13,17c0-0.3-0.1-0.6-0.1-0.7
			c0-0.2,0-0.3,0-0.3c0-0.1,0.1-0.3,0.1-0.4c0.1-0.1,0.2-0.3,0.3-0.4l2-2c0.1-0.1,0.3-0.2,0.5-0.2c0.1,0,0.2,0,0.3,0.1
			c0.1,0.1,0.2,0.2,0.3,0.3l1.6,3c0.1,0.2,0.1,0.3,0.1,0.5c0,0.2-0.1,0.3-0.3,0.5l-0.7,0.7c0,0,0,0.1-0.1,0.1c0,0,0,0.1,0,0.1
			c0,0.2,0.1,0.4,0.3,0.7c0.1,0.2,0.3,0.5,0.6,0.9c0.2,0.3,0.6,0.7,1.1,1.2c0.4,0.5,0.8,0.8,1.2,1.1c0.3,0.3,0.6,0.4,0.9,0.6
			c0.2,0.1,0.4,0.2,0.5,0.2l0.2,0c0,0,0.1,0,0.1,0c0,0,0.1,0,0.1-0.1l0.9-0.9c0.2-0.2,0.4-0.2,0.6-0.2c0.2,0,0.3,0,0.4,0.1h0
			l2.9,1.7C26.9,23.7,27,23.9,27,24.1z"/>
	</g>
</g>
</svg>
