<?xml version="1.0" encoding="utf-8"?>
<!-- Generator: Adobe Illustrator 18.1.1, SVG Export Plug-In . SVG Version: 6.00 Build 0)  -->
<!DOCTYPE svg PUBLIC "-//W3C//DTD SVG 1.1//EN" "http://www.w3.org/Graphics/SVG/1.1/DTD/svg11.dtd">
<svg version="1.1" id="Layer_1" xmlns="http://www.w3.org/2000/svg" xmlns:xlink="http://www.w3.org/1999/xlink" x="0px" y="0px"
	 viewBox="0 0 317.3 278.6" enable-background="new 0 0 317.3 278.6" xml:space="preserve">
<g>
	<g>
		<path d="M45.2,193.1h8.1l14.5,28.6h-8.4l-2.5-5.4H41.5l-2.5,5.4h-8.2L45.2,193.1z M49.2,199.6l-5.3,11.6h10.5L49.2,199.6z"/>
		<path d="M67.3,193.1h29.8v5.2H86v23.3h-7.5v-23.3H67.3V193.1z"/>
		<path d="M105.4,193.1h7.5v23.3h16.6v5.3h-24.2V193.1z"/>
		<path d="M149.1,193.1h8.1l14.5,28.6h-8.4l-2.5-5.4h-15.4l-2.5,5.4h-8.2L149.1,193.1z M153.1,199.6l-5.3,11.6h10.5L153.1,199.6z"/>
		<path d="M179.3,193.1h7.5l14.7,15.9c1.8,2,2.1,2.4,4,4.6c-0.3-2.7-0.3-3.4-0.3-5.9v-14.6h7.2v28.6h-7.4L190,205.6
			c-1.6-1.7-2.2-2.5-3.9-4.5c0.2,2.2,0.2,2.7,0.3,4.9v15.7h-7.1V193.1z"/>
		<path d="M220.6,193.1h29.8v5.2h-11.1v23.3h-7.5v-23.3h-11.1V193.1z"/>
		<path d="M264.6,193.1h8.1l14.5,28.6h-8.4l-2.5-5.4h-15.4l-2.5,5.4h-8.2L264.6,193.1z M268.6,199.6l-5.3,11.6h10.5L268.6,199.6z"/>
	</g>
	<path d="M90.5,97.8c0,37.5,30.5,68,68,68c37.5,0,68-30.5,68-68c0-37.5-30.5-68-68-68C121,29.7,90.5,60.2,90.5,97.8z"/>
	<rect x="30.7" y="227.6" width="256.5" height="0.6"/>
	<g>
		<path d="M34.4,244.3c0.9,1.8,3.1,2.3,5.1,2.3c0.9,0,3.9-0.1,3.9-1.9c0-1.1-1.1-1.3-1.9-1.4c-0.6-0.1-3.8-0.6-4.5-0.7
			c-1.4-0.2-5-0.9-5-4.2c0-0.7,0.2-1.5,0.6-2.1c1.3-2,4.1-2.5,6.5-2.5c2.2,0,3.9,0.3,5.5,1.1c1.6,0.8,2.2,1.9,2.5,2.4l-3.6,0.9
			c-0.1-0.2-0.4-0.8-1.3-1.2c-1-0.5-2.3-0.6-3.1-0.6c-1.7,0-3.4,0.3-3.4,1.7c0,0.9,0.9,1.2,2,1.4c0.6,0.1,3.7,0.6,4.5,0.8
			c1.8,0.3,4.8,0.9,4.8,4.1c0,4.7-5.9,4.9-7.8,4.9c-2.5,0-6.4-0.4-8.4-4.1L34.4,244.3z"/>
		<path d="M51.3,234.2h9.4c1.6,0,3.7,0.1,4.9,1.7c0.5,0.7,0.8,1.8,0.8,2.9c0,1.4-0.5,2.4-1,3c-1.3,1.4-3.1,1.5-5.1,1.5h-5.4v5.5
			h-3.8V234.2z M55.1,240.8h4.7c1.2,0,2.9,0,2.9-2c0-0.8-0.3-1.3-0.7-1.6c-0.5-0.4-1.1-0.4-2.7-0.4h-4.3V240.8z"/>
		<path d="M87,236.6c0.6,0.7,1.6,2.3,1.6,4.8c0,4.6-3.2,7.9-9.3,7.9c-6.2,0-9.4-3.2-9.4-7.7c0-5,3.8-7.6,8.8-7.8
			C81.7,233.7,85.1,234.4,87,236.6z M73.8,241.6c0,1.8,0.7,2.7,1,3.1c0.4,0.5,1.5,2,4.5,2c3.6,0,5.5-2.3,5.5-5.1
			c0-3.3-2.6-5.3-5.6-5.2C76.5,236.5,73.8,238.1,73.8,241.6z"/>
		<path d="M93,234.2h10.5c1.7,0,3.3,0.1,4.6,1.5c0.8,0.9,1,2,1,2.8c0,1.1-0.4,2.4-1.5,3.2c-0.8,0.6-1.9,0.8-2.5,0.9l4.6,6.1h-4.5
			l-4.1-5.9h-4.4v5.9H93V234.2z M96.9,240.4h6.1c0.8,0,2.3-0.1,2.3-1.7c0-0.3,0-0.8-0.3-1.1c-0.3-0.4-0.6-0.7-2.2-0.7h-5.9V240.4z"
			/>
		<path d="M111.3,234.2h15.2v2.7h-5.7v11.9H117v-11.9h-5.7V234.2z"/>
		<path d="M131.1,244.3c0.9,1.8,3.1,2.3,5.1,2.3c0.9,0,3.9-0.1,3.9-1.9c0-1.1-1.1-1.3-1.9-1.4c-0.6-0.1-3.8-0.6-4.5-0.7
			c-1.4-0.2-5-0.9-5-4.2c0-0.7,0.2-1.5,0.6-2.1c1.3-2,4.1-2.5,6.5-2.5c2.2,0,3.9,0.3,5.5,1.1c1.6,0.8,2.2,1.9,2.5,2.4l-3.6,0.9
			c-0.1-0.2-0.4-0.8-1.3-1.2c-1-0.5-2.3-0.6-3.1-0.6c-1.7,0-3.4,0.3-3.4,1.7c0,0.9,0.9,1.2,2,1.4c0.6,0.1,3.7,0.6,4.5,0.8
			c1.8,0.3,4.8,0.9,4.8,4.1c0,4.7-5.9,4.9-7.8,4.9c-2.5,0-6.4-0.4-8.4-4.1L131.1,244.3z"/>
		<path d="M174.5,243.9c-0.3,0.9-0.6,2-2,3.2c-1.2,1.1-3.3,2.3-7.2,2.3c-5.4,0-9.2-2.7-9.2-7.8c0-5.5,4.6-7.7,9.4-7.7
			c1.8,0,6.8,0.4,8.8,4.5l-4.2,0.5c-0.4-0.6-1.6-2.4-4.6-2.4c-3.5,0-5.4,2.3-5.4,5.1c0,3.2,2.6,5.1,5.5,5.1c3.3,0,4.3-1.9,4.8-2.7
			L174.5,243.9z"/>
		<path d="M194.4,236.6c0.6,0.7,1.6,2.3,1.6,4.8c0,4.6-3.2,7.9-9.3,7.9c-6.2,0-9.4-3.2-9.4-7.7c0-5,3.8-7.6,8.8-7.8
			C189.1,233.7,192.5,234.4,194.4,236.6z M181.2,241.6c0,1.8,0.7,2.7,1,3.1c0.4,0.5,1.5,2,4.5,2c3.6,0,5.5-2.3,5.5-5.1
			c0-3.3-2.6-5.3-5.6-5.2C183.9,236.5,181.2,238.1,181.2,241.6z"/>
		<path d="M200.3,234.2h3.8v8.6c0,1.3,0.3,2.4,1.7,3.1c1.2,0.6,2.3,0.5,3.5,0.5c1.5-0.1,2.4-0.5,3-1.2c0.4-0.4,0.7-0.9,0.6-2.4v-8.6
			h3.8v8.5c0,1.5,0,3-1.3,4.4c-1.6,1.7-4.5,2.2-6.8,2.2c-1.1,0-2.2-0.1-3.2-0.4c-0.7-0.2-1.7-0.5-2.6-1.1c-2.4-1.5-2.4-3.5-2.4-5.2
			V234.2z"/>
		<path d="M222.3,234.2h3.8l7.5,8.1c0.9,1,1.1,1.2,2,2.4c-0.1-1.4-0.1-1.8-0.2-3v-7.5h3.7v14.6h-3.8l-7.6-8.2
			c-0.8-0.9-1.1-1.3-2-2.3c0.1,1.1,0.1,1.4,0.1,2.5v8h-3.6V234.2z"/>
		<path d="M261.9,243.9c-0.3,0.9-0.6,2-2,3.2c-1.2,1.1-3.3,2.3-7.2,2.3c-5.4,0-9.2-2.7-9.2-7.8c0-5.5,4.6-7.7,9.4-7.7
			c1.8,0,6.8,0.4,8.8,4.5l-4.2,0.5c-0.4-0.6-1.6-2.4-4.6-2.4c-3.5,0-5.4,2.3-5.4,5.1c0,3.2,2.6,5.1,5.5,5.1c3.3,0,4.3-1.9,4.8-2.7
			L261.9,243.9z"/>
		<path d="M265.4,234.2h3.8v14.6h-3.8V234.2z"/>
		<path d="M274.7,234.2h3.8v11.9h8.5v2.7h-12.3V234.2z"/>
	</g>
</g>
<g>
	<path fill="#9E9E9E" d="M122.4,60.6c-3.6,11.6-5,28.4-4.1,38.4c2.3-1.7,4.7-3.3,7.1-4.9C122.5,84.6,121.5,66.4,122.4,60.6z"/>
	<path fill="#9E9E9E" d="M199.6,93.8c-23.1-5.3-47.7-1.5-64.7,4.9c3.7,8.8,8.4,17.1,13.9,24.7c0.9,1.2,25,33.4,44.3,20.8
		c12.2-8.9,20.7-22.4,23-38C216.4,98.7,205.8,95.2,199.6,93.8z"/>
	<path fill="#9E9E9E" d="M127.5,101.8c-2.9,1.3-5.8,2.8-8.6,4.3c1.5,12.5,5.1,24.4,10.3,35.3c1.3,2.5,5,8.5,11.8,11.1
		c5.6,1.8,11.6,2.8,17.9,2.8c0.7,0,1.5,0,2.2-0.1C146,141.3,134,122.6,127.5,101.8z"/>
	<path fill="#9E9E9E" d="M104,116.1c3,9,8.3,17,15.1,23.4c-3.2-9.6-5.1-19.7-5.9-30C110,111.6,106.9,113.8,104,116.1z"/>
	<path fill="#9E9E9E" d="M131.8,90.4c17.8-9.8,38.4-15,60.2-14.3c7.4,0.2,14.6,1.2,21.6,2.7c-7.9-22.5-29.4-38.6-54.7-38.6
		c-11.8,0-22.8,3.5-31.9,9.5C125.3,57.2,126.2,75.8,131.8,90.4z"/>
	<path fill="#9E9E9E" d="M112.9,103.2C112,88.8,117,62.8,122.6,53c-12.9,10.3-21.7,26.4-21.7,44.8c0,5.2,0.7,10.1,2,14.9
		C106.1,109.3,109.4,106.2,112.9,103.2z"/>
</g>
</svg>
