<?xml version="1.0" encoding="utf-8"?>
<!-- Generator: Adobe Illustrator 18.1.1, SVG Export Plug-In . SVG Version: 6.00 Build 0)  -->
<!DOCTYPE svg PUBLIC "-//W3C//DTD SVG 1.1//EN" "http://www.w3.org/Graphics/SVG/1.1/DTD/svg11.dtd">
<svg version="1.1" id="Layer_1" xmlns="http://www.w3.org/2000/svg" xmlns:xlink="http://www.w3.org/1999/xlink" x="0px" y="0px"
	 viewBox="0 0 2560 1440" enable-background="new 0 0 2560 1440" xml:space="preserve">
<g>
	<path fill="#181818" d="M630.2,460.2v79.9h-79.4v532.1h-90.9V540.1H380v-79.9H630.2z"/>
	<path fill="#181818" d="M778,1072.2v-612h95.3c100.6,0,145.2,37.9,142.5,119.6v132.4c0.9,99.7-49.9,130.6-146.9,125.3v234.7H778z
		 M868.9,764.2c26.5,0,53.4,0.9,56-27.4V591.7c0-56.9-19.9-60.9-56-58.2V764.2L868.9,764.2z"/>
	<path fill="#181818" d="M1091.8,551.1c0-79.9,62.7-103.3,118.7-103.3c56.9,0,119.6,23.4,119.6,103.3v429.8
		c0,79.9-62.7,103.3-119.6,103.3c-56,0-118.7-23.4-118.7-103.3V551.1z M1182.6,973.4c0,30.9,9.3,37.9,28.2,37.9
		c18.1,0,27.4-7.1,27.4-37.9V559c0-30.9-9.3-37.9-27.4-37.9c-19,0-28.2,7.1-28.2,37.9V973.4z"/>
	<path fill="#181818" d="M1365.8,1072.2v-612h204.7v79.9h-113.4v157.1h109V777h-109v294.8h-91.3V1072.2z"/>
	<path fill="#181818" d="M1589.9,1072.2v-612h204.7v79.9h-113.4v157.1h109V777h-109v294.8h-91.3V1072.2z"/>
</g>
<path fill="#FFFFFF" d="M703.9,153.5l-19.4,8.4c-1.8,0.9-9.3,7.5-12.4,11.5v0.4c0,0.4-5.7,4.9-8.8,8.4c-1.3,5.3-8.8,14.1-5.3,21.6
	c0.4,0.9,0,4.9-1.3,6.6c0.9,1.8,1.3,2.6,1.8,4.4c1.3,3.1,2.6,4.9,0.9,7.5c2.2,5.3,10.1,22.5,11,24.3l1.8,0.4
	c0.9,1.3,2.2,3.1,3.1,5.3c0.9,1.3,2.6,0.9,3.5,2.6s4,3.5,4.9,4c6.2,3.5,11.9,4.9,17.2,6.2c4.9,1.3,9.7,0.9,12.4,2.2
	c4.9-0.9,5.3-3.5,6.6-0.4c-0.9-1.8,2.2-0.4,4.4-1.3c0.9-0.4,4.4-0.9,3.5,0.9c3.1-0.4,9.7-5.7,11.5-3.1c0.9-1.3,1.8-1.3,1.3-1.8
	c1.3-0.9,5.3-3.1,3.5-4c20.3-9.3,28.7-27.4,30-46.8c0-5.3-0.9-12.8-3.5-19c-4-9.7-8.4-14.1-11.5-18.5c-1.8-0.9-3.5-2.6-4.4-4.4
	c-0.9-1.8-3.5-1.3-4-1.8c-2.2-1.8-4.4-3.5-5.3-5.3c-0.9-1.8-15-5.3-15.9-7.1c0-0.4-5.7,0.9-7.1-1.3c-0.9-1.8-4.9,3.1-6.2,0
	C716.2,151.3,706.1,152.6,703.9,153.5z"/>
<path fill="#FFFFFF" d="M647,208.2c-0.4,4,0.9,9.3,1.3,14.6c-0.4,1.8-3.1,4.9-3.1,7.1c1.8,5.7,2.2,11.9,4.9,17.6
	c4,10.6,6.6,12.4,7.5,14.6l1.3,0.4c1.8,2.6,4.4,4.4,5.3,6.2c0.9,1.8,3.1,16.8,4,18.5s1.8,7.9,0.9,11.5c0,1.3,0.9,2.2,0,3.5
	c1.8,5.3,1.8,11.9,3.5,17.2c0,0,0,0.9-0.9,0.9c0.4,6.6,0.9,13.2,2.6,19.4c-2.2,4-0.9,5.3,0.4,8.8c0.9,1.8,0,5.7,0,8.4
	c1.3,10.1,3.1,21.6,6.6,31.8c3.5,9.7,5.7,10.1,6.6,12.4c0.9,1.8,4.4,4,5.3,5.7c0.9,1.8-5.7,20.7-4.9,22.5c0.4,0.9-0.9,0.9-1.8,1.3
	c-1.8,0.9-0.9,4.9,0,6.6c0.9,1.8-3.1,3.5-2.2,5.3c0.4,0.9-0.9,0.9-1.8,1.3c-1.8,0.9-4,15-6.6,21.2c-0.9,7.5-5.7,20.7-4.9,29.6
	c0,0,0,0.9-0.9,0.9c-0.4,2.6-0.9,7.1-0.4,8.8c0.9,1.8,0,11.9,0.9,13.7c0.9,1.8-8.8,6.2-7.9,7.9c0.9,1.8-5.3,3.5-7.5,4.9
	c0,0,0.4,0.4,0,1.3c-2.2,1.3-4.9,3.1-7.1,5.3c-0.9,1.3-3.1,2.2-4.4,3.5c-1.3,2.6-2.6,6.2-3.1,8.4c0,6.6,2.2,13.7,3.5,19.9
	c2.2,5.7,3.5,12.8,6.6,19.4c-0.4,0.9-1.8,1.8-2.2,2.2c-0.9-0.4-0.4,0-1.3-1.8c-0.9-1.8-10.1-18.5-10.6-19c-1.8-2.6-3.1-7.5-4-9.7
	c-0.9-1.8-0.4-14.6-0.9-16.3c-0.9-1.8,2.6-7.9,3.5-12.8c0-0.9,0-0.4-0.9-2.6c-0.9-1.8-3.5-1.8-4.4-3.5c-0.4-0.9-10.6-0.9-12.8-3.1
	c-0.4,0-1.3,1.3-2.2-0.9c-0.9-1.8-13.2-3.5-14.1-5.3c-0.9-1.8-4.9-2.6-7.1-3.5l-18.1,7.5c0,0,0.9,0.9,0,1.8c-0.4,0.4-0.4,0-0.4,0
	c-0.9-1.8-10.6,1.3-14.6,1.8c-4.4,0.4-2.6,1.3-3.5-0.9c-0.9-1.8-3.1,0-3.5,0.4c-0.9-0.4-2.6-2.2-4-4c-1.3,0-4-2.6-5.7-1.8
	c-1.8,0.9-4.4,3.1-6.2,4c1.8-0.9-4.4,3.1-5.3,4.9c-1.8,2.6-8.8,12.4-8.4,13.2c0,0.4-4,13.2-4,13.2c0.9,1.8,0.4,11.9,0,17.2
	c0.4,1.8,0.9,4.9,1.8,6.6l5.3,11.5c0.9,1.8,7.1,9.3,10.6,14.1c1.8,0.9,3.5,4,6.6,5.3c1.3,0.4,2.2,0.4,3.5,1.3
	c6.6,1.8,15.4,5.3,24.7,6.2c2.2,0.4,5.3-3.5,6.2-1.8c0.4,1.3,7.9,0,10.1,4.4c0.9,1.8-2.2,4.9-1.3,6.6c0.9,1.8-0.9,0.9-1.8,1.8
	c0,2.6,0,4.9-0.9,6.6c-0.4,1.8-4.4,2.6-3.5,4.4c0.9,1.8-4.4,4-5.3,5.7c-1.3,0.9-3.5,1.8-5.7,3.1c-0.4,0.4-2.2,1.8-1.8,2.6
	c-2.6,1.3-7.5,3.5-6.6,5.3c0.9,1.8-4.9,2.6-5.7,4.9c-3.5,7.9-5.3,16.3-8.4,23.4c-1.3,4.4-3.1,7.5-4,11.5c-0.4,1.8-0.9,7.1-0.9,10.1
	c1.3,5.7-0.9,10.1-5.3,18.1c-1.8,3.1-2.2,3.1-4.4,7.9c-0.4,2.6-0.4,3.1-1.3,6.2c-0.9,4.4-1.8,8.8-0.9,14.1c0.4,2.2,1.3,7.1-2.6,10.6
	c-2.2,1.8-4.9,3.5-8.8,7.9c-2.6,4.4-3.5,5.3-4.9,7.9c-2.6,5.7-6.2,13.7-7.9,19.9c-1.8,10.6-3.1,27.8-3.5,29.6
	c-0.4,4-1.3,10.1-2.6,18.1c-0.9,5.3-0.9,8.8-0.9,13.2c0,2.2-0.4,3.5-2.2,6.2c-0.9,2.2-0.4,6.2-0.9,7.5c-2.6,14.1-11,30-18.1,37.9
	c0,1.8-0.9,3.5,0,5.3s-0.9,7.1-1.3,10.1c0,1.3,1.3,3.5,0.9,5.3c0,1.3,1.8,3.5,1.8,3.5c1.3,0.4,1.3,1.3,2.2,3.1
	c1.3,2.6-1.3,6.6-0.9,8.4c-0.4,2.6,0.4,2.6,1.3,3.1c1.8,0.4-0.4,4.4-1.8,5.7l1.3,2.6c1.3,0.4,1.3,0.4,3.1,0
	c5.3-2.2,7.9-17.6,9.3-19.9c0.4-0.4,1.8-1.8,3.1-2.2l2.6,0.9l-1.3,3.1l0.9,4c1.3,0.4,4-0.9,4.9-1.8c1.3-1.8,3.5-5.3,5.3-9.3
	c0.9-3.1,0.4-14.1,0.4-15.9c0-6.6,0.9-13.2,4-19c2.2-4.4,4-13.7,4.9-16.8c3.1-7.9,5.7-18.5,10.6-23.4c3.1-5.3,7.5-11.5,11.5-17.2
	c4.9-8.8,10.1-16.3,15-22.9c0.9-2.2,1.8-6.2,3.5-8.4c0.4-8.4,4-7.5,3.5-17.6c2.2-1.8,4.4-5.3,6.2-7.9c4.4-7.1,8.4-15.9,11.9-23.4
	c0.4-1.8,7.5-24.3,4.9-30.4c-0.9-1.8,1.3-6.6,0.4-10.1c1.3-0.4,3.1-2.6,4-3.5c0-1.3,1.3-4.4,3.5-4.9c3.1-1.3,5.7,4,5.7,4
	c0.9,1.8,0.4,7.1,1.3,9.3c0.9,1.8,4.4,6.2,6.6,8.8c2.2,2.2,6.2,8.8,7.1,10.6s3.5,4,7.1,5.3c0.4-1.3,0.9-3.1,2.6-4l5.7-2.6
	c0.9,0.4,1.8,1.8,2.2,2.2c-2.2,4.9-8.8,9.7-7.5,12.8c0.9,1.8,0.9,23.4,1.8,34.9c0.4,1.8,0.9,4.9,1.8,6.6c0.9,1.8,0.4,8.4,0,11.9
	c-4.4,10.6-11,23.8-16.3,32.2c0,0.9,0,0.4,0.4,2.2c0.9,1.8-5.7,9.3-7.5,14.1c-0.4,2.2-0.4,3.1-1.8,5.3c0,3.1-0.9,7.1-2.6,11.5
	c6.6,2.6,5.3-0.4,13.2,4c-0.4,0.9,0,2.2-1.8,3.1c-1.8,0.9-4.4,0-6.2,0.4c-1.3,0-4,0-5.3-1.3c-0.9,1.3-2.2,0.9-3.1,1.3
	c-0.4,4.4-2.2,17.2-3.5,22.1c0.9,1.8,2.2,0.9,3.1,2.6c1.8-0.4,3.1-1.3,5.3-2.2c0,0.4,0.9,0.4,1.8,2.2c0.9,1.8-0.4,7.9-1.3,11
	c-0.9,2.6-4,5.3-5.3,7.1c-2.6,4.9-4.4,10.1-7.5,15.4c-0.9,3.1-1.3,7.9-2.6,10.1c0.4,3.5-0.9,9.3-1.8,11.5c-0.9,5.3-2.6,11-3.5,16.8
	c-3.1,16.3-7.5,48.1-6.6,49.9c0.9,1.8,0.4,2.2-0.9,3.1c0.4,2.2,1.8,4.9,2.6,7.1c-0.9,3.5-2.6,13.2-1.8,15c0.9,1.8,0.4,2.2-1.3,3.1
	c0.9,1.8,1.3,2.6,1.8,4.4c0.9,1.8-1.8,3.5-2.2,6.2c-0.4,4,1.3,9.3,1.8,13.2c0.9,3.1,0.4,6.2,1.8,8.8l25.2,61.8
	c7.1,15.9-2.6,3.1,4.4,22.5c-3.5,6.6-4.4,19-1.8,24.7c0.9,1.8-0.9,5.7-0.9,8.4c2.2,0.9,4,0.9,5.3,1.8c1.8,0,3.5-0.9,4.9-1.3
	c1.3,0.9,3.1,2.6,5.3,4c-0.4,0.9-0.9,1.8-2.6,2.6c-2.2,0.9-3.1,0.4-3.5-0.9c-0.9-1.8-4.9,0.9-6.2,2.2c3.5,5.7,4,7.1,4.9,8.8l2.2,0.9
	l-1.3,2.6c-2.2,0-5.3,0.9-7.9,0c-2.6,4-3.5,7.1-3.5,9.7c0,2.2,2.2,8.4-0.4,10.6l1.3,3.5c1.3,0.4,1.3-0.4,3.5-1.3
	c1.8-0.9,2.2-0.4,3.5,0.9c2.6,0.4,7.1,1.8,8.4,4.4c0.9,1.8,2.6,15.9,3.5,17.7s-0.4,4.4-1.3,5.3c0.4,5.3,0.4,5.3-3.1,6.6
	c-3.1,1.3-4.4,1.8-6.2-2.6c-1.8-0.9-4-3.5-7.5-4.4c-0.4,5.7-1.3,11.5-3.1,17.6l6.2,13.2c0.9,1.8,4.9,4.4,7.1,5.3
	c0.9,0.4,2.6-0.4,3.5,0.9l0.4-0.4c0.4,0,1.3-1.8,4.4,0c1.8-2.6,7.1-4,6.2-5.7c-0.9-1.8,6.2-4.9,7.5-7.9c2.6-4.9,4.4-11.9,7.5-17.7
	c1.8-3.1,5.7-5.3,4.9-7.1c-0.9-1.8,1.3-4.9,2.2-6.6c-3.5-7.9,8.8-19.4,12.4-21.2l1.8,0.9c0.9,6.2,2.6,13.7,4.4,19.9
	c-1.8,3.1-2.2,10.1-2.2,14.1c0.4,1.8,1.8,4.9,1.3,6.2c1.3,10.6,4.4,27.4,5.3,29.1c0.9,1.8,0.4,2.2-0.9,3.1
	c0.4,4.9-2.2,19.4-6.6,22.9c0.9,7.1,1.8,7.1,3.1,10.1c0.9,1.8,2.6,10.1,8.4,22.5c2.2,5.3,10.1,0.9,11,3.1c0.9,1.8,11.9-1.3,13.7-2.2
	s8.4-7.9,7.5-9.7c-0.9-1.8,5.7-9.7,6.6-14.6c1.3-6.6,0.9-14.1,0-19.9c-0.9-4.4-1.3-9.3-1.3-13.7c0-1.3-0.4-2.6-0.9-4
	c2.2-7.9,5.3-9.7,2.2-16.3c-0.9-1.8,0.9-7.9,0.4-12.4c-0.9-2.6-1.3-5.7-1.3-8.8c-1.3,0.4-2.6,0.9-2.2-0.9c-0.9,0.4-3.5,5.3-6.6,7.1
	c-0.9,1.8-3.1,5.3-4.9,6.2s-1.8,0.9-2.6,0c-4.9-0.4-5.3,2.6-7.5-2.2c-0.9-1.8-11.9-22.9-13.2-25.6c0.4,0,1.8-1.3,3.1-2.2
	c4,4.9,8.4,11,10.1,15.4l1.8,0.4c1.3,0.9,3.5,4.9,3.1,7.5l5.3-2.2c1.8-0.9,2.6-4.4,4.4-5.7c1.3-3.1,4.9-7.1,6.6-10.1
	c1.3-2.2,3.5-12.4,3.1-13.2c-0.9-1.8,1.3-4.4,1.8-7.1c0.4-3.1,0.4-9.7-0.4-11.5c-1.8-3.5-11.5-5.3-13.2-9.7c-0.9-1.8,0-1.8-0.4-2.2
	c3.1-7.5,5.7-14.6,9.3-22.9c2.6-6.6,5.3-14.6,8.4-22.1c1.3-6.6,5.3-17.6,4.4-19.4c-0.9-1.8,0.4-4.4,1.3-5.3
	c-0.4-2.2,0.4-4.4-0.4-6.6c-0.9-1.8,0.9-1.8,1.3-2.2c-0.4-1.3-0.4-4-1.3-6.2c0.9-0.4,0.9-3.1,0.9-3.1c-1.3-4.9-2.6-14.1-3.5-15.9
	c-3.1-6.6-6.2-1.3-8.4-6.6c-1.8-4,5.3-7.1,5.7-7.9c8.4-9.3,7.9-25.6,9.3-32.2c0-3.5,0.9-11,2.2-15c1.8-8.8,4-17.6,6.6-26.5
	c0.9-6.6,4-13.2,5.3-19.9c1.8-9.7,2.6-17.2,6.2-24.3c-1.3-0.4-0.4-1.3-1.3-3.1s2.2-8.8,2.6-12.4c-0.4-2.6,2.2-5.7,3.5-7.9
	c0,0,3.5-7.5,6.6-8.8c1.8-0.9,1.8-0.9,3.1-0.4c2.2-0.4-1.3-13.7-5.3-14.6c-2.2-0.4-4.9-3.1-6.6-3.1L752,931
	c7.1,1.3,13.7-112.1,13.7-112.1c-0.9-0.4-1.8-0.9-2.6-2.6c-0.9-1.8,0.4-4.9-0.4-7.1c-0.9-1.8,3.5-15.4,5.7-22.1
	c0.4-7.5,1.8-14.1,2.2-22.1c0-1.3-0.9-2.2,0.4-3.5c0-4.9-0.4-9.7-0.9-14.1c-0.9-2.6-1.3-7.1-2.2-9.3c-0.9-1.8,0.9-1.8,0.9-3.1
	c-1.3-3.1-2.2-7.1-1.8-9.3c0-1.3-0.9-2.2,0-3.5c-2.2-8.4-6.2-22.9-6.6-30.4c-4-14.1-9.3-43.2-10.1-45c-0.9-1.8,0.4-5.3-0.4-7.5
	c0,0-0.4-0.9,1.3-0.4l-1.8-4.4c-2.6,0.9-4.9,1.8-6.6,3.1c-0.9-0.4-1.3-1.8-6.2-11.9c-0.4-0.9-0.9-2.2,0.9-1.8
	c-0.4-1.8-2.2-1.8-3.1-3.5c0-0.4-2.2-3.1,0.4-2.6c-1.3-0.9-1.8,0-2.6-1.8s-0.4-1.3,0.9-1.3c-0.9-0.9-1.3,0-2.2-1.8
	c-0.9-1.8-0.4-1.3,0.9-1.3c-0.9-0.9-1.3,0-2.2-1.8c-0.9-1.8-0.4-1.3,0.9-1.3c-0.9-0.9-1.3,0-2.2-1.8c-0.9-1.8-0.4-1.3,0.9-1.3
	c-0.9-0.9-1.3,0-2.2-1.8s-0.4-1.3,0.9-1.3c-0.9-0.9-1.3,0-2.2-1.8c-0.9-1.8-0.4-1.3,0.9-0.9c-0.4-1.8-2.2-1.8-3.1-3.5
	c0-0.4-2.6-3.1,0.4-2.6c-1.8-2.2-3.5-4.4-4.4-6.2c0-0.4-2.6-3.1,0.4-2.2c-0.4-1.8-1.8-2.2-3.5-4.4c-1.3-0.4-0.9-0.4-3.1,0
	c-5.3,2.2-5.7,11-5.7,11.5c0,0-0.4,0.9-4.4,2.6l-4.4-10.1c-0.9-1.8,0.4-4.4,0-6.6c-0.4-1.8-1.3-4-1.8-5.7c0.9-0.4,0.9-3.1,0.9-3.1
	c0-4.4,0.9-10.1,0.9-14.1c1.8-8.8,3.5-17.6,9.7-27.8l-0.4-0.4c-0.9-1.8,7.1-8.8,10.6-12.4c0.4-1.3,9.3-14.6,8.4-16.8
	c-0.9-1.8,4-11.9,4.9-16.8c0.4-2.6,1.3-7.5,0.4-9.3c-0.9-1.8,0.9-1.8,1.3-2.2c0-0.9-1.3-2.2-0.9-3.5c1.3-12.8-0.4-21.6-0.9-32.2
	c-1.3-11.5-4-22.5-3.1-33.1c0-5.3,0.4-12.4,0.9-18.5c-1.8-8.4-5.7-23.4-6.6-25.6l-28.7-63.1c-0.9-1.8-1.3-5.3-1.3-7.5
	c-0.9-3.5-3.1-7.5-3.1-11c-0.9-3.5-1.8-10.6-2.2-12.4c-0.9-1.8-10.6-7.1-14.1-10.6c-0.4-0.4-0.9,0.4-1.8,0
	c-2.6-4.9-8.8-10.6-9.7-12.4C664.2,239.6,661.1,234.7,647,208.2z"/>
<path fill="#858585" d="M738.8,658.7c3.5,5.7,14.1,34.9,16.8,48.5c1.3,7.1,3.1,16.3,6.6,41.9c1.8,11.9,1.8,25.6,1.8,23.8
	c-0.4,13.7,5.3,65.7,4.9,71.9c0,1.8,0,12.8,0.4,14.6c0.4,4.4,1.3,17.2,1.8,26c0.4,8.4,0.9,11.9-0.4,25.2c-0.4,3.5-3.5,15.9-4.4,19.4
	c0,0-5.3-1.3-5.3-0.9c-1.8,4.4-4,11.9-4.9,14.1c-4,10.6-6.2,18.5-9.3,27.8c-2.6,9.7-4.9,22.5-10.1,39.7c-2.6,7.9-4.4,15.9-6.2,23.8
	c-2.6,7.1-1.3,42.4-1.3,41c0.4,0.4-8.8,0.9-9.3,1.3c-0.4,0.4-2.6,2.2-1.3,5.7c2.2,4.4,0.9,0.9,3.5,7.1c0.9,1.8,2.2,9.7,3.1,14.1
	c0,0,1.8,21.2-5.3,38.4c-3.1,6.2-5.3,13.7-7.5,19.4c-2.6,7.5-2.2,8.8-3.1,19.9c0.4,0.4,0,11.5-1.3,20.3c-0.9,4,4.4,19.9,3.5,22.1
	c-1.8,4-2.6,4.4-4.9,7.5c-6.2,9.3-12.8,4-12.8,4c-1.8-4-5.7-13.7-9.7-18.1c-0.9,0.4-2.2,1.8-2.6,1.8c1.3,2.2,11,21.2,11.9,22.9
	c1.8,4.4,7.1,0.9,8.8,0.9s4-3.1,4.4-4.9c2.2-1.3,5.3-4.4,6.2-8.4c-0.4,3.1,2.2,19.9,2.2,21.6c-0.4,7.9-1.3,7.1-1.8,14.6
	c0.4,1.3,4,22.5,2.6,28.2c-0.9,4-3.1,6.2-5.3,7.5c-1.3,0.9-10.6,4.9-15.9,3.5c-5.3-0.9-9.3-3.5-11.5-8.4
	c-5.7-12.4-1.8-20.3-1.3-23.8c0.9-5.3-1.3-15-7.1-28.7c-0.9-1.8-3.1-7.1-3.5-8.8c0-3.1,0.4-9.7,1.8-12.4c-1.3-5.3-2.6-11.9-4-17.6
	l-1.8-0.4c-3.1,1.8-9.3,10.1-11,19c-1.3,6.6-4,10.1-5.3,13.2c-2.6,5.3-4,8.8-6.2,13.2c-1.3,2.6-1.8,7.1-4,9.7
	c-1.3,1.3-2.2,2.2-7.1,4.4c-4.9,1.8-9.3-0.4-10.1-0.4c-10.6-3.5-11.9-14.1-11.9-14.1c0-14.6,10.1-38.8,16.3-46.8
	c3.1,0.9,2.2,4.4,3.5,5.3c4,2.2,7.1,1.3,9.7,0c3.1-1.3,4.4-3.1,7.9-6.6c2.6-4.4,4-16.3,3.1-18.1s-1.3,14.1-12.4,18.5
	c-5.3,2.2-7.5-2.6-10.1-3.1c-0.9-0.9,3.1-7.9,3.1-9.7c0.4-6.2,0-7.9-0.9-15.4l-1.8-17.2c0,0-4.9-13.7-5.3-15.4
	c-0.4-2.6-4.9-8.8-11-22.9l-22.1-56c-0.9-2.2-1.3-5.7-2.2-7.9c-0.4-3.5-2.2-9.7-1.8-13.2c0-3.1,0-6.2,2.2-11
	c0.4-1.8,1.8-4.9,2.2-7.9l-7.9-1.8c0-1.8,8.8-43.2,11.9-57.8c0.9-5.3,1.8-14.6,4.9-25.2c1.8-8.8,6.2-18.5,8.8-22.9
	c0.9-1.8,6.6-14.6,5.7-16.3s-4.9-0.4-4.4-2.6c1.3-4.4,2.6-33.1,3.5-36.2c0.9-4.4,5.7-15,7.1-17.6c4-9.7,11-21.2,15-30.4
	c0.4-3.1,0.9-8.8,0-10.6c-0.9-1.8-1.3-4.4-1.8-6.2c-0.9-10.1-11-41-11.9-42.8c-0.9-1.8-3.1-4.9-5.3-8.4c-4.9-4.4-8.4-11.5-8.4-11.5
	c2.2-2.2,2.2-4.9,1.3-6.2c0,0-2.6-4.9-5.3-3.5c-1.8,0.9-2.6,3.5-3.1,4.4c-0.9,0.9-4.4,10.6-4,12.4c1.8,17.2-2.2,31.3-15,47.7
	c-4.9,3.1-4.9,6.2-5.3,7.1c0.4,9.3,0.4,7.5-3.1,15.4c-1.3,2.2-11.9,20.3-16.3,28.2c-3.5,4.9-7.5,10.6-10.1,15.4
	c-4.4,4.4-6.6,14.1-9.3,21.2c-1.8,4.9-6.2,12.8-6.2,14.6c-0.4,10.6-2.6,19.9-2.2,21.6c0.4,4.4,0.4,7.5,0,10.1
	c-1.3,3.5-3.5,6.6-4.9,8.4c-4.4,5.7-7.1-0.4-4.9-1.8l1.3-2.6l-2.6-0.9c-1.3,0.4-2.2,1.8-2.6,2.2c-1.3,1.8-3.1,15.4-7.9,17.6
	c-1.8,0.9-1.8,0.4-2.6,0l-0.9-2.2c1.3-1.3,2.2-3.5,1.8-5.3c-0.9-1.8,0-2.2-1.3-2.6c0.9-1.3,1.8-4.9,0.9-7.5
	c-0.9-1.8-0.9-2.6-2.2-2.6c0,0-1.8-2.2-1.8-3.1c0.4-1.3-0.9-3.5-0.9-4.9c0.4-2.6,1.8-7.5,1.3-8.8c-0.9-1.8,0-3.5,0-4.9
	c6.6-7.1,13.2-25.2,15.9-37.9c0.4-1.3,1.3-7.1,1.8-8.8c0.4-6.2,4.9-34.9,4.4-35.3c0.9-6.2,0.4-9.3,2.6-18.5
	c2.2-9.3,5.3-14.1,7.5-19.4c3.1-4.9,11-12.4,11.9-14.1c4-3.5,2.6-7.5,2.2-9.3c-0.4-7.5,1.3-19.9,3.5-26
	c5.7-18.5,10.1-30.9,11.5-34.9c2.6-6.6,4-13.7,7.5-20.7c0.9-1.8,8.4-7.9,11-9.3c-0.4-0.9,5.3-4.4,6.6-5.3c0.9-1.8,7.1-7.5,7.5-9.3
	c0.4-1.8,4-11.5,3.5-13.2c-1.8-4-8.4-2.6-8.8-4c-0.9-1.8-3.1,1.8-5.3,1.8c-7.9-0.9-15.9-3.5-21.6-5.3c-0.9-0.9-2.2-0.9-3.1-1.3
	c-2.6-0.9-4.4-4-5.7-4.4c-3.5-4.4-8.8-11-9.3-12.8l-4.4-10.1c-0.9-1.8-1.3-4.4-1.8-6.2c0-4.4,0.9-13.7,0-15.4v-0.4
	c0-7.5,3.5-11.5,3.5-11.5c-0.4-0.9,5.7-9.7,7.1-11.9c0.9-1.3,3.1-2.6,4.9-3.5c0.4-0.4,1.3-1.3-0.4-0.9c1.8-0.9,4-3.1,5.3-3.5
	c1.8-0.9,4,1.3,5.3,1.3c1.3,1.3,2.6,3.1,3.5,3.5c0.4-0.4,2.6-2.2,3.1-0.4c0.9,1.8-0.4,1.3,3.1,0.9c3.5-0.4,12.4-3.1,12.8-1.8
	c0,0.4,0,0.4,0.4,0c1.8-0.9,0-1.3,0-1.3l15.9-7.1c2.2,0.9,5.7,1.3,6.2,3.1c0.9,1.8,11.5,3.1,12.4,4.9c0.9,1.8,1.8,0.4,2.2,0.4
	c1.8,2.2,9.7,2.2,11.5,3.1c1.8,0.4,3.1,1.3,3.5,3.1c0.9,1.8,0.4,1.3,0.9,2.2c-0.9,4.4-3.1,9.7-3.1,11.5c-0.4,2.6-2.2,5.7,0.9,14.6
	c0.4,1.8,1.8,6.2,3.5,8.4c0.4,0.4,4.4,3.1,5.3,3.5c1.3,0.4,1.8,1.3,1.8-2.2c0-5.3-1.3-1.8-2.2-7.9c-1.3-7.1-1.3-9.3,1.8-15.9
	c6.2-8.8,7.9-10.6,9.7-11.9c0.4-0.4,12.4-10.6,12.8-12.4c0.4-4.4,0-10.6,0.4-12.4c0.4-4.4,0-7.9,0-7.9c0.9-8.4,4.4-20.3,5.3-27.4
	c1.3-6.6,4-17.2,4.4-19c1.8-5.7,2.6-8.4,4-13.2c0.4-1.8,7.1-18.1,6.6-19.9c-0.9-1.8-4-3.5-4.4-4.9c-0.9-1.8-2.6-2.2-5.7-11
	s-4.9-27.4-5.7-36.2c-0.4-3.5-2.2-26-2.2-26c-0.9-15.9-3.1-26.9-4-28.7c-0.9-1.8-2.6-15-3.5-16.8c-0.9-1.8-5.7-6.2-5.7-6.2
	c-0.9-1.8-2.6-3.5-6.6-12.8c-2.2-5.3-2.2-10.6-4-15.9c0-2.2,2.2-4.9,2.6-6.6c-0.4-4.4-1.8-9.3-1.3-13.2c12.4,23.8,15,27.8,15.9,29.6
	c0.9,1.8,6.2,6.6,8.4,11c0.4,0.4,13.7,7.9,14.1,9.7c0.9,1.8,1.3,7.9,2.2,11c0,3.1,3.1,15,4,16.8l25.2,56.5
	c0.9,1.8,4.4,15.4,6.2,22.9c-0.4,5.7-0.9,11.9-0.9,16.8c0,9.7,1.3,16.8,2.6,29.6c0,9.3,1.8,17.2,0.4,28.7c0,1.3-0.4,11.5-0.4,13.7
	c-0.4,4.4-7.1,23.4-11,28.7c-5.3,3.5-8.8,12.8-8.8,12.8c-4,11.5-7.5,23.8-9.3,37.5c-1.3,11.5,1.3,18.5,1.8,20.3l1.8,2.2
	c4,4,0,1.3,4.9-0.4c1.8-0.9,7.9,7.5,13.2,14.1C722,633.6,733,648.6,738.8,658.7z"/>
<rect x="373.4" y="1095.6" fill="#858585" width="1824.1" height="15.9"/>
<path fill="#858585" d="M1080.7,1091.6"/>
<rect x="379.1" y="423.1" fill="#858585" width="1815.3" height="15.9"/>
<path fill="#858585" d="M1086.5,431.1"/>
<g>
	<path fill="#858585" d="M1957,981.7h-75.9c-19,0-22.9,5.7-22.9,16.8c0,11.5,4,17.2,22.9,17.2h251.5c19,0,22.9-5.7,22.9-17.2
		c0-11-4-16.8-22.9-16.8h-80.3v-55.2h85.2c48.5,0,62.7,37.9,62.7,72.4c0,34-14.1,71.9-62.7,71.9h-260.8c-48.5,0-62.7-37.9-62.7-71.9
		c0-34.4,14.1-72.4,62.7-72.4h80.3V981.7z"/>
	<path fill="#858585" d="M2193.1,904.5h-371.5v-55.2h323v-70.6h48.5V904.5z"/>
	<path fill="#858585" d="M1821.1,625.2h316.4c48.5,0,62.7,37.9,62.7,72.4c0,34-14.1,71.9-62.7,71.9h-316.4v-55.2h311.5
		c19,0,22.9-5.7,22.9-17.2c0-11-4-16.8-22.9-16.8h-311.5L1821.1,625.2L1821.1,625.2z"/>
	<path fill="#858585" d="M1821.1,604.9v-78.5c0-44.6,27.4-64.9,66.6-64.9h59.6c32.2,0.4,42.4,19.4,49.4,51.2h0.9
		c6.6-34.9,16.3-52.5,57.8-52.5h59.1c44.6,0,78.1,20.3,78.1,66.6v77.7h-371.5V604.9z M1975.1,549.3V537c0-14.1-6.2-19.9-27.8-19.9
		h-56.5c-21.6,0-27.8,5.7-27.8,19.9v12.4H1975.1z M2148.5,549.3v-11c0-15.4-6.2-22.9-29.1-22.9h-70.6c-22.9,0-29.1,7.5-29.1,22.9v11
		H2148.5z"/>
</g>
<g>
	<path fill="#181818" d="M846.9,281h52.9l46.3,109h-45.9l-4.4-12.4h-45l-4.4,12.4h-46.3L846.9,281z M873.3,314.1L873.3,314.1
		l-13.2,37.1h26L873.3,314.1z"/>
	<path fill="#181818" d="M988.1,308.8h-39.7v-27.4H1071v27.4h-39.7v81.6h-43.2V308.8z"/>
	<path fill="#181818" d="M1088.2,281h43.2v79.9h66.6V390h-109.9L1088.2,281L1088.2,281z"/>
	<path fill="#181818" d="M1248.4,281h52.9l46.3,109h-45.9l-4.4-12.4h-45L1248,390h-45.9L1248.4,281z M1274.9,314.1L1274.9,314.1
		l-13.2,37.1h26L1274.9,314.1z"/>
	<path fill="#181818" d="M1360.9,281h49l43.7,60.5h0.4V281h41v109h-47.2l-45.9-60.9h-0.4V390h-41V281H1360.9z"/>
	<path fill="#181818" d="M1552.9,308.8h-39.7v-27.4h122.7v27.4h-39.7v81.6h-43.2V308.8z"/>
	<path fill="#181818" d="M1684.3,281h52.9l46.3,109h-45.9l-4.4-12.4h-45l-4.4,12.4H1638L1684.3,281z M1710.8,314.1L1710.8,314.1
		l-13.2,37.1h26L1710.8,314.1z"/>
</g>
<circle fill="#858585" cx="718" cy="263.8" r="57.4"/>
</svg>
