<?xml version="1.0" encoding="utf-8"?>
<!-- Generator: Adobe Illustrator 18.1.1, SVG Export Plug-In . SVG Version: 6.00 Build 0)  -->
<!DOCTYPE svg PUBLIC "-//W3C//DTD SVG 1.1//EN" "http://www.w3.org/Graphics/SVG/1.1/DTD/svg11.dtd">
<svg version="1.1" xmlns="http://www.w3.org/2000/svg" xmlns:xlink="http://www.w3.org/1999/xlink" x="0px" y="0px"
	 viewBox="0 0 210.2 171.4" enable-background="new 0 0 210.2 171.4" xml:space="preserve">
<g id="new_top_outer_blue_outline">
</g>
<g id="new_bottom_outer_blue_outline">
</g>
<g id="Kickoff_Game_Atlanta_section">
</g>
<g id="new_CFA_logo_x5F_bottom_adjusted">
	<g>
		<path fill="#231F20" d="M182.8,66.7c0.4-1.5,0.4-3.2-0.1-4.7c-0.7-2.2-2.3-4-4.4-5c1.5-1.6,2.3-3.7,2.3-5.9c0-4.8-3.9-8.6-8.6-8.6
			c-0.6,0-1.3,0.1-1.9,0.2c-1.6-1-3.5-1.5-5.5-1.5c-5.2,0-9.4,3.6-10.5,8.8c-1.4-4.3-5.1-7.1-9.6-7.1c-0.7,0-1.3,0.1-1.9,0.2
			c-1.8,0.3-3.7,1.2-5.3,2.5c-1.1-0.5-2.3-0.8-3.5-0.8c-0.5,0-1,0-1.5,0.1c-1.9-2-4.6-3.2-7.5-3.2c-5.5,0-10.5,4-13.4,10.7
			c-0.2,0-0.3,0-0.5,0l-0.1,0c-0.3,0-0.7,0-1,0c-1.1-1.1-2.4-2-3.9-2.5c-0.3-1.6-1-3-2.1-4.1c-1.6-1.6-3.8-2.6-6.1-2.6
			c-0.1,0-0.3,0-0.4,0c-3,0.1-6.4,2.1-7.6,6c-0.6-0.1-1.2-0.2-1.9-0.2c-0.2,0-0.3,0-0.5,0c-1.1,0-2.2,0.2-3.3,0.5
			c-1.6-1.9-4-3-6.5-3c-1,0-2,0.2-3,0.5c-0.1-0.1-0.1-0.2-0.2-0.2c0.4-0.9,0.6-1.9,0.6-2.9c0-2.1-0.9-4.1-2.5-5.8
			c0.6-0.4,1.2-0.8,1.8-1.2c3.4-2.6,5.6-5.8,6.3-9.3c0.6-3.1-0.1-6.3-2-8.8c-2.1-2.8-5.4-4.5-9.1-4.5c-1.4,0-2.8,0.2-4.2,0.7
			c-1.5-2.3-3.8-3.9-6.5-4.5c-0.7-0.2-1.4-0.2-2.2-0.2c-3,0-5.7,1.3-7.8,3.6c-0.9-0.3-1.9-0.4-2.9-0.4c-1.4,0-2.7,0.3-4,0.9
			c-2.7,1.2-4.6,3.6-5.3,6.6c-1.2,0.5-2.2,1.3-3.1,2.3c-1.5,1.8-2.3,4.1-2.1,6.5c0.2,2,0.9,3.9,2.3,5.5c-4.7,6.1-7.6,13.9-7.9,21.6
			c-0.4,11,5.4,23.4,19.2,24.3c0.5,0,0.9,0,1.4,0c1.1,0,2.1-0.1,3.2-0.2v0h65.3v-0.8h13.2v0.4h27.1v0.9h23.3v-1.6
			c4.2-1,6.3-4.6,6.4-7.6C184.7,70.2,184,68.3,182.8,66.7z"/>
		<path fill="#FFFFFF" stroke="#231F20" stroke-width="2.868" d="M101.7,148c-28.5,0-49-2.7-49.2-2.8l-1.1-0.2l-0.1-6.9l0-15.6
			l-2.4-1.5c-2.2,0.3-12.5,1.9-31.2,6.8l-1.7,0.4l0.1-20.1l3-0.6l0-13.5l-3.1,0.2l0.1-18.9l177.8,0L194,98.5l-6.1-0.6l0,12.1l-3-0.5
			v16.2l-1.7-0.6c-3.8-1.3-20.7-4.4-24.7-5.1l-2.7,2.7l-0.1,21.8l-1.1,0.2C138,146.9,120.2,148,101.7,148L101.7,148z"/>
		<path fill="#231F20" d="M154.4,139.8l0,2.9c-16.3,2.1-34.6,3.2-52.7,3.2c-25.4,0-45.5-2.2-49.2-2.7l0-3.5h-2.4v16.4
			c0,0,55.1,5.6,106.8,0v-16.4H154.4z"/>
		<g>
			<g>
				<g>
					<path fill="#939598" d="M46.3,79.3c-8.8,0-17.6,0-26.4,0c0,3.9,0,7.7,0,11.6c0,0,2.3-0.2,3.1-0.2c0,2.8,0,17.5,0,20.2
						c-0.8,0.1-3.1,0.6-3.1,0.6c0,3.9,0,7.7,0,11.6c9.2-2.4,18.4-4.3,27.8-5.9c0-3.3,0-6.7,0.1-10c0,0-2.5,0.3-3.2,0.4
						c-0.7-1-5.1-7.2-6.1-8.5c0.9-1.6,5.4-8.4,6.2-9.5c0.7,0,3.2-0.1,3.2-0.1c0-3.3,0-6.7,0.1-10C47.3,79.3,46.8,79.3,46.3,79.3z
						 M33.3,90c0,0,0.3,0,0.6,0c-0.7,1.1-0.9,1.5-1.8,2.9c0-1.4,0-2,0-2.8C32.8,90.1,33.3,90,33.3,90z M32.5,107.7
						c0.4,0.6,0.5,0.7,1,1.4c-0.1,0-0.8,0.1-1.3,0.2c0-0.5,0-0.8,0-1.1C32.2,108.1,32.4,107.9,32.5,107.7z"/>
					<path fill="#231F20" stroke="#FFFFFF" stroke-width="1.2642" d="M21.4,120.9c0-2.7,0-5.3,0-8c1-0.2,2.1-0.4,3.1-0.6
						c0-7.8,0-15.7,0-23.5c-1,0.1-2.1,0.1-3.1,0.2c0-2.7,0-5.3,0-8c4,0,8-0.1,12-0.1c0,2.5,0,5,0,7.5c-0.9,0-1.8,0.1-2.7,0.1
						c0,3.4,0,6.7,0,10.1c2.1-3.6,4.2-7,6.2-10.4c-0.9,0-1.8,0.1-2.7,0.1c0-2.5,0-5,0-7.4c4,0,8-0.1,12-0.1c0,2.3,0,4.7,0,7
						c-0.8,0-1.7,0.1-2.5,0.1c-2.4,3.6-4.8,7.3-7.2,11.2c2.4,3.5,4.7,6.8,7.1,10c0.8-0.1,1.7-0.2,2.5-0.3c0,2.3,0,4.7,0,7
						c-4,0.7-8,1.4-11.9,2.2c0-2.5,0-5,0-7.4c0.8-0.1,1.5-0.2,2.3-0.4c-1.3-1.8-2.6-3.7-3.9-5.6c-0.6,1.1-1.2,2.2-1.9,3.3
						c0,1.1,0,2.2,0,3.2c0.9-0.2,1.8-0.3,2.6-0.4c0,2.5,0,5,0,7.5C29.3,119.1,25.3,119.9,21.4,120.9z"/>
					<path fill="#939598" d="M61.8,79.3c-4.5,0-9,0-13.6,0c0,3.3,0,6.7-0.1,10c0,0,2.3-0.1,3.1-0.1c0,2.4-0.1,15.1-0.1,17.5
						c-0.8,0.1-3.1,0.4-3.1,0.4c0,3.3,0,6.7-0.1,10c5-0.8,10.1-1.6,15.1-2.2c0-3.1,0-6.3,0.1-9.4c0,0-2.1,0.2-2.7,0.3
						c0-2.3,0.1-14.6,0.1-16.9c0.5,0,2.7-0.1,2.7-0.1c0-3.1,0-6.3,0.1-9.4C62.9,79.3,62.4,79.3,61.8,79.3z"/>
					<path fill="#231F20" stroke="#FFFFFF" stroke-width="1.2642" d="M49.6,115.3c0-2.3,0-4.6,0-6.9c1-0.1,2.1-0.3,3.1-0.4
						c0-6.8,0.1-13.6,0.1-20.4c-1,0-2.1,0.1-3.1,0.1c0-2.3,0-4.6,0-6.9c4,0,8-0.1,12-0.1c0,2.2,0,4.4,0,6.6c-0.9,0-1.8,0.1-2.7,0.1
						c0,6.6-0.1,13.3-0.1,19.9c0.9-0.1,1.8-0.2,2.7-0.3c0,2.2,0,4.4,0,6.6C57.6,114.1,53.6,114.6,49.6,115.3z"/>
					<path fill="#939598" d="M80,79.3c-3.1,0-6.3,0-9.4,0c-2,2-3.9,4-5.9,6.1c-0.1,7.7-0.1,15.5-0.2,23.2c1.9,1.8,3.9,3.7,5.8,5.5
						c3.4-0.3,6.8-0.6,10.2-0.9c2-2.1,3.9-4.1,5.9-6.1c0-2.1,0-4.1,0-6.2c-3.1,0.1-6.2,0.2-9.4,0.4c0,0,0,2.3,0,3.1
						c-1.2,0.1-2,0.1-3.1,0.2c0-2.2,0.1-14,0.1-16.2c1.2,0,1.9,0,3.1-0.1c0,0.9,0,3.1,0,3.1c3.1-0.1,6.2-0.2,9.4-0.2
						c0-2.1,0-4.1,0-6.2c-1.9-1.9-3.9-3.8-5.8-5.8C80.5,79.3,80.2,79.3,80,79.3z"/>
					<path fill="#231F20" stroke="#FFFFFF" stroke-width="1.2642" d="M71.1,112.6c-1.7-1.5-3.3-3.1-5-4.7c0.1-7.3,0.1-14.7,0.2-22
						c1.7-1.8,3.3-3.5,5-5.2c2.9,0,5.8,0,8.7,0c1.7,1.7,3.3,3.3,5,4.9c0,1.4,0,2.9,0,4.3c-2.1,0-4.2,0.1-6.2,0.1c0-1,0-2.1,0-3.1
						c-2.1,0-4.2,0.1-6.2,0.1c0,6.4-0.1,12.7-0.1,19.1c2.1-0.2,4.2-0.3,6.2-0.4c0-1,0-2.1,0-3.1c2.1-0.1,4.2-0.2,6.3-0.3
						c0,1.4,0,2.9,0,4.3c-1.7,1.7-3.4,3.5-5,5.3C76.9,112,74,112.3,71.1,112.6z"/>
					<path fill="#939598" d="M114.3,79.3c-8.8,0-17.6,0-26.4,0c0,3,0,5.9,0,8.9c0,0,2.3,0,3.1,0c0,2.1,0,13.5-0.1,15.6
						c-0.8,0-3.1,0.1-3.1,0.1c0,3,0,5.9,0,8.9c9.4-0.5,18.8-0.6,28.2-0.3c0-2.9,0-5.9,0-8.8c0,0-2.5-0.1-3.2-0.1
						c-0.7-1-5.2-6.7-6.2-7.9c0.9-1.2,5.4-6.7,6.1-7.7c0.7,0,3.2,0,3.2,0c0-2.9,0-5.9,0-8.8C115.3,79.3,114.8,79.3,114.3,79.3z
						 M101.4,88c0,0,0.3,0,0.7,0c-0.7,0.9-0.9,1.2-1.8,2.3c0-1.1,0-1.6,0-2.3C100.8,88,101.4,88,101.4,88z M100.6,102.3
						c0.5,0.6,0.5,0.7,1,1.3c-0.1,0-0.8,0-1.4,0c0-0.4,0-0.6,0-0.9C100.3,102.6,100.5,102.4,100.6,102.3z"/>
					<path fill="#231F20" stroke="#FFFFFF" stroke-width="1.2642" d="M89.3,111.3c0-2,0-4.1,0-6.1c1,0,2.1-0.1,3.1-0.1
						c0-6.1,0-12.2,0.1-18.3c-1,0-2.1,0-3.1,0c0-2,0-4.1,0-6.1c4,0,8,0,12,0c0,2,0,4,0,6.1c-0.9,0-1.8,0-2.7,0c0,2.7,0,5.4,0,8.1
						c2.1-2.7,4.2-5.4,6.2-8.1c-0.9,0-1.8,0-2.7,0c0-2,0-4,0-6.1c4,0,8,0,12,0c0,2,0,4.1,0,6.1c-0.8,0-1.7,0-2.5,0
						c-2.4,3-4.8,6-7.2,9c2.4,3.1,4.8,6.1,7.2,9.2c0.8,0,1.7,0,2.5,0c0,2,0,4.1,0,6.1c-4-0.1-8.1-0.1-12.1-0.1c0-2,0-4,0-6.1
						c0.8,0,1.6,0,2.3,0c-1.3-1.7-2.7-3.3-4-5c-0.6,0.8-1.3,1.6-1.9,2.4c0,0.9,0,1.7,0,2.6c0.9,0,1.8,0,2.7,0c0,2,0,4,0,6.1
						C97.3,111,93.3,111.1,89.3,111.3z"/>
					<path fill="#939598" d="M131.6,79.3c-3.1,0-6.3,0-9.4,0c-1.9,1.9-3.9,3.8-5.8,5.7c0,7.3,0,14.5,0.1,21.8c2,2,3.9,3.9,5.9,6
						c3.4,0.2,6.8,0.4,10.2,0.7c1.9-1.8,3.9-3.6,5.8-5.4c0-7.6-0.1-15.1-0.1-22.7c-2-2-3.9-4-5.9-6C132,79.3,131.8,79.3,131.6,79.3z
						 M128.8,88.2c0,2.2,0.1,13.7,0.1,15.9c-1.2-0.1-2-0.1-3.1-0.1c0-2.2-0.1-13.6-0.1-15.8C126.9,88.2,127.6,88.2,128.8,88.2z"/>
					<path fill="#231F20" stroke="#FFFFFF" stroke-width="1.2642" d="M123,111.4c-1.7-1.7-3.4-3.4-5-5.1c0-6.9,0-13.8-0.1-20.8
						c1.7-1.6,3.3-3.2,5-4.9c2.9,0,5.8,0,8.7,0c1.7,1.7,3.3,3.4,5,5.1c0,7.2,0.1,14.4,0.1,21.5c-1.7,1.6-3.3,3.1-5,4.7
						C128.8,111.7,125.9,111.5,123,111.4z M124.2,105.3c2.1,0.1,4.2,0.2,6.3,0.3c0-6.2-0.1-12.5-0.1-18.7c-2.1,0-4.2-0.1-6.2-0.1
						C124.2,93,124.2,99.1,124.2,105.3z"/>
					<path fill="#939598" d="M162.7,79.3c-7.8,0-15.6,0-23.3,0c0,3.1,0,6.1,0.1,9.2c0,0,2.3,0.1,3.1,0.1c0,2.3,0.1,14.2,0.1,16.5
						c-0.8-0.1-3.1-0.2-3.1-0.2c0,3.1,0,6.1,0.1,9.2c5.2,0.5,10.4,1.2,15.6,1.9c0-3.2,0-6.5-0.1-9.7c0,0-2.3-0.2-3.1-0.3
						c0-1.3,0-2.4,0-3.7c1.8,0.1,6.2,0.6,6.2,0.6c0-3.3,0-6.6-0.1-9.8c0,0-4.5-0.3-6.2-0.3c0-1.3,0-2.4,0-3.7c1.2,0,1.9,0.1,3.1,0.1
						c0,0.9,0,3.4,0,3.4c3.1,0.2,6.2,0.3,9.3,0.5c0-4.5-0.1-9.1-0.1-13.6C163.8,79.3,163.3,79.3,162.7,79.3z"/>
					<path fill="#231F20" stroke="#FFFFFF" stroke-width="1.2642" d="M141.2,112.7c0-2.1,0-4.3,0-6.4c1,0.1,2.1,0.2,3.1,0.3
						c0-6.5-0.1-12.9-0.1-19.4c-1,0-2.1-0.1-3.1-0.1c0-2.1,0-4.3,0-6.4c7.3,0,14.5,0.1,21.8,0.1c0,3.5,0,7,0.1,10.4
						c-2.1-0.1-4.1-0.2-6.2-0.3c0-1.1,0-2.3,0-3.4c-2.1-0.1-4.1-0.1-6.2-0.2c0,2.2,0,4.4,0,6.6c2.1,0.1,4.1,0.2,6.2,0.4
						c0,2.3,0,4.5,0,6.8c-2.1-0.2-4.1-0.4-6.2-0.5c0,2.2,0,4.4,0,6.6c1,0.1,2.1,0.2,3.1,0.3c0,2.2,0,4.5,0,6.7
						C149.5,113.7,145.4,113.2,141.2,112.7z"/>
					<path fill="#939598" d="M189,79.3c-7.8,0-15.6,0-23.3,0c0,3.4,0,6.8,0.1,10.2c0,0,2.3,0.1,3.1,0.2c0,2.5,0.1,15.8,0.1,18.3
						c-0.8-0.1-3.1-0.4-3.1-0.4c0,3.4,0,6.8,0.1,10.2c5.2,0.9,10.3,2,15.4,3.1c0-3.7,0-7.3,0-11c0,0-2.3-0.4-3.1-0.5
						c0-1.4,0-2.7,0-4.2c1.7,0.2,6.2,0.9,6.2,0.9c0-3.7,0-7.5,0-11.2c0,0-4.5-0.4-6.2-0.5c0-1.4,0-2.7,0-4.2
						c1.2,0.1,1.9,0.1,3.1,0.2c0,1.1,0,3.8,0,3.8c3.1,0.2,6.2,0.5,9.3,0.8c0-5.2,0-10.4,0-15.6C190,79.3,189.5,79.3,189,79.3z"/>
					<path fill="#231F20" stroke="#FFFFFF" stroke-width="1.2642" d="M167.4,116.4c0-2.4,0-4.7,0-7.1c1,0.1,2.1,0.3,3.1,0.5
						c0-7.2-0.1-14.4-0.1-21.6c-1,0-2.1-0.1-3.1-0.1c0-2.4,0-4.7,0-7.1c7.3,0.1,14.5,0.1,21.8,0.2c0,4,0,8,0,12
						c-2.1-0.2-4.1-0.3-6.2-0.5c0-1.3,0-2.6,0-3.8c-2.1-0.1-4.1-0.2-6.2-0.3c0,2.5,0,5,0,7.4c2.1,0.2,4.1,0.4,6.2,0.6
						c0,2.6,0,5.1,0,7.7c-2.1-0.3-4.1-0.6-6.2-0.8c0,2.5,0,5,0,7.4c1,0.2,2.1,0.3,3.1,0.5c0,2.5,0,5,0,7.6
						C175.7,117.9,171.5,117.1,167.4,116.4z"/>
				</g>
			</g>
		</g>
		<rect x="62.8" y="131.6" fill="#231F20" width="1.3" height="1"/>
		<rect x="63.1" y="130.7" fill="#231F20" width="0.8" height="1.4"/>
		<polygon fill="#939598" points="99.1,136.8 98.2,136.5 98.2,134.9 99.1,134.9 		"/>
		<rect x="100.1" y="134.9" fill="#939598" width="0.9" height="1.6"/>
		<rect x="98" y="134.9" fill="#939598" width="0.5" height="1"/>
		<g>
			<g>
				<g>
					<path fill="none" stroke="#939598" stroke-width="2.3897" d="M68.2,117.4c-2.5,0.3-5,0.6-7.5,0.9c-1.5,1.4-3,2.7-4.5,3.9
						c0,4.5,0,9,0,13.5c1.5,1.2,3,2.5,4.5,3.8c2.5,0.3,5.1,0.6,7.6,0.8c1.5-1.1,3-2.3,4.5-3.5c0-3.6,0-7.2,0-10.8
						c-2.9,0.1-5.8,0.2-8.6,0.3c0,1.7,0,3.4,0,5.1c0,0,2.1,0,2.6,0c0,0.6,0,2.8,0,3.4c-0.5,0-4.1-0.2-4.6-0.2c0-0.8,0-10.8,0-11.6
						c0.5,0,4.1-0.3,4.6-0.3c0,0.6,0,2.2,0,2.2c2-0.1,4-0.2,6-0.3c0-1.3,0-2.6,0-4C71.3,119.6,69.8,118.5,68.2,117.4
						C68.2,117.4,68.2,117.4,68.2,117.4z"/>
					<path fill="#231F20" stroke="#FFFFFF" stroke-width="1.1948" d="M60.8,139.2c-1.4-1.3-2.8-2.5-4.3-3.6c0-4.4,0-8.8,0-13.1
						c1.4-1.2,2.8-2.4,4.3-3.7c2.5-0.3,4.9-0.6,7.4-0.9c1.4,1,2.9,2.1,4.3,3.2c0,1.1,0,2.1,0,3.2c-1.8,0.1-3.6,0.2-5.3,0.2
						c0-0.7,0-1.5,0-2.2c-1.8,0.1-3.5,0.3-5.3,0.4c0,4.1,0,8.3,0,12.4c1.8,0.1,3.5,0.2,5.3,0.3c0-1.4,0-2.9,0-4.3
						c-0.9,0-1.8,0-2.6,0c0-1.4,0-2.8,0-4.3c2.7-0.1,5.3-0.2,8-0.2c0,3.3,0,6.7,0,10c-1.4,1.1-2.9,2.3-4.3,3.3
						C65.7,139.7,63.2,139.5,60.8,139.2z"/>
					<path fill="#FFFFFF" stroke="#939598" stroke-width="2.3897" d="M89.7,115.7c-1.9,0.1-3.7,0.2-5.6,0.3c0,0.1-5.2,19.1-5.3,19.5
						c-0.4,0-2.8-0.1-2.8-0.1c0,1.9,0,3.8,0,5.7c3.6,0.3,7.3,0.5,11,0.7c0-2,0-4,0-6c0,0-1.5,0-2.1-0.1c0.2-0.6,0.3-1.1,0.4-1.5
						c0.4,0,3.2,0.1,3.6,0.1c0.1,0.3,0.2,0.9,0.4,1.5c-0.6,0-2.1,0-2.1,0c0,2,0,4,0,6c3.7,0.2,7.3,0.3,11,0.3c0-2.1,0-4.1,0-6.2
						c0,0-2.4,0-2.8,0c-0.2-0.7-5.4-20.2-5.4-20.2C89.8,115.7,89.7,115.7,89.7,115.7z M87,127.6c0.1,0.3,0.1,0.4,0.2,0.7
						c-0.2,0-0.2,0-0.4,0C86.9,128,86.9,128,87,127.6z"/>
					<path fill="#231F20" stroke="#FFFFFF" stroke-width="1.1948" d="M76.3,140.6c0-1.6,0-3.1,0-4.7c0.9,0,1.8,0.1,2.7,0.1
						c1.8-6.3,3.6-12.8,5.3-19.5c1.8-0.1,3.6-0.2,5.4-0.3c1.8,6.6,3.6,13.3,5.4,20.1c0.9,0,1.8,0,2.7,0c0,1.7,0,3.4,0,5.1
						c-3.4-0.1-6.9-0.1-10.3-0.3c0-1.7,0-3.3,0-5c0.8,0,1.5,0,2.3,0.1c-0.2-0.8-0.4-1.7-0.7-2.5c-1.3,0-2.7,0-4-0.1
						c-0.2,0.8-0.4,1.6-0.7,2.4c0.8,0,1.5,0,2.3,0.1c0,1.7,0,3.3,0,5C83.2,141.1,79.7,140.9,76.3,140.6z M87,126.3
						c-0.2,0.8-0.4,1.7-0.7,2.5c0.4,0,0.9,0,1.3,0C87.4,128,87.2,127.2,87,126.3z"/>
					<path fill="#FFFFFF" stroke="#939598" stroke-width="2.3897" d="M127.9,116.4c-2.6-0.2-5.2-0.4-7.8-0.5
						c0-0.1-4.7,10.5-5.2,11.6c-0.5-1.1-5.2-12-5.2-12c-2.9-0.1-5.7-0.1-8.6-0.1c0,2.1,0,4.1,0,6.2c0,0,2.2,0,2.7,0
						c0,0.9,0,13.4,0,14.3c-0.5,0-2.7,0-2.7,0c0,2.1,0,4.1,0,6.2c3.8,0,7.5,0,11.3-0.1c0,0,0-4.6,0-5.3c1.1,2.5,2.5,5.7,2.5,5.7
						c0,0,1.3-3.2,2.3-5.4c0,1.1,0,4.8,0,4.8c3.7-0.1,7.3-0.3,11-0.6c0-1.9,0-3.8,0-5.8c0,0-2.2,0.1-2.7,0.1c0-0.9,0-12.6,0-13.5
						c0.5,0,2.7,0.1,2.7,0.1c0-1.9,0-3.8,0-5.8C128.1,116.4,128,116.4,127.9,116.4z M109.9,130.8c0.4,1,1.1,2.6,2.2,5.1
						c-0.1,0-1.7,0-2.2,0C109.9,135.2,109.9,132.6,109.9,130.8z M120,130.8c0,1.8,0,4.3,0,4.9c-0.5,0-1.8,0-2.1,0
						C118.9,133.3,119.5,131.8,120,130.8z"/>
					<path fill="#231F20" stroke="#FFFFFF" stroke-width="1.1948" d="M101.5,141.6c0-1.7,0-3.4,0-5.1c0.9,0,1.8,0,2.7,0
						c0-5.1,0-10.2,0-15.4c-0.9,0-1.8,0-2.7,0c0-1.7,0-3.4,0-5.1c2.7,0,5.4,0,8.1,0.1c1.8,4.2,3.6,8.3,5.4,12.4
						c1.8-4.1,3.6-8.1,5.4-12c2.5,0.1,5.1,0.3,7.6,0.5c0,1.6,0,3.2,0,4.8c-0.9,0-1.8-0.1-2.7-0.1c0,4.8,0,9.7,0,14.5
						c0.9,0,1.8-0.1,2.7-0.1c0,1.6,0,3.2,0,4.8c-3.4,0.2-6.9,0.4-10.3,0.5c0-1.7,0-3.3,0-5c0.9,0,1.8,0,2.7-0.1c0-2.4,0-4.7,0-7.1
						c-1.8,4.1-3.5,8.2-5.3,12.4c-1.8-4.1-3.6-8.2-5.4-12.4c0,2.4,0,4.9,0,7.3c0.9,0,1.7,0,2.6,0c0,1.7,0,3.4,0,5.1
						C108.6,141.6,105,141.6,101.5,141.6z"/>
					<path fill="#FFFFFF" stroke="#939598" stroke-width="2.3897" d="M150.4,119c-6.3-1-12.6-1.7-19-2.3c0,1.9,0,3.8,0,5.6
						c0,0,2.2,0.1,2.7,0.1c0,0.8,0,12,0,12.8c-0.5,0-2.7,0.1-2.7,0.1c0,1.9,0,3.8,0,5.6c6.5-0.5,12.9-1.2,19.3-2c0-2.2,0-4.4,0-6.5
						c-2,0.1-4,0.1-6,0.2c0,0,0,1.5,0,2.1c-0.5,0-4.2,0.2-4.7,0.2c0-0.6,0-2.8,0-3.4c0.6,0,5.3-0.1,5.3-0.1c0-1.7,0-3.3,0-5
						c0,0-4.8-0.2-5.3-0.2c0-0.6,0-2.9,0-3.5c0.5,0,4.2,0.3,4.7,0.3c0,0.5,0,2.1,0,2.1c2,0.1,4,0.2,6,0.3c0-2.2,0-4.4,0-6.6
						C150.6,119,150.5,119,150.4,119z"/>
					<path fill="#231F20" stroke="#FFFFFF" stroke-width="1.1948" d="M131.7,140.5c0-1.6,0-3.1,0-4.7c0.9,0,1.8-0.1,2.7-0.1
						c0-4.6,0-9.1,0-13.7c-0.9-0.1-1.8-0.1-2.7-0.2c0-1.6,0-3.1,0-4.7c6.2,0.5,12.5,1.3,18.7,2.2c0,1.9,0,3.9,0,5.8
						c-1.8-0.1-3.5-0.2-5.3-0.3c0-0.7,0-1.4,0-2.1c-1.8-0.1-3.6-0.3-5.3-0.4c0,1.5,0,2.9,0,4.4c1.8,0.1,3.6,0.1,5.3,0.2
						c0,1.4,0,2.8,0,4.1c-1.8,0-3.6,0-5.3,0.1c0,1.4,0,2.9,0,4.3c1.8-0.1,3.6-0.2,5.3-0.3c0-0.7,0-1.4,0-2c1.8-0.1,3.6-0.1,5.3-0.2
						c0,1.9,0,3.9,0,5.8C144.2,139.5,137.9,140.1,131.7,140.5z"/>
				</g>
			</g>
			<rect x="119" y="133.5" fill="#939598" width="0.5" height="1.2"/>
			<rect x="110.3" y="134.2" fill="#939598" width="0.7" height="1.6"/>
		</g>
		<rect x="119.1" y="114.5" fill="#939598" width="1.2" height="1.1"/>
		<rect x="89.9" y="114.1" fill="#939598" width="1.1" height="1.2"/>
		<polygon fill="#939598" points="127.5,122.2 128.4,122.2 128.5,121.7 129.3,121.7 129.3,123.3 127.3,123.2 		"/>
		<polygon fill="#939598" points="132.4,122.4 132.4,123.4 130.3,123.4 130.3,122.3 131.2,122.3 131.2,122.4 		"/>
		<polygon fill="#939598" points="101.3,121.6 101.3,122.7 100.1,122.7 100.1,121.4 101,121.4 101,121.6 		"/>
		<g>
			<polygon fill="#FFFFFF" points="83,116.1 82.5,116.1 82.5,114.3 83.4,114.5 			"/>
			<polygon fill="#FFFFFF" points="92.5,113.6 89.8,113.6 89.7,114.7 92.5,114.5 			"/>
			<polygon fill="#FFFFFF" points="94.9,118.2 91.2,116.7 90.5,114.2 91.8,114.4 			"/>
		</g>
		<g>
			<polygon fill="#FFFFFF" points="111.5,115.2 111.2,116.2 110.2,113.8 111.5,113.8 			"/>
			<polygon fill="#FFFFFF" points="118.8,116.3 118.5,115.4 118.5,113.4 119.8,113.9 			"/>
			<polygon fill="#FFFFFF" points="119.2,114.8 121,114.9 120.8,113.8 119.2,113.9 			"/>
		</g>
		<rect x="99.4" y="122.7" fill="#FFFFFF" width="3.1" height="2.2"/>
		<rect x="74.9" y="134.4" fill="#939598" width="0.8" height="1.6"/>
		<polygon fill="#939598" points="77.1,134.5 77.1,135.4 75.1,135.4 75.4,134.4 		"/>
		<polygon fill="#939598" points="114.5,143.1 114.5,144 113.5,141.7 114.5,141.7 		"/>
		<rect x="114.3" y="139.6" fill="#FFFFFF" width="1.3" height="0.7"/>
		<polygon fill="#FFFFFF" points="116.2,144 113.9,144 113.8,143.1 116.2,143 		"/>
		<polygon fill="#939598" points="115.7,142.9 114.4,142.9 114.4,142.2 115.8,142.1 		"/>
		<polygon fill="#939598" points="113.5,143.1 111.5,143.1 112.7,142.2 113.5,141.5 		"/>
		<polygon fill="#939598" points="117.2,143 112,143.1 112,142.1 116.8,142.2 		"/>
		<rect x="113.4" y="141.7" fill="#939598" width="0.4" height="0.7"/>
		<rect x="100.5" y="134.9" fill="#939598" width="1.5" height="1"/>
		<polygon fill="#939598" points="129.3,135.6 128.5,136.2 128.4,134.5 129.3,134.5 		"/>
		<polygon fill="#939598" points="131.9,135.3 131.1,135.4 131.1,135.6 130.3,135.6 130.3,134.4 131.7,134.4 		"/>
		<polygon fill="#939598" points="31.5,94.8 31.7,91.3 32,89.7 33.8,89.6 34.6,89.6 34,90.9 		"/>
		<polygon fill="#939598" points="99.5,92.6 99.7,89.1 100,87.5 101.8,87.4 102.6,87.5 102,88.7 		"/>
		<polygon fill="#939598" points="32.5,106.8 34,108.8 33.8,109.8 32.6,109.9 32.1,109.8 31.9,108.7 		"/>
		<polygon fill="#939598" points="100.6,101.2 102.1,103.2 101.8,104.2 100.7,104.3 100.2,104.2 100,103.2 		"/>
		<rect x="62.9" y="123.7" fill="#939598" width="3" height="2.1"/>
		<rect x="62.8" y="132.2" fill="#939598" width="3.2" height="2"/>
		<rect x="140.7" y="123.4" fill="#939598" width="3.4" height="2.2"/>
		<rect x="140.7" y="132.3" fill="#939598" width="3.1" height="1.9"/>
		<g>
			<g>
				<path fill="#FFFFFF" d="M58,153.6c0-0.5,0-1,0-1.4c0.3,0,0.6,0.1,0.9,0.1c0.6-1.9,1.2-3.7,1.8-5.6c0.6,0.1,1.2,0.1,1.8,0.2
					c0.6,2,1.2,4,1.8,5.9c0.3,0,0.6,0,0.9,0.1c0,0.5,0,1,0,1.4c-1.2-0.1-2.3-0.2-3.5-0.3c0-0.5,0-1,0-1.4c0.3,0,0.5,0,0.8,0.1
					c-0.1-0.2-0.2-0.5-0.2-0.7c-0.5,0-0.9-0.1-1.4-0.1c-0.1,0.2-0.2,0.5-0.2,0.7c0.3,0,0.5,0,0.8,0.1c0,0.5,0,1,0,1.4
					C60.3,153.9,59.1,153.8,58,153.6z M61.6,149.6c-0.1,0.2-0.2,0.5-0.2,0.7c0.2,0,0.3,0,0.5,0C61.8,150.1,61.7,149.9,61.6,149.6z"
					/>
				<path fill="#FFFFFF" d="M73.8,154.9c0-0.5,0-1,0-1.4c0.3,0,0.6,0,0.9,0.1c0-1.4,0-2.9,0-4.3c-0.3,0-0.6,0-0.9-0.1
					c0,0.2,0,0.5,0,0.7c-0.6,0-1.2-0.1-1.8-0.1c0-0.7,0-1.4,0-2.2c2.4,0.2,4.8,0.3,7.3,0.4c0,0.7,0,1.4,0,2.2
					c-0.6,0-1.2-0.1-1.8-0.1c0-0.2,0-0.5,0-0.7c-0.3,0-0.6,0-0.9,0c0,1.4,0,2.9,0,4.3c0.3,0,0.6,0,0.9,0c0,0.5,0,1,0,1.4
					C76.2,155,75,155,73.8,154.9z"/>
				<path fill="#FFFFFF" d="M86,155.5c0-0.5,0-1,0-1.4c0.3,0,0.6,0,0.9,0c0-1.4,0-2.9,0-4.3c-0.3,0-0.6,0-0.9,0c0-0.5,0-1,0-1.4
					c1.2,0,2.4,0.1,3.6,0.1c0,0.5,0,1,0,1.4c-0.3,0-0.6,0-0.9,0c0,1.4,0,2.9,0,4.3c0.6,0,1.2,0,1.8,0.1c0-0.2,0-0.5,0-0.7
					c0.6,0,1.2,0,1.8,0c0,0.7,0,1.4,0,2.2C90.2,155.6,88.1,155.6,86,155.5z"/>
				<path fill="#FFFFFF" d="M99.1,155.8c0-0.5,0-1,0-1.4c0.3,0,0.6,0,0.9,0c0.6-1.9,1.2-3.8,1.8-5.8c0.6,0,1.2,0,1.8,0
					c0.6,1.9,1.2,3.8,1.8,5.8c0.3,0,0.6,0,0.9,0c0,0.5,0,1,0,1.4c-1.2,0-2.3,0-3.5,0c0-0.5,0-1,0-1.4c0.3,0,0.5,0,0.8,0
					c-0.1-0.2-0.2-0.5-0.2-0.7c-0.5,0-0.9,0-1.4,0c-0.1,0.2-0.2,0.5-0.2,0.7c0.3,0,0.5,0,0.8,0c0,0.5,0,1,0,1.4
					C101.4,155.8,100.3,155.8,99.1,155.8z M102.7,151.5c-0.1,0.2-0.2,0.5-0.2,0.7c0.2,0,0.3,0,0.5,0
					C102.9,152,102.8,151.7,102.7,151.5z"/>
				<path fill="#FFFFFF" d="M113.1,155.7c0-0.5,0-1,0-1.4c0.3,0,0.6,0,0.9,0c0-1.4,0-2.9,0-4.3c-0.3,0-0.6,0-0.9,0c0-0.5,0-1,0-1.4
					c0.9,0,1.8,0,2.7-0.1c0.9,1.4,1.8,2.7,2.7,4c0-0.9,0-1.8,0-2.7c-0.3,0-0.6,0-0.9,0c0-0.5,0-1,0-1.4c1.2,0,2.4-0.1,3.6-0.1
					c0,0.5,0,1,0,1.4c-0.3,0-0.6,0-0.9,0c0,1.9,0,3.8,0,5.8c-0.6,0-1.2,0-1.8,0.1c-0.9-1.3-1.8-2.7-2.7-4c0,0.9,0,1.8,0,2.7
					c0.3,0,0.6,0,0.9,0c0,0.5,0,1,0,1.4C115.5,155.7,114.3,155.7,113.1,155.7z"/>
				<path fill="#FFFFFF" d="M129.9,155.1c0-0.5,0-1,0-1.4c0.3,0,0.6,0,0.9,0c0-1.4,0-2.9,0-4.3c-0.3,0-0.6,0-0.9,0
					c0,0.2,0,0.5,0,0.7c-0.6,0-1.2,0.1-1.8,0.1c0-0.7,0-1.4,0-2.2c2.4-0.1,4.8-0.3,7.3-0.4c0,0.7,0,1.4,0,2.2
					c-0.6,0-1.2,0.1-1.8,0.1c0-0.2,0-0.5,0-0.7c-0.3,0-0.6,0-0.9,0.1c0,1.4,0,2.9,0,4.3c0.3,0,0.6,0,0.9-0.1c0,0.5,0,1,0,1.4
					C132.3,155,131.1,155,129.9,155.1z"/>
				<path fill="#FFFFFF" d="M142,154.3c0-0.5,0-1,0-1.4c0.3,0,0.6,0,0.9-0.1c0.6-2,1.2-3.9,1.8-5.9c0.6-0.1,1.2-0.1,1.8-0.2
					c0.6,1.9,1.2,3.7,1.8,5.6c0.3,0,0.6-0.1,0.9-0.1c0,0.5,0,1,0,1.4c-1.2,0.1-2.3,0.2-3.5,0.3c0-0.5,0-1,0-1.4c0.3,0,0.5,0,0.8-0.1
					c-0.1-0.2-0.2-0.5-0.2-0.7c-0.5,0-0.9,0.1-1.4,0.1c-0.1,0.2-0.2,0.5-0.2,0.7c0.3,0,0.5,0,0.8-0.1c0,0.5,0,1,0,1.4
					C144.4,154.1,143.2,154.2,142,154.3z M145.7,149.6c-0.1,0.2-0.2,0.5-0.2,0.7c0.2,0,0.3,0,0.5,0
					C145.8,150.1,145.7,149.9,145.7,149.6z"/>
			</g>
		</g>
		<polygon fill="#231F20" points="61.7,149.2 62,149.9 62.2,150.6 61.7,150.6 61.1,150.6 61.4,149.9 		"/>
		<polygon fill="#231F20" points="102.8,150.7 103,151.4 103.3,152.1 102.8,152.1 102.2,152.1 102.5,151.4 		"/>
		<polygon fill="#231F20" points="145.6,149.2 145.9,150 146.3,150.7 145.7,150.7 145.1,150.7 145.3,150 		"/>
		<path fill="#FFFFFF" d="M179.8,67.4c0.8-1.4,1-3,0.5-4.6c-0.7-2.4-3-4-5.5-4c-1.1,0-2.3,0.3-3.3,0.9c-0.2,0.1-0.4,0.3-0.7,0.4
			c-0.1-0.2-0.2-0.4-0.4-0.6c0.4-0.8,0.8-1.5,1.1-2.2c0.1,0,0.3,0,0.4,0c3.4,0,6.1-2.7,6.1-6.1c0-3.4-2.7-6.1-6.1-6.1
			c-0.8,0-1.6,0.2-2.3,0.5c-1.4-1.1-3.1-1.8-5.1-1.8c-4.7,0-8.2,3.9-8.2,9.1c0,0.8,0.1,1.7,0.2,2.5c-0.8-0.2-1.8-0.4-2.8-0.4l-0.1,0
			c-0.5,0-1,0-1.5,0.1c0.1-1.1,0-2.2-0.2-3.2c-0.7-3.9-3.6-6.4-7.4-6.4c-0.5,0-1,0-1.5,0.1c-2,0.4-3.8,1.5-5.5,3.1
			c-1-0.8-2.4-1.4-3.8-1.4c-0.9,0-1.7,0.2-2.4,0.5c-1.5-2.4-4-3.6-6.6-3.6c-5.1,0-9.5,4.3-11.8,10.9c-0.7-0.1-1.4-0.2-2.2-0.2
			l-0.1,0c-0.8,0-1.4,0.1-2.1,0.2c-1.2-1.7-3.1-2.9-5.3-3.2c0-1.7-0.5-3.2-1.6-4.3c-1.1-1.1-2.6-1.8-4.3-1.8c-0.1,0-0.2,0-0.3,0
			c-2.5,0.1-5.3,2-5.6,5.7c0,0.4-0.1,0.8-0.1,1.1c-1.1-0.6-2.5-1-4-1.1c-0.1,0-0.2,0-0.4,0c-1.5,0-2.9,0.4-4.2,1.2
			c-1-2.1-3.1-3.6-5.6-3.6c-1.5,0-2.9,0.5-3.9,1.4c-0.5-1.3-1.3-2.5-2.4-3.3c0.8-0.9,1.2-1.9,1.2-3.3c0-2.7-2.2-5-4.8-6.4
			c1.8-0.6,3.5-1.5,5.1-2.7c6.2-4.6,6.6-10.8,3.8-14.5c-1.6-2.2-4.2-3.4-7.1-3.4c-1.8,0-3.7,0.5-5.5,1.4c-0.1-0.2-0.2-0.5-0.3-0.7
			c-1.1-2.4-3.1-4.1-5.5-4.6c-0.5-0.1-1.1-0.2-1.6-0.2c-2.8,0-5.4,1.6-7,4.1c-1.1-0.7-2.4-1-3.7-1c-1,0-2,0.2-2.9,0.6
			c-2.1,1-3.5,2.8-4,5.2c-0.1,0.3-0.1,0.6-0.1,1c-1.3,0.3-2.5,1-3.4,2c-1.1,1.3-1.6,2.9-1.5,4.6c0.2,2,1.2,3.9,2.9,5.4
			c0.1,0.1,0.2,0.1,0.2,0.2c-5,5.6-8.5,13.5-8.8,21.9c-0.4,9.9,4.7,20.9,16.8,21.7c0.4,0,0.8,0,1.2,0c1.9,0,3.8-0.3,5.8-0.8v0.6H112
			v-0.8h18.3v0.4h12.1h1.4h13.6V79h18.2v-1.3c4.1,0,6.3-2.8,6.4-5.5C182.2,70.2,181.3,68.5,179.8,67.4z"/>
		<path fill="#FFFFFF" d="M115.6,77.2c1.4,2.4,3.4,4.1,6.1,4.1c2.6,0,4.7-1.6,5.7-4.1H115.6z"/>
		<path fill="#231F20" d="M55.2,40.4c0,1.8-2.3,4-3.3,2.3c-0.6-1.3,0.9-3.7,2.2-3.7C55.2,39,55.2,39.9,55.2,40.4z M72.8,23
			c-1.7-2.2-5.3-2.4-8.9,0.3c-3.6,2.7-5.7,7.1-4.1,9.3c1.7,2.2,6.5,1.5,10.1-1.2C73.6,28.7,74.5,25.2,72.8,23z M57,17.3
			c-2.2-0.5-4.4,1.3-5.2,4.8c-0.8,3.5,0.3,7.2,2.5,7.6c2.2,0.5,4.7-2.4,5.4-5.9C60.5,20.3,59.2,17.8,57,17.3z M44.5,20.6
			c-1.6,0.8-2.2,3-1,5.6c1.2,2.6,3.7,4.5,5.3,3.8c1.6-0.8,1.8-3.9,0.6-6.5C48.2,20.8,46.1,19.8,44.5,20.6z M38.4,27.7
			c-0.8,1-0.6,2.6,0.9,3.9c1.5,1.3,3.7,1.7,4.5,0.7c0.8-1,0.1-3-1.4-4.3C40.9,26.7,39.3,26.7,38.4,27.7z M77.3,53.5
			c-1,0-1.9,0.8-1.9,1.9c0,1,0.8,1.9,1.9,1.9c1,0,1.9-0.8,1.9-1.9C79.1,54.3,78.3,53.5,77.3,53.5z M110.8,62.8
			c2.3,0,3.1-0.9,3.1-1.8c0-1.2-1.4-1.7-3.1-1.7c-1.8,0-3,0.7-3,1.7C107.8,61.9,108.5,62.8,110.8,62.8z M153.7,62.8
			c2.3,0,3.1-0.9,3.1-1.8c0-1.2-1.4-1.7-3.1-1.7c-1.8,0-3,0.7-3,1.7C150.7,61.9,151.4,62.8,153.7,62.8z M133.8,51.7
			c-1,0-1.8,0.8-1.8,1.8c0,1,0.8,1.8,1.8,1.8c1,0,1.8-0.8,1.8-1.8C135.6,52.5,134.8,51.7,133.8,51.7z M150.1,66.7
			c-0.3,1.2-1.9,4.6-5.8,4.7h-0.1c-1.8,0-3.6-0.9-5-2.5c-1.9,1.2-3.7,1.7-4.9,1.5c-2.8-0.4-3.6-2.6-3.9-4.1c-1.6,1.9-3.7,2.8-5.8,3
			c0.7,1.4,1.1,3.1,1.1,4.7c0,2.5-1.4,5-4,5c-3.6,0-5.8-5.1-6.1-10c-0.6,0.2-1.6,0.4-2.1-0.6c-0.6-1.2,0.8-2.3,2-3
			c0.2-9.8,4.5-16.8,9.2-16.8c1.6,0,3.4,1,3.4,3.8c0,3-1.8,6.8-4.6,10.3c-0.4,0.5-1.3,1.4-2.3,2.3c4.1,2.9,6.5-0.2,7.6-2.1
			c0.2-0.5,0.4-1,0.6-1.5c0.6-1.6,0.4-1.3,1-2.9c0.8-2.3,2-2.2,2.6-2.1c2,0.3,0.8,2.6,0.3,4.6l0,0c-0.8,3.4-0.4,6,1.7,6.4
			c0.7,0.1,1.8-0.3,3-1.1c-2.8-7.2,1.5-15.7,5.8-16.5c1.5-0.3,3.4,0.3,3.9,2.8c0.5,2.7-0.5,6.5-2.6,10.1c-0.5,0.8-1.8,2.7-3.5,4
			c0,0,0,0,0,0c1.2,1.6,2.8,1.6,2.8,1.6c2.3,0,3-1.8,3.3-2.5c0.3-0.8,1-1.1,1.7-0.9C150.2,65.3,150.3,66.1,150.1,66.7z M175.2,73.3
			c-2.5-0.1-5-1.9-7.3-4.5c-4,0.9-8.1,1.1-11,1.1c-2.4,2.4-4.7,4.5-6.3,5.6c0,0-2.2,1.6-3.3,0.2c-0.6-0.9-0.3-2,1.4-3
			c1.1-0.7,2.4-1.8,3.9-3.1c-2.5-0.7-1.8-3.2,0.5-2.9c0.2,0,1,0.1,2.2,0.2c2.4-2.5,4.8-5.3,6.7-7.9c-0.9-2.3-1.4-4.5-1.4-6.2
			c0-2.2,1.3-4.8,3.9-4.8c2.5,0,3.8,2.1,3.8,4.3c0,1.8-1.1,4.3-2.8,7c1,2.1,2.3,4.3,3.7,6.1c1.5-0.5,3.1-1.2,4.5-2
			c1.9-1.1,3.6,1.1,1.6,2.5c-1.2,0.8-2.6,1.4-4,1.9c1.5,1.4,3,2.4,4.6,2.5C178.4,70.6,178.5,73.6,175.2,73.3z M67.8,44
			c0-1.3-3.5-3.7-6-3.9c0,0.7,0,1.4,0,2.1c-0.1,1.7-0.4,3.5-0.8,5.2C65.6,44.3,67.8,45.1,67.8,44z M108,67c-1.5,0.1-1.8,3.3-4.8,3.5
			c-2,0.1-3-2.3-3-2.3s5.7-2.5,5.7-7.9c-0.1-1.6-0.9-4-3.9-4c-1.3,0-2.8,0.8-3.6,1.7c0.3-1.5,0.6-3.3,0.7-5.9
			c0.1-1.7-1.1-1.8-1.6-1.8c-0.4,0-1.4,0.3-1.5,1.8c-0.5,5-0.5,5.8-1,9c-0.8,5.9-5.1,7.9-7.9,7.7C85.9,68.6,84,68,84,64.9
			c0-3.3,2.2-5.8,3.4-5.6c0.8,0.1,1.2,0.9,0.5,2.1c-0.6,1-1.2,2.3,0.3,2.9c1.8,0.6,3.2-1.9,3.2-4.3c0-1.8-1.2-3.9-4.1-4.1
			c-3.1-0.1-6.7,3.9-6.7,9.3c0,0.4,0,0.9,0.1,1.3c-0.2,1.2-1.3,2.5-2.4,2.5c-1.2,0-2.2-1.7-2-3.8c0.1-2.2,0.8-3.7,1.1-4.5
			c0.6-1.8-0.1-2.2-1-2.3c-0.7-0.1-1.7,0-2.3,1.8c-0.5,1.6-1.2,3.9-1.8,5.5c-0.4,1-0.8,2.2-1.4,3c-0.5,0.6-1.1,0.9-1.6,0.9
			c-1.9,0-0.3-3.7-0.3-6.2c0-0.7-0.6-2-2.5-1.7c2.1-3,3.2-5.6,3.1-8.2c-0.1-2.9-2.3-3.7-3.9-3.7c-4.3,0.1-6.6,4.8-7.4,15.8
			c-3.9,3.7-8.6,5.9-13.1,5.5c-6.4-0.5-9.7-6.8-9.3-14.2c0.6-10.5,8.9-23.2,16.8-22.4c2.8,0.3,4.7,2.7,4.4,8
			c-0.3,6.1-4.8,15.1-9.5,14.8c-2.2-0.1-2.8-2.3-2.7-4.3c0.4-4.2,2.5-5.4,2.7-7.1c0.1-1-1-1.5-1.7-1.2c-1.3,0.4-3.9,3.6-4.2,8.2
			c-0.4,5.6,3.3,7.3,5.5,7.5c6.5,0.4,12.8-8.7,13.4-18.2c0.3-6.2-2.3-10.1-7.4-10.7c-9.9-1.1-20.3,11.9-20.8,25.4
			C32,65.2,36,73.7,45.1,74.3c4.4,0.3,8.9-1.4,12.9-4.5c0,0.7,0,1.3,0,1.8c0,1.1,0.4,2.1,1.7,2.1c1.2,0,1.5-0.9,1.5-1.9
			c0-0.6,0-1.2,0-1.7c0.3-4.9,2.7-5.6,3.7-5.5c1.4,0.3,0.3,1.5,0.4,5.1c0.1,2.5,2.2,3.2,3.1,3.2c2.3,0,4.2-1.6,5.4-4.1l0,0
			c1,2.5,2.7,3.4,4,3.4c1.6,0,3.1-1.2,4-2.4c1.3,1.6,3.2,2.3,4.6,2.4c2.9,0.1,5.3-1.2,7.1-2.9c-0.2,1.4-0.5,3.2-0.5,3.5
			c0,0.8,0.4,1.4,1.2,1.5c1.3,0.1,2.3-0.7,2.7-5.1c0,0,1.9,4.3,6.1,4.3c4.2,0,6-4,6-5.2C109.2,67.7,109,66.9,108,67z M118.9,63.5
			c3.7-3.5,6.6-8.4,6.6-11.1c0-0.5-0.1-1-0.6-1C123.6,51.4,119.9,55.1,118.9,63.5z M121.7,69c-1.3-0.4-2.4-1.1-3-1.8
			c0,0-0.1,0.1-0.1,0.1c0,0.1,0,0.1,0,0.2c0,4.5,1.6,8.7,3.4,8.5C123.9,75.7,123,71.8,121.7,69z M140.5,64.3c3.3-3.6,4.9-9,4.6-11.2
			c-0.1-0.5-0.3-0.8-0.8-0.8C142.8,52.6,139.3,59.1,140.5,64.3z M164.1,55.8c0.8-1.3,1.2-2.5,1.3-3.4c0.1-0.5,0-1.4-0.8-1.4
			C163.3,51,163.3,53.1,164.1,55.8z M166,66.3c-0.9-1.3-1.7-2.7-2.5-4.1c-1.2,1.6-2.5,3.2-3.9,4.8C161.5,67,163.7,66.8,166,66.3z
			 M64.4,59.8c-0.8,1.1-1.7,2.3-2.9,3.6c0.1-0.5,0.1-1.1,0.2-1.6c0.9-7.1,2.3-9.4,4.1-9.1c0.6,0.1,0.8,0.7,0.8,1.2
			C66.8,55.4,66.1,57.3,64.4,59.8z M101.5,59.2c1.2,0,1.5,1.1,1.4,1.7c-0.2,2.6-4,4.7-4.9,4.8C98.5,60.4,100.2,59.2,101.5,59.2z"/>
		<g>
			<path fill="#231F20" d="M172,49.4c-1,0-1.8,0.8-1.8,1.8c0,1,0.8,1.8,1.8,1.8c1,0,1.8-0.8,1.8-1.8C173.8,50.2,173,49.4,172,49.4z
				 M172,52.6c-0.8,0-1.4-0.6-1.4-1.4c0-0.8,0.6-1.4,1.4-1.4c0.8,0,1.4,0.6,1.4,1.4C173.4,52,172.8,52.6,172,52.6z"/>
			<path fill="#231F20" d="M172.2,51.1c-0.1,0-0.2,0.1-0.3,0.1h-0.2v-0.5h0.1c0.1,0,0.2,0,0.3,0c0.1,0,0.2,0.1,0.2,0.2
				C172.3,51,172.3,51,172.2,51.1z M171.7,51.5h0.1l0.1,0c0.1,0,0.1,0,0.2,0c0.1,0,0.1,0.1,0.1,0.1c0,0,0,0.1,0,0.2
				c0,0.1,0,0.2,0,0.3h0.5l0-0.1c0,0,0,0,0-0.1c0,0,0,0,0-0.1v-0.2c0-0.2-0.1-0.3-0.2-0.4c-0.1,0-0.2-0.1-0.3-0.1
				c0.1,0,0.3-0.1,0.3-0.1c0.1-0.1,0.1-0.2,0.1-0.3c0-0.2-0.1-0.4-0.3-0.4c-0.1-0.1-0.2-0.1-0.4-0.1c0,0-0.2,0-0.4,0
				c-0.2,0-0.4,0-0.6,0v1.9h0.5V51.5z"/>
		</g>
		<line fill="none" stroke="#FFFFFF" stroke-width="2.868" x1="41.9" y1="76" x2="35.4" y2="76"/>
		<line fill="none" stroke="#FFFFFF" stroke-width="1.868" x1="176.7" y1="75.9" x2="180.9" y2="75.9"/>
	</g>
</g>
</svg>
