<?xml version="1.0" encoding="utf-8"?>
<!-- Generator: Adobe Illustrator 18.1.1, SVG Export Plug-In . SVG Version: 6.00 Build 0)  -->
<!DOCTYPE svg PUBLIC "-//W3C//DTD SVG 1.1//EN" "http://www.w3.org/Graphics/SVG/1.1/DTD/svg11.dtd">
<svg version="1.1" id="Layer_1" xmlns="http://www.w3.org/2000/svg" xmlns:xlink="http://www.w3.org/1999/xlink" x="0px" y="0px"
	 viewBox="-128 -436 2764 2460" enable-background="new -128 -436 2764 2460" xml:space="preserve">
<g>
	<g id="bottom_outer_blue_shape">
		<path fill="#231F20" d="M2577.7,873.6c0,0-327.5,0-363.9,0c0-31.3,0-182,0-206.5c45.7-14.4,81.2-19.5,105.8-63.5
			c4.2-8.5,8.5-16.9,11-26.2H207.9c21.2,34.7,46.5,56.7,71.1,77c0,16.9,0,190.4,0,218.4c-36.4,0-376.6,0-376.6,0
			s358.9,271.7,389.3,294.5c-21.2,27.9-166.7,219.2-166.7,219.2s385.1,0,406.2,0c8.5,11.8,37.2,53.3,37.2,53.3
			s208.2-50.8,248.8-60.1c7.6,162.5,88.9,253.9,88.9,253.9c148.1,192.1,367.3,165,368.2,165c178.6-16.1,278.4-134.6,278.4-132.9
			c0,0,110.9-107.5,115.1-286.1c41.5,10.2,246.3,61.8,246.3,61.8s28.8-41.5,37.2-53.3c20.3,0,406.2,0,406.2,0
			S2212,1196.9,2190.9,1169C2219.6,1145.3,2577.7,873.6,2577.7,873.6z"/>
	</g>
	<g id="top_outer_blue_shape">
		<path fill="#231F20" d="M1825.3,675.6H1700l-15.2-36.4c-11.8,2.5-24.5,3.4-36.4,4.2l-10.2,32.2h-342.8l-3.4-7.6
			c-24.5,9.3-50.8,13.5-77.9,13.5c-13.5,0-26.2-0.8-39.8-3.4l-117.6,87.2v-89.7h-40.6l-13.5-11c-2.5,0-5.9,0-8.5,0
			c-4.2,0-8.5,0-11.8,0c-16.9-0.8-33.9-3.4-50.8-8.5c-19.5,5.9-39.8,9.3-59.2,9.3c-16.1,0-32.2-1.7-48.2-5.9
			c-25.4,10.2-52.5,16.1-80.4,16.1c-15.2,0-29.6-1.7-44-5.1c-21.2,10.2-44.9,16.1-70.2,16.9h-5.1c-22,0-43.2-4.2-63.5-11.8
			c-10.2,3.4-20.3,6.8-30.5,9.3l-11,2.5h-15.2v16.9l-96.5-9.3c-217.5-20.3-309.8-214.1-303-385.9c4.2-103.3,38.1-207.4,95.6-293.7
			c-11-22-17.8-44.9-19.5-68.6c-3.4-46.5,11-92.3,41.5-127.8c11-12.7,23.7-23.7,37.2-33c17.8-45.7,50.8-81.2,94.8-101.6
			c24.5-11,49.9-16.9,76.2-16.9c7.6,0,15.2,0.8,22.9,1.7c35.5-28.8,77.9-44,122.7-44c13.5,0,27.1,1.7,40.6,4.2
			c37.2,8.5,70.2,26.2,97.3,53.3c11.8-1.7,24.5-2.5,37.2-2.5c67.7,0,128.6,30.5,167.6,82.1c59.2,80.4,59.2,212.4-52.5,308.1
			c6.8,15.2,11.8,31.3,13.5,48.2c31.3,3.4,60.9,15.2,86.3,34.7c9.3-1.7,19.5-2.5,29.6-2.5c29.6-45.7,78.7-75.3,132.9-77.9
			c2.5,0,5.1,0,8.5,0c46.5,0,91.4,18.6,122.7,51.6c14.4,15.2,26.2,33,33.9,53.3c2.5,0.8,4.2,2.5,5.9,3.4
			c49.9-82.9,124.4-129.5,207.4-129.5c44.9,0,87.2,14.4,121,41.5h0.8c13.5,0,26.2,1.7,38.9,4.2c22-13.5,46.5-22.9,71.1-27.1
			c11.8-2.5,24.5-3.4,36.4-3.4c47.4,0,89.7,16.1,123.6,44.9c37.2-43.2,90.6-68.6,148.1-68.6c29.6,0,58.4,5.9,84.6,18.6
			c5.1-0.8,11-0.8,16.1-0.8c94.8,0,171.8,77,171.8,171.8c0,22.9-4.2,44.9-13.5,66c17.8,18.6,30.5,40.6,38.1,65.2
			c6.8,22.9,9.3,45.7,6.8,68.6c15.2,27.1,22.9,57.6,22,88.9c-3.4,77-66,160-176,160h-248l-123.6,100.7V675.6z"/>
	</g>
	<g id="middle_gray_shape">
		<path fill="#C7C8CA" d="M2515,894.8c0,0-277.6,0-323.3,0c0-38.9,0-178.6,0-211.6c0-3.4,0-5.9,0-6.8v-33.9l32.2,9.3
			c32.2-14.4,57.6-24.5,76.2-57.6c5.9-10.2,9.3-21.2,11.8-32.2H203.6c27.9,38.1,60.1,60.9,95.6,79.6c0,22,0,209.9,0,253.1
			c-45.7,0-336,0-336,0s316.5,239.5,356.3,269.1c-26.2,34.7-154,202.3-154,202.3s347.8,0,374.9,0c9.3,13.5,35.5,49.9,35.5,49.9
			s245.4-56.7,262.4-60.1c-0.8-1.7-22.9,173.5,135.4,320.8c0,0,209.9,198.9,487.5,35.5c0,0,201.4-125.3,184.5-358.9
			c16.9,4.2,258.1,62.6,258.1,62.6s26.2-37.2,35.5-49.9c27.1,0,374.9,0,374.9,0s-127.8-167.6-154-202.3
			C2198.5,1134.3,2515,894.8,2515,894.8z"/>
	</g>
	<g id="top_middle_gray_shape">
		<path fill="#C7C8CA" d="M1848.9,651.9h-132.9l-13.5-32.2c-5.1-1.7-9.3-3.4-13.5-5.9c-15.2,3.4-29.6,5.1-44,5.1
			c-4.2,0-8.5,0-12.7-0.8l-10.2,33h-310.6l-6.8-14.4c-27.1,13.5-57.6,20.3-89.7,20.3c-15.2,0-30.5-1.7-44.9-5.1l-88.9,65.2v-66
			h-55.9l-14.4-11.8c-5.9,0-11,0.8-16.9,0.8c-3.4,0-7.6,0-11,0c-17.8-0.8-35.5-4.2-52.5-9.3c-19.5,6.8-38.9,10.2-59.2,10.2
			c-16.9,0-33.9-2.5-49.9-7.6c-24.5,11-51.6,16.9-78.7,16.9c-16.1,0-32.2-2.5-47.4-6.8c-20.3,11-43.2,17.8-67.7,18.6h-4.2
			c-22,0-43.2-4.2-62.6-13.5c-12.7,4.2-24.5,8.5-37.2,11.8l-7.6,1.7h-35.5v14.4l-71.1-6.8C207,651,121.5,469.1,128.3,308.3
			c4.2-104.1,39.8-208.2,99.9-292.8c-13.5-22-21.2-46.5-23.7-71.9c-3.4-40.6,9.3-79.6,35.5-110.9c11-13.5,24.5-23.7,38.9-32.2
			c14.4-43.2,44.9-77,85.5-95.6c21.2-9.3,43.2-14.4,66.9-14.4c10.2,0,20.3,0.8,30.5,2.5c33-27.9,72.8-44,116-44
			c11.8,0,23.7,1.7,35.5,4.2c37.2,7.6,69.4,27.9,93.1,55.9c15.2-3.4,30.5-5.1,45.7-5.1c60.1,0,114.3,26.2,149,72.8
			c55.9,74.5,51.6,200.6-63.5,287.8c13.5,22.9,21.2,46.5,21.2,71.9c0,1.7,0,3.4,0,5.1c1.7,0,2.5,0,4.2,0c36.4,0,71.1,13.5,98.2,37.2
			c11.8-2.5,23.7-3.4,36.4-3.4c2.5,0,5.1,0,8.5,0c1.7,0,3.4,0,5.1,0c25.4-49.1,74.5-76.2,121-77.9c2.5,0,5.1,0,7.6,0
			c39.8,0,78.7,16.1,104.9,44.9c14.4,15.2,25.4,33.9,32.2,54.2c11.8,5.9,22.9,12.7,33.9,20.3c45.7-88.9,117.6-139.6,198.9-139.6
			c42.3,0,82.9,15.2,112.6,42.3c3.4,0,5.9,0,9.3,0c14.4,0,28.8,2.5,43.2,6.8c22-15.2,46.5-24.5,71.1-29.6c11-1.7,21.2-3.4,32.2-3.4
			c50.8,0,95.6,21.2,126.1,57.6c31.3-49.1,84.6-80.4,145.6-80.4c28.8,0,55.9,6.8,80.4,19.5c6.8-0.8,13.5-1.7,20.3-1.7
			c82.1,0,148.1,66.9,148.1,148.1c0,26.2-6.8,49.9-18.6,71.1c20.3,16.9,36.4,39.8,44.9,66.9c6.8,22,8.5,44.9,4.2,66.9
			c16.1,24.5,23.7,53.3,22.9,82.9c-2.5,66-57.6,137.1-152.3,137.1h-259l-91.4,74.5V651.9z"/>
	</g>
	<g id="bottom_white_shape">
		<path fill="#FFFFFF" d="M2346.6,951.5c-78.7,0-210.7,0-210.7,0s0-192.1,0-233.6c-13.5-0.8-124.4-13.5-151.5-16.1v-88v-33H1931
			H356.8v41.5l0,0v328.4c0,0-141.3,0-223.4,0c82.9,62.6,266.6,201.4,266.6,201.4s-80.4,105.8-119.3,156.6c78.7,0,289.5,0,289.5,0
			s20.3,28.8,29.6,42.3c24.5-5.9,65.2-16.1,65.2-16.1c24.5-5.9,50.8-11.8,77.9-17.8l158.3-33c-56.7,204,88,337.7,88,337.7
			c125.3,127.8,275.9,104.1,275.9,104.1c237-15.2,305.5-228.5,305.5-228.5s40.6-99.9,9.3-210.7l155.7,30.5
			c27.1,5.9,54.2,11.8,78.7,17.8c0,0,42.3,11,65.2,16.1c9.3-13.5,29.6-42.3,29.6-42.3s210.7,0,289.5,0
			c-38.9-50.8-118.5-156.6-118.5-156.6S2263.7,1014.1,2346.6,951.5z"/>
	</g>
	<g id="original_logo_bottom_half_main">
		<g>
			<path fill="#939598" d="M1416.5,927L1416.5,927L1416.5,927z"/>
		</g>
		<path fill="#C7C8CA" d="M2135.9,1021.7h-59.2c0,0-2.5,0-6.8,0V785.6c0-2.5-2.5-5.1-5.1-5.9c0,0-144.7-12.7-154-13.5
			c0-9.3,0-156.6,0-156.6c0-1.7-0.8-2.5-1.7-4.2c-0.8-0.8-2.5-1.7-4.2-1.7h-389.3c-2.5,0-4.2,0.8-5.1,3.4l-10.2,20.3
			c0,0.8-0.8,1.7-0.8,2.5s0,1.7,0.8,3.4c0.8,1.7,2.5,2.5,5.1,2.5c0,0,363.1,0,374.1,0c0,10.2,0,127,0,137.1
			c-8.5,0-33.9-1.7-33.9-1.7c-1.7,0-3.4,0.8-4.2,1.7c-0.8,0.8-1.7,2.5-1.7,4.2v55c0,2.5,1.7,5.1,4.2,5.1l36.4,7.6
			c1.7,0,3.4,0,5.1-0.8c0.8-0.8,1.7-2.5,1.7-4.2c0,0-1.7-34.7-2.5-44.9c11.8,0.8,144.7,12.7,154,13.5c0,8.5,0,163.3,0,212.4
			c-13.5,0-29.6,0-44,0c-4.2-1.7-6.8-2.5-6.8-2.5c-95.6-29.6-237.8-64.3-330.1-80.4c0,0-26.2-4.2-33-5.9c0-8.5,0-116.8,0-127.8
			c9.3,0.8,42.3,5.1,42.3,5.1c1.7,0,3.4,0,4.2-1.7c0.8-0.8,1.7-2.5,1.7-4.2v-34.7c0-3.4-2.5-5.9-5.1-5.9l-37.2-0.8
			c-2.5,0-4.2,1.7-5.1,3.4c0,0-66,147.3-69.4,154.9c-7.6-0.8-114.3-10.2-120.2-10.2c-2.5-4.2-16.1-30.5-16.1-30.5
			c-0.8-1.7-2.5-3.4-5.1-3.4l0,0c-1.7,0-4.2,0.8-5.1,3.4c0,0-11.8,22-14.4,27.1c-6.8,0-118.5-4.2-124.4-4.2
			c-2.5-5.9-36.4-76.2-36.4-76.2c-0.8-2.5-3.4-3.4-5.1-3.4c-2.5,0-4.2,1.7-5.1,4.2c-27.9,86.3-132,92.3-193.8,95.6
			c-72.8,4.2-126.1-5.9-161.7-29.6c-1.7-0.8-2.5-0.8-4.2-0.8s-2.5,1.7-3.4,2.5c-17.8,33.9-51.6,45.7-70.2,49.1
			c-83.8,15.2-194.7,42.3-287.8,71.9c0,0-7.6,2.5-16.9,5.1c-11,0-22,0-33.9,0c0-33.9-0.8-132-0.8-138.8c7.6-1.7,45.7-10.2,45.7-10.2
			c2.5-0.8,4.2-2.5,4.2-5.1v-90.6c0-1.7-0.8-2.5-1.7-4.2c-0.8-0.8-2.5-1.7-4.2-1.7c0,0-34.7,0-44,0c0-10.2-0.8-127-0.8-136.3
			c11,0,308.9,0,308.9,0c36.4,0,68.6,15.2,87.2,41.5c0.8,1.7,2.5,2.5,4.2,2.5s3.4,0,4.2-1.7c35.5-31.3,91.4-47.4,165.9-47.4
			c47.4,0,88,6.8,120.2,19.5c1.7,0.8,3.4,0.8,5.1-0.8c1.7-0.8,2.5-2.5,2.5-4.2c0,0,0-4.2,0-8.5c11,0,305.5,0,305.5,0
			c2.5,0,4.2-0.8,5.1-3.4c0-0.8,0.8-1.7,0.8-2.5c0-0.8,0-2.5-0.8-3.4l-16.1-20.3c-0.8-1.7-2.5-2.5-4.2-2.5h-314.8
			c-1.7,0-2.5,0.8-4.2,1.7c-0.8,0.8-0.8,1.7-0.8,3.4c-28.8-6.8-60.9-11-96.5-11c-70.2,0-126.1,13.5-166.7,40.6
			c-24.5-22-58.4-35.5-94.8-35.5h-336c-1.7,0-2.5,0.8-4.2,1.7c-0.8,0.8-1.7,2.5-1.7,4.2l0.8,189.6c0,1.7,0.8,2.5,1.7,4.2
			c0.8,0.8,2.5,1.7,4.2,1.7c0,0,34.7,0,44,0c0,7.6,0,36.4,0,42.3c-7.6,1.7-46.5,10.2-46.5,10.2c-2.5,0.8-4.2,2.5-4.2,5.9
			c0,0,0.8,111.7,0.8,160.8c-41.5,0-78.7,0-78.7,0s127,96.5,155.7,117.6c-16.9,22.9-76.2,99.9-76.2,99.9s160.8,0,183.7,0
			c5.9,8.5,22.9,33,22.9,33l18.6-4.2c70.2-17.8,298.8-59.2,373.2-71.1c-90.6,120.2-59.2,231.1-59.2,231.1
			c30.5,194.7,227.7,231.1,227.7,231.1c210.7,31.3,295.4-133.7,295.4-133.7c99.9-179.4-19.5-322.5-19.5-322.5
			c75.3,11,293.7,47.4,364.8,65.2l18.6,4.2c0,0,16.9-24.5,22.9-33c22.9,0,183.7,0,183.7,0s-58.4-77-76.2-99.9
			C2008.1,1118.2,2135.9,1021.7,2135.9,1021.7z"/>
		<path fill="#231F20" d="M2054.6,1049.7c-44,0-114.3,0-114.3,0c-212.4-65.2-455.3-99.9-700.8-99.9s-488.3,34.7-700.8,99.9
			c0,0-70.2,0-114.3,0c37.2,27.9,112.6,84.6,112.6,84.6s-39.8,52.5-59.2,77c38.1,0,142.2,0,142.2,0s14.4,20.3,20.3,28.8
			c92.3-22.9,360.5-66.9,459.6-78.7c-158.3,104.1-115.1,268.3-115.1,268.3c47.4,208.2,248,209,248,209
			c232.7-5.9,260.7-213.3,260.7-213.3c28.8-191.3-115.9-263.2-115.9-264.9c99.9,11.8,367.3,56.7,459.6,80.4
			c5.9-9.3,20.3-28.8,20.3-28.8s104.1,0,142.2,0c-18.6-24.5-59.2-77-59.2-77S2017.4,1077.6,2054.6,1049.7z"/>
		<g>
			<g>
				
					<linearGradient id="SVGID_1_" gradientUnits="userSpaceOnUse" x1="188.6372" y1="1311.0938" x2="188.6372" y2="1270.3064" gradientTransform="matrix(5.2098 0 0 -5.2098 434.9639 7502.1709)">
					<stop  offset="0" style="stop-color:#808285"/>
					<stop  offset="0.1625" style="stop-color:#757678"/>
					<stop  offset="0.4584" style="stop-color:#575658"/>
					<stop  offset="0.8519" style="stop-color:#262224"/>
					<stop  offset="0.8764" style="stop-color:#231F20"/>
				</linearGradient>
				<path fill="url(#SVGID_1_)" d="M1646.7,671.4h-124.4v55c0,0,11.8,0,16.9,0c-4.2,11-14.4,33-20.3,46.5
					c-6.8-13.5-16.9-35.5-22-46.5c5.1,0,16.1,0,16.1,0v-55.9h-144.7v55.9c0,0,13.5,0,21.2,0c-5.9,11-16.9,33-22.9,44.9
					c-5.9-11.8-17.8-33.9-22.9-44.9c4.2,0,15.2,0,15.2,0l-0.8-55h-172.7l0.8,55c0,0,35.5,0,42.3,0c3.4,6.8,66.9,141.3,66.9,141.3
					l83.8,3.4c0,0,31.3-58.4,38.9-73.6c8.5,15.2,41.5,79.6,41.5,79.6l78.7,6.8c0,0,66.9-149,70.2-156.6c5.9,0,41.5,0,41.5,0
					L1646.7,671.4z"/>
			</g>
			<g>
				<path fill="none" stroke="#C7C8CA" stroke-width="0.9486" stroke-linecap="round" stroke-linejoin="round" d="M1646.7,671.4
					h-124.4v55c0,0,11.8,0,16.9,0c-4.2,11-14.4,33-20.3,46.5c-6.8-13.5-16.9-35.5-22-46.5c5.1,0,16.1,0,16.1,0v-55.9h-144.7v55.9
					c0,0,13.5,0,21.2,0c-5.9,11-16.9,33-22.9,44.9c-5.9-11.8-17.8-33.9-22.9-44.9c4.2,0,15.2,0,15.2,0l-0.8-55h-172.7l0.8,55
					c0,0,35.5,0,42.3,0c3.4,6.8,66.9,141.3,66.9,141.3l83.8,3.4c0,0,31.3-58.4,38.9-73.6c8.5,15.2,41.5,79.6,41.5,79.6l78.7,6.8
					c0,0,66.9-149,70.2-156.6c5.9,0,41.5,0,41.5,0L1646.7,671.4z"/>
			</g>
		</g>
		<g>
			<g>
				
					<linearGradient id="SVGID_2_" gradientUnits="userSpaceOnUse" x1="112.6104" y1="1312.2737" x2="112.6104" y2="1269.4363" gradientTransform="matrix(5.2098 0 0 -5.2098 434.9639 7502.1709)">
					<stop  offset="0" style="stop-color:#808285"/>
					<stop  offset="0.1625" style="stop-color:#757678"/>
					<stop  offset="0.4584" style="stop-color:#575658"/>
					<stop  offset="0.8519" style="stop-color:#262224"/>
					<stop  offset="0.8764" style="stop-color:#231F20"/>
				</linearGradient>
				<path fill="url(#SVGID_2_)" d="M1022.1,665.4c-114.3,0-176.9,39.8-176.9,112.6c0,31.3,9.3,55.9,27.1,73.6
					c28.8,28.8,80.4,40.6,156.6,35.5c107.5-5.9,169.3-26.2,169.3-109.2C1199,705.2,1136.3,665.4,1022.1,665.4z M1022.9,841.5
					c-35.5,0-62.6-24.5-62.6-63.5s27.1-68.6,62.6-68.6c35.5,0,62.6,29.6,62.6,68.6S1059.3,841.5,1022.9,841.5z"/>
			</g>
			<g>
				<path fill="none" stroke="#C7C8CA" stroke-width="0.9486" stroke-linecap="round" stroke-linejoin="round" d="M1022.1,665.4
					c-114.3,0-176.9,39.8-176.9,112.6c0,31.3,9.3,55.9,27.1,73.6c28.8,28.8,80.4,40.6,156.6,35.5c107.5-5.9,169.3-26.2,169.3-109.2
					C1199,705.2,1136.3,665.4,1022.1,665.4z M1022.9,841.5c-35.5,0-62.6-24.5-62.6-63.5s27.1-68.6,62.6-68.6
					c35.5,0,62.6,29.6,62.6,68.6S1059.3,841.5,1022.9,841.5z"/>
			</g>
		</g>
		<g>
			<g>
				
					<linearGradient id="SVGID_3_" gradientUnits="userSpaceOnUse" x1="43.7299" y1="1311.299" x2="43.7299" y2="1251.0138" gradientTransform="matrix(5.2098 0 0 -5.2098 434.9639 7502.1709)">
					<stop  offset="0" style="stop-color:#808285"/>
					<stop  offset="0.1625" style="stop-color:#757678"/>
					<stop  offset="0.4584" style="stop-color:#575658"/>
					<stop  offset="0.8519" style="stop-color:#262224"/>
					<stop  offset="0.8764" style="stop-color:#231F20"/>
				</linearGradient>
				<path fill="url(#SVGID_3_)" d="M804.6,787.3c11.8-8.5,25.4-26.2,25.4-55.9c0-48.2-43.2-60.9-69.4-60.9H486.3v64.3
					c0,0,40.6,0,49.9-0.8c0,11,0,156.6,0,165.9c-7.6,1.7-49.9,11-49.9,11v72.8l7.6-2.5c93.9-29.6,205.7-57.6,291.1-72.8
					c54.2-11,54.2-54.2,54.2-68.6C839.3,811,820.6,794.9,804.6,787.3z M637.8,724.7h53.3c18.6,0,27.9,5.1,27.9,22
					c0,17.8-19.5,22-26.2,22.9c-7.6,1.7-55,9.3-55,9.3L637.8,724.7z M702.1,861.8l-63.5,14.4v-45.7c33.9-7.6,49.1-10.2,61.8-13.5
					c11-2.5,27.1,0,27.1,18.6C727.5,857.6,702.1,861.8,702.1,861.8z"/>
			</g>
			<g>
				<path fill="none" stroke="#C7C8CA" stroke-width="0.9486" stroke-linecap="round" stroke-linejoin="round" d="M804.6,787.3
					c11.8-8.5,25.4-26.2,25.4-55.9c0-48.2-43.2-60.9-69.4-60.9H486.3v64.3c0,0,40.6,0,49.9-0.8c0,11,0,156.6,0,165.9
					c-7.6,1.7-49.9,11-49.9,11v72.8l7.6-2.5c93.9-29.6,205.7-57.6,291.1-72.8c54.2-11,54.2-54.2,54.2-68.6
					C839.3,811,820.6,794.9,804.6,787.3z M637.8,724.7h53.3c18.6,0,27.9,5.1,27.9,22c0,17.8-19.5,22-26.2,22.9
					c-7.6,1.7-55,9.3-55,9.3L637.8,724.7z M702.1,861.8l-63.5,14.4v-45.7c33.9-7.6,49.1-10.2,61.8-13.5c11-2.5,27.1,0,27.1,18.6
					C727.5,857.6,702.1,861.8,702.1,861.8z"/>
			</g>
		</g>
		
			<linearGradient id="SVGID_4_" gradientUnits="userSpaceOnUse" x1="268.1574" y1="1311.0471" x2="268.1574" y2="1250.4524" gradientTransform="matrix(5.2098 0 0 -5.2098 434.9639 7502.1709)">
			<stop  offset="0" style="stop-color:#808285"/>
			<stop  offset="0.1625" style="stop-color:#757678"/>
			<stop  offset="0.4584" style="stop-color:#575658"/>
			<stop  offset="0.8519" style="stop-color:#262224"/>
			<stop  offset="0.8764" style="stop-color:#231F20"/>
		</linearGradient>
		<path fill="url(#SVGID_4_)" stroke="#C7C8CA" stroke-width="0.9485" stroke-linecap="round" stroke-linejoin="round" d="
			M1841.3,672.2h-182.8v56.7c0,0,39.8,0.8,49.1,1.7c0,10.2,0,109.2,0,121c-10.2-0.8-49.1-5.9-49.1-5.9v57.6l5.1,0.8
			c93.9,16.1,237.8,50.8,334.3,81.2l7.6,2.5V843.2l-83.8-7.6c0,0,2.5,45.7,2.5,57.6c-17.8-3.4-66.9-15.2-117.6-25.4
			c0-9.3,0-121,0-132c8.5,0,39.8,1.7,39.8,1.7v-64.3h-5.1V672.2z"/>
		<g>
			<path fill="#939598" d="M1459.6,603.7L1459.6,603.7L1459.6,603.7z"/>
		</g>
		<g>
			<circle fill="#FFFFFF" stroke="#FFFFFF" stroke-width="0.8318" cx="1240.4" cy="1380.6" r="216.7"/>
			<g>
				<g>
					<path fill="#939598" d="M1240.4,1582c110.9,0,200.6-89.7,200.6-200.6c0-110.9-89.7-200.6-200.6-200.6
						c-110.9,0-200.6,89.7-200.6,200.6S1130.4,1582,1240.4,1582z"/>
					<path d="M1240.4,1381.4"/>
				</g>
				<path d="M1080.5,1397.5"/>
				<path fill="#FFFFFF" d="M1240.4,1537.2c5.9,0,12.7,0,22.9-6.8s17.8-5.9,30.5-3.4c12.7,2.5,22-5.9,24.5-10.2
					c3.4-4.2,5.1-10.2,8.5-13.5c3.4-3.4,9.3-7.6,18.6-8.5c8.5-0.8,11-1.7,16.1-5.9c3.4-2.5,10.2-13.5,5.1-18.6
					c-5.9-6.8-14.4,0-20.3,5.1c-5.1,5.1-5.9,12.7-5.1,16.9c-5.9-5.9-8.5-13.5-0.8-22.9c7.6-10.2,20.3-7.6,25.4-3.4
					c0.8-8.5,6.8-16.9,11.8-22.9c-5.1,0.8-7.6-0.8-10.2-2.5c-1.7-1.7-8.5-8.5-4.2-20.3c4.2-11.8,15.2-12.7,18.6-11.8
					c3.4,0.8,5.9,2.5,8.5,6.8l1.7-5.1c-1.7-3.4-2.5-8.5-2.5-13.5c0-11,5.1-20.3,11.8-20.3c2.5,0,5.1,1.7,6.8,4.2v-3.4
					c-2.5-3.4-4.2-8.5-5.1-16.1c0-7.6,3.4-15.2,8.5-16.9v-6.8c9.3,10.2,12.7,0.8,11-11c-1.7-11.8-7.6-16.9-12.7-20.3
					c0.8-1.7,0.8-5.9,0.8-8.5c1.7,0.8,1.7,0,5.1,1.7c-2.5-16.9-14.4-28.8-22-36.4c-11-21.2-23.7-28.8-26.2-25.4
					c-2.5,2.5,5.9,14.4,11.8,22c-24.5-22-14.4-26.2-10.2-25.4c-11.8-14.4-24.5-19.5-26.2-15.2c-1.7,3.4,7.6,8.5,11.8,11
					c-20.3-7.6-16.9-12.7-15.2-15.2c-2.5-4.2-12.7-10.2-16.9-10.2c2.5,1.7,5.1,4.2,6.8,6.8c1.7,2.5,0.8,3.4-1.7,3.4
					c0-5.1-10.2-10.2-14.4-11.8c-3.4-1.7-16.9-5.9-17.8-2.5c-1.7,3.4,7.6,8.5,11.8,11c3.4,2.5,9.3,3.4,15.2,5.1
					c-23.7,0-30.5-13.5-28.8-17.8c1.7-4.2,11.8-1.7,16.9,0c-1.7-1.7-5.9-5.9-12.7-7.6c-13.5-3.4-29.6-8.5-55-8.5s-43.2,5.1-55.9,8.5
					c-5.9,1.7-10.2,5.1-12.7,7.6c5.1-1.7,15.2-4.2,16.9,0c1.7,4.2-5.9,17.8-28.8,17.8c5.9-1.7,11-3.4,15.2-5.1
					c3.4-1.7,12.7-7.6,11.8-11c-1.7-3.4-14.4,0.8-17.8,2.5c-3.4,1.7-14.4,7.6-14.4,11.8c-2.5,0-4.2-1.7-1.7-3.4
					c1.7-2.5,4.2-5.1,6.8-6.8c-4.2,0-14.4,5.9-16.9,10.2c1.7,2.5,5.1,7.6-15.2,15.2c5.1-2.5,14.4-7.6,11.8-11
					c-1.7-3.4-14.4,1.7-26.2,15.2c4.2-0.8,13.5,3.4-10.2,25.4c5.9-7.6,14.4-18.6,11.8-22c-2.5-2.5-15.2,4.2-26.2,25.4
					c-7.6,7.6-18.6,19.5-22,36.4c3.4-1.7,2.5-0.8,5.1-1.7c0,2.5,0,6.8,0.8,8.5c-5.1,3.4-11,8.5-12.7,20.3c-1.7,11.8,1.7,21.2,11,11
					v6.8c5.1,0.8,8.5,9.3,8.5,16.9s-2.5,13.5-5.1,16.1v3.4c1.7-2.5,4.2-4.2,6.8-4.2c6.8,0,11.8,9.3,11.8,20.3
					c0,5.1-0.8,10.2-2.5,13.5l1.7,5.1c3.4-4.2,5.1-5.9,8.5-6.8c3.4-0.8,14.4,0,18.6,11.8c4.2,11.8-2.5,18.6-5.1,20.3
					c-1.7,1.7-5.1,3.4-10.2,2.5c5.1,5.1,11,13.5,11.8,22.9c5.1-4.2,16.9-6.8,25.4,3.4c7.6,10.2,5.1,17.8-0.8,22.9
					c0.8-4.2,0-11.8-5.1-16.9s-14.4-11.8-20.3-5.1c-5.1,5.1,1.7,16.1,5.1,18.6c5.1,4.2,7.6,5.1,16.1,5.9c8.5,0.8,14.4,5.1,17.8,8.5
					c3.4,3.4,5.9,9.3,8.5,13.5c3.4,4.2,12.7,12.7,24.5,10.2c12.7-2.5,20.3-3.4,30.5,3.4C1227.7,1538,1234.5,1537.2,1240.4,1537.2z"
					/>
				<path fill="#939598" d="M1391.1,1356.1c-5.1-5.1-15.2-6.8-20.3,2.5s-2.5,21.2,6.8,27.1c-4.2-5.9-8.5-16.9-4.2-24.5
					C1376.7,1354.4,1381.8,1352.7,1391.1,1356.1z"/>
				<path fill="#939598" d="M1376.7,1322.2c3.4-7.6,1.7-13.5,0-17.8c-2.5-4.2-8.5-11.8-17.8-7.6c5.9,0.8,11.8,4.2,15.2,9.3
					C1376.7,1311.2,1377.5,1318,1376.7,1322.2z"/>
				<path fill="#939598" d="M1402.9,1340.8c1.7-6.8,0.8-12.7-0.8-16.1c-1.7-3.4-7.6-14.4-16.9-11c-10.2,3.4-3.4,33,5.1,33
					c-5.9-5.1-13.5-27.1-4.2-30.5C1393.6,1312.9,1403.8,1331.5,1402.9,1340.8z"/>
				<path fill="#939598" d="M1405.5,1294.3c-0.8-6.8-7.6-19.5-18.6-16.1c-4.2,1.7-3.4,14.4,0.8,20.3c-1.7-5.1-2.5-16.1,0-16.9
					c2.5-0.8,10.2-0.8,15.2,11.8L1405.5,1294.3z"/>
				<path fill="#939598" d="M1340.3,1268.9c-0.8-6.8,0.8-5.9,2.5-6.8c0.8-0.8,12.7-5.1,23.7,6.8c10.2,11.8,6.8,23.7-2.5,22
					c4.2-2.5,10.2-8.5,0-19.5C1353.8,1260.4,1342,1263,1340.3,1268.9z"/>
				<path fill="#939598" d="M1361.5,1252c0.8-5.9-5.1-11.8-7.6-14.4c-2.5-2.5-17.8-12.7-24.5-5.9c-6.8,6.8,6.8,16.9,9.3,19.5
					l0.8-0.8c-4.2-3.4-11.8-11-8.5-16.9c2.5-3.4,15.2,0.8,19.5,4.2C1353,1239.3,1359.8,1245.2,1361.5,1252z"/>
				<path fill="#939598" d="M1323.4,1240.1c2.5-2.5,0.8-2.5,0-4.2c-0.8-1.7-8.5-10.2-21.2-11.8c-12.7-1.7-16.1,6.8-12.7,14.4
					c0.8-6.8,0.8-11.8,11-11C1310.7,1227.4,1319.1,1233.3,1323.4,1240.1z"/>
				<path fill="#939598" d="M1297.1,1218.1c-1.7-5.1-9.3-11-16.1-11.8c-6.8-0.8-16.1-0.8-16.9,3.4c-0.8,5.1,1.7,8.5,10.2,11.8
					c-5.9-0.8-12.7-4.2-12.7-11.8c0-5.9,10.2-6.8,14.4-6.8C1280.2,1202.9,1298,1205.4,1297.1,1218.1z"/>
				<path fill="#939598" d="M1325.9,1484.7c4.2-5.1,4.2-13.5,2.5-16.1c-1.7-2.5-7.6-7.6-15.2-5.9c-7.6,1.7-18.6,8.5-16.9,22
					c3.4-6.8,10.2-16.1,18.6-16.1C1323.4,1468.6,1331.8,1471.2,1325.9,1484.7z"/>
				<path fill="#939598" d="M1320,1510.9c-2.5-7.6-7.6-13.5-19.5-11.8c-11,0.8-19.5,15.2-11.8,25.4
					C1291.2,1516.9,1300.5,1505,1320,1510.9z"/>
				<path fill="#939598" d="M1286.1,1489.8c-2.5-6.8-6.8-12.7-19.5-11c-12.7,1.7-16.1,11-14.4,18.6
					C1256.5,1489.8,1267.5,1478.8,1286.1,1489.8z"/>
				<g>
					<path fill="#FFFFFF" d="M1255.7,1570.2c0-2.5-6.8-4.2-15.2-4.2s-15.2,1.7-15.2,4.2s6.8,4.2,15.2,4.2
						S1255.7,1572.7,1255.7,1570.2z"/>
					<path fill="#FFFFFF" d="M1240.4,1570.2"/>
				</g>
				<g>
					
						<ellipse transform="matrix(0.8658 -0.5003 0.5003 0.8658 -585.541 744.9302)" fill="#FFFFFF" cx="1096.3" cy="1464.3" rx="5.9" ry="14.4"/>
					<path fill="#FFFFFF" d="M1095.7,1464.4"/>
				</g>
				<g>
					
						<ellipse transform="matrix(0.6424 -0.7664 0.7664 0.6424 -752.6716 1417.1508)" fill="#FFFFFF" cx="1142.2" cy="1515.1" rx="5.9" ry="14.4"/>
					<path fill="#FFFFFF" d="M1142.2,1515.2"/>
				</g>
				<g>
					<path fill="#FFFFFF" d="M1050,1377.2c1.7,0,4.2-6.8,5.1-15.2c0.8-8.5,0-16.1-1.7-16.1c-1.7,0-4.2,6.8-4.2,15.2
						C1047.5,1370.4,1048.3,1377.2,1050,1377.2z"/>
					<path fill="#FFFFFF" d="M1051.7,1362"/>
				</g>
				<g>
					<path fill="#FFFFFF" d="M1065.2,1454.2c1.7-0.8,1.7-7.6-1.7-15.2c-2.5-7.6-6.8-13.5-9.3-12.7c-1.7,0.8-1.7,7.6,1.7,15.2
						S1063.5,1455.1,1065.2,1454.2z"/>
					<path fill="#FFFFFF" d="M1060.2,1440.7"/>
				</g>
				<g>
					<path fill="#FFFFFF" d="M1109.2,1520.2c1.7-1.7-1.7-7.6-7.6-13.5c-5.9-5.9-11.8-9.3-13.5-7.6c-1.7,1.7,1.7,7.6,7.6,13.5
						C1102.5,1518.6,1108.4,1521.9,1109.2,1520.2z"/>
					<path fill="#FFFFFF" d="M1099.1,1510.1"/>
				</g>
				<g>
					
						<ellipse transform="matrix(0.4224 -0.9064 0.9064 0.4224 -733.4393 1948.9686)" fill="#FFFFFF" cx="1162.5" cy="1550" rx="4.2" ry="15.2"/>
					<path fill="#FFFFFF" d="M1162.6,1549.9"/>
				</g>
				<g>
					
						<ellipse transform="matrix(0.9842 0.1772 -0.1772 0.9842 292.8217 -188.8054)" fill="#FFFFFF" cx="1203.5" cy="1545.1" rx="14.4" ry="4.2"/>
					<path fill="#FFFFFF" d="M1203.2,1544.8"/>
				</g>
				<g>
					
						<ellipse transform="matrix(0.866 0.5001 -0.5001 0.866 918.3562 -496.2039)" fill="#FFFFFF" cx="1384.9" cy="1465.2" rx="5.9" ry="14.4"/>
					<path fill="#FFFFFF" d="M1385.1,1464.4"/>
				</g>
				<g>
					<path fill="#FFFFFF" d="M1327.6,1524.5c-2.5-2.5,0.8-8.5,6.8-13.5c5.9-5.1,12.7-6.8,14.4-4.2c2.5,2.5-0.8,8.5-6.8,13.5
						C1336.1,1524.5,1330.1,1527,1327.6,1524.5z"/>
					<path fill="#FFFFFF" d="M1338.6,1515.2"/>
				</g>
				<g>
					<path fill="#FFFFFF" d="M1430.9,1377.2c-1.7,0-4.2-6.8-4.2-15.2c-0.8-8.5,0-16.1,1.7-16.1c1.7,0,4.2,6.8,5.1,15.2
						C1433.4,1370.4,1432.5,1377.2,1430.9,1377.2z"/>
					<path fill="#FFFFFF" d="M1429.2,1362"/>
				</g>
				<g>
					<path fill="#FFFFFF" d="M1415.6,1454.2c-1.7-0.8-1.7-7.6,1.7-15.2c2.5-7.6,6.8-13.5,9.3-12.7c1.7,0.8,1.7,7.6-1.7,15.2
						C1421.5,1449.2,1417.3,1455.1,1415.6,1454.2z"/>
					<path fill="#FFFFFF" d="M1420.7,1440.7"/>
				</g>
				<g>
					
						<ellipse transform="matrix(0.7073 0.7069 -0.7069 0.7073 1471.4595 -534.9288)" fill="#FFFFFF" cx="1381.7" cy="1509.5" rx="4.2" ry="15.2"/>
					<path fill="#FFFFFF" d="M1381.8,1510.1"/>
				</g>
				<g>
					<path fill="#FFFFFF" d="M1304.7,1555.8c-0.8-1.7,4.2-6.8,11.8-10.2c7.6-3.4,14.4-5.1,15.2-2.5c0.8,1.7-4.2,6.8-11.8,10.2
						C1312.4,1556.6,1305.6,1558.3,1304.7,1555.8z"/>
					<path fill="#FFFFFF" d="M1318.3,1549.9"/>
				</g>
				<g>
					<path fill="#FFFFFF" d="M1278.5,1549c-7.6,1.7-14.4,0.8-15.2-1.7c0-2.5,5.9-5.1,13.5-6.8c7.6-1.7,14.4-0.8,15.2,1.7
						C1292.1,1544.8,1286.1,1548.2,1278.5,1549z"/>
					<path fill="#FFFFFF" d="M1277.7,1544.8"/>
				</g>
				<g>
					<path fill="#FFFFFF" d="M1080.5,1414.5c5.1,0,10.2-7.6,10.2-16.9s-4.2-16.9-10.2-16.9c-5.1,0-10.2,7.6-10.2,16.9
						S1074.5,1414.5,1080.5,1414.5z"/>
					<path fill="#FFFFFF" d="M1080.5,1397.5"/>
				</g>
				<g>
					<path fill="#FFFFFF" d="M1070.3,1377.2c2.5,0,5.1-6.8,5.1-16.1c0-8.5-2.5-16.1-5.1-16.1s-5.1,6.8-5.1,16.1
						C1064.4,1370.4,1066.9,1377.2,1070.3,1377.2z"/>
					<path fill="#FFFFFF" d="M1070.3,1362"/>
				</g>
				<g>
					<path fill="#FFFFFF" d="M1107.5,1440.7c6.8-1.7,9.3-10.2,7.6-17.8c-2.5-8.5-9.3-13.5-15.2-11.8c-5.9,1.7-9.3,10.2-7.6,17.8
						C1094,1437.3,1100.8,1442.4,1107.5,1440.7z"/>
					<path fill="#FFFFFF" d="M1103.3,1426.3"/>
				</g>
				<g>
					<path fill="#FFFFFF" d="M1401.2,1414.5c-5.1,0-10.2-7.6-10.2-16.9s4.2-16.9,10.2-16.9c5.1,0,10.2,7.6,10.2,16.9
						S1407.2,1414.5,1401.2,1414.5z"/>
					<path fill="#FFFFFF" d="M1401.2,1397.5"/>
				</g>
				<g>
					<path fill="#FFFFFF" d="M1411.4,1377.2c-2.5,0-5.1-6.8-5.1-16.1c0-8.5,2.5-16.1,5.1-16.1s5.1,6.8,5.1,16.1
						S1414.8,1377.2,1411.4,1377.2z"/>
					<path fill="#FFFFFF" d="M1411.4,1362"/>
				</g>
				<g>
					<path fill="#FFFFFF" d="M1374.1,1440.7c-5.9-1.7-9.3-10.2-7.6-17.8c2.5-8.5,9.3-13.5,15.2-11.8c6.8,1.7,9.3,10.2,7.6,17.8
						C1387.7,1437.3,1380.9,1442.4,1374.1,1440.7z"/>
					<path fill="#FFFFFF" d="M1378.4,1426.3"/>
				</g>
				<path fill="#939598" d="M1089.8,1356.1c5.1-5.1,15.2-6.8,20.3,2.5c5.1,9.3,1.7,21.2-6.8,27.1c4.2-5.9,8.5-16.9,4.2-24.5
					C1104.2,1354.4,1099.1,1352.7,1089.8,1356.1z"/>
				<path fill="#939598" d="M1104.2,1322.2c-3.4-7.6-2.5-13.5,0-17.8c2.5-4.2,8.5-11.8,17.8-7.6c-5.9,0.8-11.8,4.2-15.2,9.3
					C1104.2,1311.2,1103.3,1318,1104.2,1322.2z"/>
				<path fill="#939598" d="M1077.9,1340.8c-1.7-6.8-0.8-12.7,0.8-16.1c1.7-3.4,7.6-14.4,16.9-11c10.2,3.4,3.4,33-5.1,33
					c5.9-5.1,13.5-27.1,5.1-30.5C1087.2,1312.9,1077.1,1331.5,1077.9,1340.8z"/>
				<path fill="#939598" d="M1075.4,1294.3c0.8-6.8,7.6-19.5,17.8-16.1c4.2,1.7,3.4,14.4-0.8,20.3c1.7-5.1,2.5-16.1,0-16.9
					c-2.5-0.8-10.2-0.8-15.2,11.8L1075.4,1294.3z"/>
				<path fill="#939598" d="M1140.6,1268.9c0.8-6.8-0.8-5.9-1.7-6.8c-0.8-0.8-12.7-5.1-23.7,6.8c-10.2,11.8-6.8,23.7,2.5,22
					c-4.2-2.5-10.2-8.5,0-19.5C1127,1260.4,1138.9,1263,1140.6,1268.9z"/>
				<path fill="#939598" d="M1119.4,1252c-0.8-5.9,5.1-11.8,7.6-14.4c2.5-2.5,17.8-12.7,24.5-5.9c6.8,6.8-6.8,16.9-9.3,19.5
					l-0.8-0.8c4.2-3.4,11.8-11,8.5-16.9c-2.5-3.4-15.2,0.8-19.5,4.2C1127.9,1239.3,1121.1,1245.2,1119.4,1252z"/>
				<path fill="#939598" d="M1157.5,1240.1c-2.5-2.5-0.8-2.5,0-4.2c0.8-1.7,8.5-10.2,21.2-11.8c12.7-1.7,16.1,6.8,12.7,14.4
					c-0.8-6.8-0.8-11.8-11-11C1170.2,1227.4,1161.7,1233.3,1157.5,1240.1z"/>
				<path fill="#939598" d="M1183.7,1218.1c1.7-5.1,9.3-11,16.1-11.8c6.8-0.8,16.9-0.8,16.9,3.4c0.8,5.1-1.7,8.5-10.2,11.8
					c5.9-0.8,12.7-4.2,12.7-11.8c0-5.9-10.2-6.8-14.4-6.8C1200.6,1202.9,1182.9,1205.4,1183.7,1218.1z"/>
				<path fill="#939598" d="M1226,1229.9c-5.1-1.7-5.1-5.1-5.1-5.9c0-1.7,5.9-9.3,17.8-9.3c12.7,0,19.5,7.6,12.7,13.5
					c5.1-1.7,5.1-3.4,5.1-5.9s-5.1-10.2-17.8-10.2C1224.3,1212.2,1208.3,1224,1226,1229.9z"/>
				<path fill="#939598" d="M1254.8,1253.6c-5.1-1.7-5.1-5.1-5.1-5.9c0-1.7,5.9-9.3,17.8-9.3c12.7,0,19.5,7.6,12.7,13.5
					c5.1-1.7,5.1-3.4,5.1-5.9c0-2.5-5.1-10.2-17.8-10.2C1254,1235.9,1237.9,1247.7,1254.8,1253.6z"/>
				<path fill="#939598" d="M1298.8,1263c-2.5-5.1,0-6.8,0.8-7.6c1.7-0.8,10.2-2.5,19.5,5.9c8.5,8.5,8.5,18.6,0,18.6
					c5.1,2.5,5.9,0.8,8.5-0.8c1.7-1.7,3.4-11-5.9-19.5C1310.7,1249.4,1291.2,1246.9,1298.8,1263z"/>
				<path fill="#939598" d="M1202.3,1257.9c-5.1-1.7-5.1-4.2-5.1-5.9c0-1.7,4.2-10.2,16.9-11c12.7-0.8,19.5,5.9,13.5,11.8
					c5.1-1.7,5.1-4.2,5.1-6.8c0-2.5-5.9-9.3-18.6-8.5C1199.8,1240.1,1184.6,1254.5,1202.3,1257.9z"/>
				<path fill="#939598" d="M1150.7,1318.8c-5.1,0-7.6-2.5-9.3-5.1c-1.7-1.7-6.8-14.4,0.8-20.3c7.6-6.8,20.3-0.8,22,9.3
					c1.7-4.2-0.8-7.6-3.4-10.2c-2.5-3.4-13.5-9.3-22-1.7C1130.4,1297.7,1133.8,1320.5,1150.7,1318.8z"/>
				<path fill="#939598" d="M1171,1285c-5.1-1.7-6.8-5.1-7.6-7.6c-0.8-2.5-0.8-15.2,8.5-18.6s19.5,5.9,17.8,16.1
					c3.4-3.4,1.7-6.8,0-11c-1.7-4.2-9.3-13.5-19.5-9.3C1160,1257.9,1154.9,1280.7,1171,1285z"/>
				<path fill="#939598" d="M1140.6,1355.2c-5.1,3.4-9.3,2.5-11.8,0.8c-2.5-0.8-14.4-10.2-10.2-22c4.2-11.8,19.5-14.4,27.1-5.1
					c-0.8-5.9-5.1-6.8-9.3-8.5c-4.2-1.7-18.6-0.8-22.9,11.8C1109.2,1345.9,1124.5,1367.9,1140.6,1355.2z"/>
				<g>
					<ellipse fill="#939598" cx="1239.6" cy="1196.1" rx="20.3" ry="7.6"/>
					<path d="M1239.6,1196.1"/>
				</g>
				<path fill="#939598" d="M1122.8,1439.8c1.7-7.6,5.1-10.2,13.5-8.5c8.5,1.7,16.1,15.2,11.8,24.5c3.4-2.5,5.9-10.2-0.8-22
					C1140.6,1423.8,1119.4,1422.9,1122.8,1439.8z"/>
				<path fill="#939598" d="M1122.8,1400.9c1.7-7.6,5.1-10.2,13.5-8.5c8.5,1.7,16.1,15.2,11.8,24.5c3.4-2.5,5.9-10.2-0.8-22
					C1140.6,1384.8,1119.4,1384,1122.8,1400.9z"/>
				<path fill="#939598" d="M1358.1,1439.8c-1.7-7.6-4.2-10.2-13.5-8.5c-8.5,1.7-16.1,15.2-11.8,24.5c-3.4-2.5-5.9-10.2,0.8-22
					C1340.3,1423.8,1361.5,1422.9,1358.1,1439.8z"/>
				<path fill="#939598" d="M1319.1,1445.8c-1.7-7.6-4.2-10.2-13.5-8.5c-8.5,1.7-16.1,15.2-11.8,24.5c-3.4-2.5-5.9-10.2,0.8-22
					C1301.4,1429.7,1321.7,1428.8,1319.1,1445.8z"/>
				<path fill="#939598" d="M1221,1524.5c4.2-2.5,6.8-5.9,16.9-5.1c10.2,0.8,14.4,4.2,13.5,7.6c5.9-1.7,5.1-18.6-12.7-19.5
					C1221.8,1507.6,1219.3,1520.2,1221,1524.5z"/>
				<path fill="#939598" d="M1154.1,1484.7c-4.2-5.1-4.2-13.5-2.5-16.1c1.7-2.5,7.6-7.6,15.2-5.9c7.6,1.7,18.6,8.5,16.9,22
					c-3.4-6.8-10.2-16.1-18.6-16.1C1157.5,1468.6,1149,1471.2,1154.1,1484.7z"/>
				<path fill="#939598" d="M1160.9,1506.7c2.5-7.6,7.6-13.5,19.5-11.8c11,0.8,19.5,15.2,11.8,25.4
					C1189.6,1512.6,1180.3,1500.8,1160.9,1506.7z"/>
				<path fill="#939598" d="M1194.7,1486.4c2.5-6.8,6.8-12.7,19.5-11c12.7,1.7,16.1,11,14.4,18.6
					C1224.3,1485.5,1213.3,1475.4,1194.7,1486.4z"/>
				<path fill="#939598" d="M1282.7,1463.5c-2.5-6.8-6.8-12.7-19.5-11c-12.7,1.7-16.1,11-14.4,18.6
					C1252.3,1462.7,1263.3,1451.7,1282.7,1463.5z"/>
				<path fill="#939598" d="M1162.6,1447.5c-1.7-5.9,0.8-13.5,3.4-16.1c2.5-1.7,10.2-4.2,16.1,0.8c5.9,4.2,13.5,14.4,7.6,27.1
					c-0.8-7.6-3.4-18.6-11-22C1171,1433.1,1162.6,1432.2,1162.6,1447.5z"/>
				<path fill="#939598" d="M1201.5,1461c2.5-6.8,6.8-12.7,19.5-11c12.7,1.7,16.1,11,14.4,18.6C1232,1460.2,1220.1,1450,1201.5,1461
					z"/>
				<g>
					<path fill="#FFFFFF" d="M1240.4,1202.9c10.2,0,17.8-2.5,17.8-5.9s-7.6-5.9-17.8-5.9c-10.2,0-17.8,2.5-17.8,5.9
						S1230.3,1202.9,1240.4,1202.9z"/>
					<path fill="#FFFFFF" d="M1240.4,1196.9"/>
				</g>
			</g>
		</g>
		<g>
			<g>
				<path fill="#FFFFFF" stroke="#939598" stroke-width="0.8318" d="M658.1,1193.6c-9.3-4.2-18.6-9.3-27.9-13.5
					c-8.5-27.9-16.1-55.9-24.5-84.6c5.9-8.5,11.8-17.8,17.8-26.2c13.5-3.4,27.1-7.6,41.5-11c9.3,4.2,19.5,9.3,28.8,14.4
					c1.7,5.9,2.5,11.8,4.2,17.8c-9.3,2.5-19.5,5.1-28.8,7.6c-0.8-4.2-2.5-8.5-3.4-12.7c-9.3,2.5-19.5,5.1-28.8,7.6
					c6.8,24.5,13.5,49.9,20.3,74.5c9.3-2.5,18.6-5.1,27.9-7.6c-0.8-4.2-2.5-8.5-3.4-12.7c9.3-2.5,18.6-5.1,27.9-6.8
					c1.7,5.9,2.5,11.8,4.2,17.8c-5.9,8.5-11.8,16.9-16.9,25.4C684.4,1186.8,671.7,1190.2,658.1,1193.6z"/>
				<path fill="#FFFFFF" stroke="#939598" stroke-width="0.8318" d="M754.6,1169c-1.7-8.5-4.2-16.9-5.9-25.4
					c5.1-0.8,9.3-2.5,14.4-3.4c-5.9-25.4-11-50.8-16.9-75.3c-5.1,0.8-10.2,2.5-14.4,3.4c-1.7-8.5-4.2-16.9-5.9-25.4
					c18.6-4.2,38.1-8.5,57.6-12.7c1.7,8.5,3.4,16.9,5.1,25.4c-4.2,0.8-8.5,1.7-12.7,2.5c1.7,8.5,3.4,16.9,5.1,25.4
					c9.3-1.7,19.5-4.2,28.8-5.9c-1.7-8.5-3.4-16.9-5.1-25.4c-4.2,0.8-8.5,1.7-12.7,2.5c-1.7-8.5-3.4-16.9-5.1-25.4
					c19.5-4.2,38.1-7.6,57.6-11c1.7,8.5,2.5,16.9,4.2,25.4c-5.1,0.8-10.2,1.7-14.4,2.5c4.2,25.4,9.3,50.8,13.5,76.2
					c5.1-0.8,9.3-1.7,14.4-2.5c1.7,8.5,2.5,16.9,4.2,25.4c-17.8,3.4-36.4,6.8-54.2,10.2c-1.7-8.5-3.4-16.9-5.1-25.4
					c4.2-0.8,8.5-1.7,11.8-2.5c-1.7-8.5-3.4-16.9-5.1-25.4c-9.3,1.7-19.5,3.4-28.8,5.9c1.7,8.5,3.4,16.9,5.1,25.4
					c4.2-0.8,8.5-1.7,11.8-2.5c1.7,8.5,3.4,16.9,5.1,25.4C791,1161.4,772.4,1164.8,754.6,1169z"/>
				<path fill="#FFFFFF" stroke="#939598" stroke-width="0.8318" d="M902.7,1141.1c-1.7-8.5-2.5-16.9-4.2-25.4
					c5.1-0.8,9.3-1.7,14.4-2.5c4.2-35.5,9.3-71.1,14.4-106.6c10.2-1.7,20.3-2.5,29.6-4.2c14.4,33,27.9,66,41.5,99
					c5.1-0.8,9.3-0.8,14.4-1.7c0.8,8.5,1.7,16.9,2.5,25.4c-18.6,1.7-36.4,4.2-55,5.9c-0.8-8.5-2.5-16.9-3.4-25.4
					c4.2-0.8,8.5-0.8,12.7-1.7c-1.7-4.2-3.4-8.5-5.1-12.7c-7.6,0.8-14.4,1.7-22,2.5c-0.8,4.2-0.8,8.5-1.7,13.5
					c4.2-0.8,8.5-0.8,11.8-1.7c0.8,8.5,2.5,16.9,3.4,25.4C939.1,1135.2,920.5,1137.7,902.7,1141.1z M949.3,1055.6
					c-0.8,4.2-1.7,8.5-1.7,13.5c2.5,0,5.1-0.8,7.6-0.8C952.7,1064.1,951,1059.8,949.3,1055.6z"/>
				<path fill="#FFFFFF" stroke="#939598" stroke-width="0.8318" d="M1051.7,1122.5c-0.8-8.5-1.7-16.9-2.5-25.4
					c5.1,0,9.3-0.8,14.4-0.8c-1.7-25.4-4.2-51.6-5.9-77c-5.1,0-10.2,0.8-15.2,0.8c-0.8-8.5-1.7-16.9-2.5-25.4
					c20.3-1.7,39.8-3.4,60.1-4.2c0.8,8.5,0.8,16.9,1.7,25.4c-5.1,0-10.2,0.8-15.2,0.8c1.7,25.4,3.4,51.6,5.1,77
					c9.3-0.8,19.5-0.8,28.8-1.7c0-4.2-0.8-8.5-0.8-12.7c9.3-0.8,19.5-0.8,28.8-1.7c0.8,12.7,0.8,25.4,1.7,38.9
					C1117.7,1117.4,1084.7,1119.9,1051.7,1122.5z"/>
				<path fill="#FFFFFF" stroke="#939598" stroke-width="0.8318" d="M1187.1,1115.7c0-8.5,0-16.9-0.8-25.4c5.1,0,9.3,0,14.4,0
					c-0.8-25.4-0.8-51.6-1.7-77c-5.1,0-10.2,0-15.2,0c0-8.5,0-16.9-0.8-25.4c20.3-0.8,40.6-0.8,60.1-0.8c0,8.5,0,16.9,0,25.4
					c-5.1,0-10.2,0-15.2,0c0,25.4,0,51.6,0,77c9.3,0,19.5,0,28.8,0c0-4.2,0-8.5,0-12.7c9.3,0,19.5,0,28.8,0.8
					c0,12.7-0.8,25.4-0.8,38.9C1254,1114.8,1220.1,1114.8,1187.1,1115.7z"/>
				<path fill="#FFFFFF" stroke="#939598" stroke-width="0.8318" d="M1322.5,1116.5c0-8.5,0.8-16.9,0.8-25.4c5.1,0,9.3,0,14.4,0.8
					c0.8-25.4,2.5-51.6,3.4-77c-5.1,0-10.2-0.8-15.2-0.8c0-8.5,0.8-16.9,0.8-25.4c35.5,1.7,70.2,3.4,105.8,6.8
					c-0.8,12.7-2.5,25.4-3.4,38.9c-10.2-0.8-19.5-1.7-29.6-2.5c0-4.2,0.8-8.5,0.8-12.7c-10.2-0.8-19.5-1.7-29.6-1.7
					c-0.8,8.5-0.8,16.9-1.7,25.4c10.2,0.8,19.5,0.8,29.6,1.7c-0.8,8.5-0.8,16.9-1.7,25.4c-9.3-0.8-19.5-1.7-28.8-1.7
					c-0.8,8.5-0.8,16.9-1.7,25.4c9.3,0.8,19.5,0.8,28.8,1.7c0-4.2,0.8-8.5,0.8-12.7c9.3,0.8,19.5,1.7,28.8,2.5
					c-0.8,12.7-2.5,25.4-3.4,38.9C1389.4,1119.9,1356.4,1117.4,1322.5,1116.5z"/>
				<path fill="#FFFFFF" stroke="#939598" stroke-width="0.8318" d="M1457.9,1125.8c0.8-8.5,1.7-16.9,2.5-25.4
					c5.1,0.8,9.3,0.8,14.4,1.7c2.5-25.4,5.9-51.6,8.5-77c-5.1-0.8-10.2-0.8-15.2-1.7c0.8-8.5,1.7-16.9,2.5-25.4
					c15.2,1.7,30.5,3.4,44.9,5.1c11.8,26.2,23.7,52.5,34.7,78.7c2.5-16.1,4.2-31.3,6.8-47.4c-5.1-0.8-10.2-1.7-14.4-1.7
					c0.8-8.5,2.5-16.9,3.4-25.4c20.3,2.5,39.8,5.9,60.1,9.3c-1.7,8.5-2.5,16.9-4.2,25.4c-5.1-0.8-10.2-1.7-14.4-2.5
					c-5.1,33.9-11,67.7-16.1,102.4c-9.3-1.7-18.6-2.5-27.9-4.2c-11-26.2-22-52.5-33.9-78.7c-1.7,16.1-4.2,31.3-5.9,47.4
					c5.1,0.8,9.3,0.8,14.4,1.7c-0.8,8.5-2.5,16.9-3.4,25.4C1496,1130.1,1477.4,1128.4,1457.9,1125.8z"/>
				<path fill="#FFFFFF" stroke="#939598" stroke-width="0.8318" d="M1644.1,1152.9c-5.9-8.5-12.7-16.1-18.6-24.5
					c5.1-28.8,10.2-57.6,15.2-86.3c9.3-5.1,18.6-11,27.9-16.1c13.5,2.5,27.9,5.1,41.5,8.5c6.8,8.5,12.7,16.9,19.5,25.4
					c-1.7,5.9-2.5,11.8-4.2,17.8c-9.3-2.5-19.5-4.2-28.8-5.9c0.8-4.2,1.7-8.5,2.5-12.7c-10.2-1.7-19.5-4.2-29.6-5.9
					c-5.1,25.4-10.2,50.8-14.4,76.2c9.3,1.7,18.6,3.4,28.8,5.9c1.7-8.5,3.4-16.9,5.1-25.4c-5.1-0.8-9.3-1.7-14.4-2.5
					c1.7-8.5,3.4-16.9,5.1-25.4c14.4,2.5,28.8,5.9,43.2,9.3c-4.2,18.6-8.5,37.2-12.7,55c-9.3,5.1-17.8,10.2-27.1,15.2
					C1670.4,1158,1656.8,1155.5,1644.1,1152.9z"/>
				<path fill="#FFFFFF" stroke="#939598" stroke-width="0.8318" d="M1740.6,1174.1c1.7-8.5,4.2-16.9,5.9-25.4
					c5.1,0.8,9.3,2.5,14.4,3.4c5.9-25.4,12.7-49.9,18.6-75.3c-5.1-0.8-10.2-2.5-14.4-3.4c1.7-8.5,4.2-16.9,5.9-25.4
					c34.7,8.5,68.6,16.9,103.3,27.1c-3.4,12.7-6.8,24.5-11,37.2c-9.3-2.5-19.5-5.1-28.8-8.5c0.8-4.2,2.5-8.5,3.4-12.7
					c-9.3-2.5-19.5-5.1-28.8-7.6c-2.5,8.5-4.2,16.9-6.8,25.4c9.3,2.5,19.5,5.1,28.8,7.6c-2.5,8.5-4.2,16.9-6.8,24.5
					c-9.3-2.5-18.6-5.1-28.8-7.6c-2.5,8.5-4.2,16.9-6.8,25.4c9.3,2.5,18.6,5.1,27.9,7.6c0.8-4.2,2.5-8.5,3.4-12.7
					c9.3,2.5,18.6,5.1,27.9,7.6c-3.4,12.7-6.8,24.5-11,37.2C1805.8,1190.2,1772.8,1181.7,1740.6,1174.1z"/>
			</g>
		</g>
		<path fill="#C7C8CA" stroke="#FFFFFF" stroke-width="0.6203" d="M987.4,778c0,22.9,15.2,34.7,36.4,34.7s36.4-11.8,36.4-34.7
			c0-22.9-15.2-39.8-36.4-39.8C1002.6,739.1,987.4,755.1,987.4,778z"/>
	</g>
	<g id="new_small_logo_x5F_bottom_outline_adjusted_1_">
		<path fill="#FFFFFF" d="M2254.3,453.8c11-18.6,13.5-40.6,6.8-61.8c-10.2-32.2-39.8-54.2-74.5-54.2c-15.2,0-30.5,4.2-44.9,12.7
			c-2.5,1.7-5.9,3.4-9.3,5.1c-1.7-2.5-3.4-5.9-5.1-8.5c5.9-10.2,10.2-20.3,14.4-30.5c1.7,0,4.2,0,5.9,0c45.7,0,82.9-37.2,82.9-82.9
			s-37.2-82.9-82.9-82.9c-11,0-22,2.5-32.2,6.8c-18.6-15.2-42.3-24.5-68.6-24.5c-63.5,0-111.7,53.3-111.7,123.6
			c0,11,0.8,22.9,3.4,33.9c-11-3.4-23.7-5.1-38.1-5.1h-1.7c-6.8,0-13.5,0.8-20.3,1.7c0.8-15.2,0-29.6-2.5-43.2
			c-10.2-53.3-49.1-87.2-100.7-87.2c-6.8,0-13.5,0.8-20.3,1.7c-26.2,5.1-52.5,20.3-73.6,42.3c-14.4-11.8-32.2-18.6-51.6-18.6
			c-11.8,0-22.9,2.5-33,6.8c-19.5-32.2-55-48.2-88.9-48.2c-69.4,0-128.6,58.4-160,147.3c-9.3-1.7-18.6-2.5-29.6-2.5h-1.7
			c-10.2,0-19.5,0.8-27.9,3.4c-16.9-23.7-41.5-38.9-71.1-44c0.8-22.9-6.8-44-22-59.2c-14.4-15.2-35.5-24.5-58.4-24.5
			c-1.7,0-2.5,0-4.2,0c-33,1.7-71.9,26.2-76.2,77c-0.8,5.1-0.8,11-1.7,15.2c-15.2-8.5-33.9-13.5-54.2-15.2c-1.7,0-3.4,0-5.1,0
			c-20.3,0-39.8,5.9-57.6,16.1C924.7,225.3,896,205,862.1,205c-20.3,0-38.9,7.6-53.3,19.5c-6.8-18.6-17.8-33.9-32.2-44.9
			c11-11.8,16.9-26.2,16.9-44c0-36.4-30.5-66.9-65.2-87.2c23.7-7.6,48.2-20.3,69.4-36.4c83.8-61.8,88.9-146.4,51.6-197.2
			c-22-29.6-57.6-46.5-96.5-46.5c-24.5,0-49.9,6.8-74.5,18.6c-0.8-3.4-2.5-5.9-3.4-9.3c-14.4-32.2-41.5-55-74.5-62.6
			c-7.6-1.7-14.4-2.5-22-2.5c-38.1,0-72.8,21.2-95.6,55.9c-15.2-8.5-32.2-13.5-50.8-13.5c-13.5,0-27.1,2.5-39.8,8.5
			c-27.9,12.7-48.2,38.9-54.2,70.2c-0.8,4.2-1.7,8.5-1.7,13.5c-17.8,4.2-33.9,13.5-45.7,27.9c-15.2,17.8-22,39.8-20.3,63.5
			c2.5,27.1,16.1,52.5,39.8,72.8c0.8,0.8,2.5,1.7,3.4,2.5C246,89.1,198.6,197.4,194.3,310.8c-5.1,132,61.8,279.3,222.6,294.5v-8.5
			H466l0,0h43.2c12.7-3.4,24.5-7.6,37.2-11.8H582c12.7,7.6,27.9,11.8,42.3,11.8h2.5c14.4-0.8,27.9-4.2,38.9-11h382.6h97.3v3.4
			c4.2-2.5,7.6-5.9,11-9.3c16.9,7.6,36.4,12.7,57.6,12.7c19.5,0,37.2-4.2,52.5-10.2v20.3h101.6v-16.9h179.4V596h217.5v-8.5h148.1
			v9.3c2.5-2.5,5.1-5.1,7.6-7.6v8.5h32.2v-3.4h243.7c55,0,86.3-37.2,87.2-74.5C2286.5,492.8,2274.7,469.1,2254.3,453.8z"/>
		<path fill="#FFFFFF" d="M1379.2,586.7c19.5,34.7,49.1,58.4,87.2,58.4c37.2,0,67.7-23.7,81.2-58.4H1379.2z"/>
		<path fill="#231F20" d="M562.5,87.4c-0.8,24.5-30.5,55-44.9,31.3c-7.6-17.8,11.8-49.9,30.5-50.8C562.5,68.8,562.5,81.5,562.5,87.4
			z M802-148.8c-22.9-30.5-71.9-32.2-121,4.2c-49.9,37.2-77.9,96.5-55,127c22.9,30.5,88,20.3,137.1-16.1
			C812.2-70.9,824-118.3,802-148.8z M587-225.8c-29.6-6.8-60.1,17.8-70.2,65.2c-10.2,47.4,4.2,97.3,33.9,104.1s63.5-33,73.6-80.4
			C634.4-185.1,616.7-219,587-225.8z M416.9-180.9c-22,10.2-30.5,40.6-13.5,76.2c16.1,35.5,49.9,60.9,71.9,50.8s25.4-52.5,8.5-88
			C467.7-177.5,439.8-191.9,416.9-180.9z M334.8-85.3C323-71.7,327.2-49.7,347.5-32c21.2,17.8,49.9,23.7,60.9,10.2
			c11.8-13.5,1.7-41.5-19.5-59.2C368.7-98.8,346.7-98.8,334.8-85.3z M862.1,266c-13.5,0-25.4,11-25.4,25.4c0,13.5,11,25.4,25.4,25.4
			c13.5,0,25.4-11,25.4-25.4S876.5,266,862.1,266z M1317.4,392.1c30.5,0,42.3-11.8,42.3-24.5c0-16.1-18.6-23.7-42.3-22.9
			c-24.5,0-41.5,9.3-41.5,23.7C1276,380.2,1287,392.1,1317.4,392.1z M1899.7,392.1c30.5,0,42.3-11.8,42.3-24.5
			c0-16.1-18.6-23.7-42.3-22.9c-23.7,0-41.5,9.3-41.5,23.7C1859.1,380.2,1869.3,392.1,1899.7,392.1z M1629.7,242.3
			c-13.5,0-23.7,11-23.7,23.7c0,13.5,11,23.7,23.7,23.7c13.5,0,23.7-11,23.7-23.7C1653.4,252.4,1643.3,242.3,1629.7,242.3z
			 M1851.5,444.5c-4.2,16.1-25.4,62.6-78.7,63.5h-1.7c-24.5,0-49.1-11.8-67.7-33.9c-25.4,16.1-49.9,23.7-66.9,21.2
			c-38.1-5.9-49.1-35.5-52.5-55c-22,25.4-50.8,38.1-78.7,40.6c10.2,19.5,15.2,42.3,15.2,64.3c0,33-19.5,67.7-54.2,67.7
			c-49.1,0-78.7-68.6-82.1-136.3c-8.5,3.4-22,5.9-28.8-7.6c-7.6-16.1,11.8-31.3,27.9-39.8c2.5-133.7,61.8-228.5,124.4-228.5
			c21.2,0,46.5,12.7,46.5,51.6c0,40.6-24.5,93.1-62.6,139.6c-5.1,5.9-17.8,18.6-31.3,31.3c55,38.9,88.9-3.4,102.4-28.8
			c3.4-6.8,5.9-13.5,8.5-19.5c7.6-22,5.9-16.9,12.7-38.9c10.2-31.3,27.9-30.5,35.5-28.8c27.9,4.2,11,34.7,4.2,61.8v0.8
			c-10.2,45.7-5.9,82.1,22.9,87.2c9.3,1.7,24.5-4.2,40.6-15.2c-37.2-97.3,19.5-212.4,79.6-223.4c19.5-3.4,45.7,3.4,52.5,38.9
			c6.8,36.4-6.8,88-35.5,137.1c-6.8,11-25.4,36.4-47.4,55l0,0c16.9,22,38.1,21.2,38.1,21.2c31.3,0,40.6-23.7,44.9-33.9
			c4.2-11,13.5-15.2,22.9-11.8C1852.3,425.9,1853.2,436.9,1851.5,444.5z M2192.6,535.1c-33.9-1.7-67.7-26.2-99-60.9
			c-54.2,12.7-110,15.2-149,14.4c-32.2,33-63.5,60.9-85.5,76.2c0,0-29.6,22-44,3.4c-8.5-12.7-4.2-26.2,19.5-41.5
			c14.4-9.3,33-23.7,52.5-42.3c-33-9.3-25.4-44,7.6-39.8c2.5,0,13.5,1.7,29.6,3.4c32.2-33.9,65.2-71.9,90.6-107.5
			c-11.8-31.3-18.6-60.1-18.6-83.8c0-30.5,16.9-64.3,52.5-64.3c33.9,0,51.6,28.8,51.6,57.6c0,25.4-15.2,59.2-38.9,95.6
			c13.5,28.8,30.5,58.4,49.9,82.9c21.2-6.8,41.5-16.1,60.9-27.1c26.2-15.2,49.1,14.4,21.2,33.9c-16.9,10.2-34.7,18.6-54.2,25.4
			c20.3,19.5,41.5,32.2,61.8,33.9C2236.6,497.9,2237.4,538.5,2192.6,535.1z M734.3,136.5c0-16.9-47.4-49.9-81.2-53.3
			c0,9.3,0,18.6,0,28.8c-1.7,23.7-5.1,47.4-10.2,71.1C703.8,140.7,734.3,152.5,734.3,136.5z M1280.2,448.8
			c-20.3,1.7-24.5,45.7-65.2,47.4c-27.9,1.7-40.6-31.3-40.6-31.3s77.9-33.9,77-107.5c-0.8-21.2-12.7-55-53.3-55
			c-17.8,0-37.2,11-49.1,22.9c4.2-19.5,7.6-45.7,9.3-80.4c0.8-22.9-15.2-24.5-22-24.5c-5.1,0-18.6,3.4-20.3,23.7
			c-6.8,68.6-7.6,78.7-13.5,121.9c-11,79.6-69.4,107.5-107.5,104.9c-16.1-0.8-41.5-9.3-41.5-51.6c0-44.9,29.6-78.7,45.7-77
			c11,1.7,16.9,12.7,6.8,28.8c-7.6,13.5-16.1,32.2,4.2,39.8c24.5,8.5,43.2-26.2,43.2-57.6c0-24.5-16.1-53.3-55.9-55
			c-41.5-1.7-91.4,52.5-91.4,126.1c0,5.9,0.8,11.8,0.8,16.9c-3.4,16.9-17.8,33.9-32.2,33.9c-16.1,0-29.6-22.9-27.9-51.6
			c1.7-29.6,11-49.9,15.2-61.8c8.5-24.5-1.7-29.6-13.5-31.3c-9.3-1.7-23.7,0.8-31.3,25.4c-6.8,22-16.1,52.5-23.7,75.3
			c-5.1,13.5-11,29.6-19.5,40.6c-7.6,7.6-15.2,12.7-22,12.7c-25.4,0-4.2-49.9-4.2-84.6c0-9.3-7.6-27.1-33.9-22.9
			c28.8-40.6,43.2-75.3,42.3-110.9c-1.7-38.9-30.5-49.9-52.5-49.9c-58.4,0.8-88.9,65.2-100.7,215c-52.5,49.9-116.8,79.6-178.6,74.5
			c-86.3-6.8-131.2-91.4-125.3-193c8.5-142.2,121-314.8,228.5-303.8c38.1,3.4,63.5,37.2,60.1,109.2
			c-5.1,83.8-65.2,204.8-128.6,201.4c-29.6-1.7-38.9-31.3-36.4-58.4c5.1-57.6,33.9-73.6,36.4-96.5c0.8-13.5-12.7-19.5-22.9-16.1
			c-17.8,5.9-53.3,49.1-57.6,111.7c-5.1,76.2,44.9,99.9,74.5,101.6c88.9,5.1,175.2-117.6,182.8-247.1c5.1-83.8-32.2-138-100.7-144.7
			C400.8-44.7,259.5,130.5,251.9,315c-4.2,110,49.1,225.1,173.5,233.6c59.2,3.4,121.9-19.5,176-60.9c0,9.3,0,17.8,0,23.7
			c0.8,15.2,5.9,28.8,22.9,27.9c16.1-0.8,20.3-12.7,20.3-26.2c0-8.5,0-16.1,0-23.7c3.4-66.9,37.2-77,50.8-74.5
			c18.6,4.2,4.2,21.2,5.9,69.4c1.7,34.7,29.6,44,42.3,44c30.5,0,57.6-22,72.8-55h0.8c13.5,33.9,36.4,45.7,55,45.7
			c21.2,0,42.3-16.1,55-33c17.8,22,43.2,31.3,62.6,32.2c38.9,1.7,71.9-16.1,96.5-39.8c-2.5,18.6-6.8,44-6.8,47.4
			c0,11,5.1,18.6,16.1,20.3c17.8,1.7,31.3-10.2,37.2-69.4c0,0,25.4,58.4,82.1,58.4c56.7,0,81.2-54.2,81.2-71.1
			C1295.4,458.9,1293.7,447.9,1280.2,448.8z M1426.6,402.2c50.8-47.4,89.7-115.1,89.7-150.7c0-6.8-1.7-12.7-8.5-12.7
			C1491.8,238,1440.2,288,1426.6,402.2z M1465.6,476.7c-17.8-5.1-32.2-14.4-40.6-24.5c-0.8,0.8-0.8,0.8-1.7,1.7c0,0.8,0,1.7-0.8,2.5
			c-0.8,60.9,22,118.5,46.5,115.1C1495.2,567.3,1482.5,513.9,1465.6,476.7z M1721.1,413.2c44-49.1,66.9-121.9,61.8-152.3
			c-0.8-5.9-3.4-11-10.2-10.2C1752.5,253.3,1704.2,342.1,1721.1,413.2z M2041.9,297.3c10.2-18.6,16.9-33.9,17.8-45.7
			c0.8-6.8,0-19.5-11-19.5C2030.1,232.1,2030.1,260,2041.9,297.3z M2067.3,440.3c-12.7-17.8-23.7-36.4-33-55.9
			c-16.1,22-34.7,44-53.3,65.2C2006.4,448.8,2036.8,446.2,2067.3,440.3z M687.8,350.6c-10.2,14.4-22.9,30.5-38.9,49.1
			c0.8-7.6,1.7-14.4,2.5-21.2c12.7-95.6,31.3-127.8,55.9-124.4c7.6,1.7,11,9.3,11,16.1C720.8,291.3,711.5,317.6,687.8,350.6z
			 M1190.5,343c16.1,0,20.3,15.2,19.5,23.7c-3.4,35.5-53.3,63.5-66.9,65.2C1150.7,359.1,1172.7,343.8,1190.5,343z"/>
		<g>
			<path fill="#231F20" d="M2148.6,210.1c-13.5,0-24.5,11-24.5,24.5c0,13.5,11,24.5,24.5,24.5c13.5,0,24.5-11,24.5-24.5
				C2173.1,221.1,2162.1,210.1,2148.6,210.1z M2148.6,254.1c-11,0-19.5-8.5-19.5-19.5c0-11,8.5-19.5,19.5-19.5
				c11,0,19.5,8.5,19.5,19.5C2168,245.6,2159.6,254.1,2148.6,254.1z"/>
			<path fill="#231F20" d="M2151.1,232.9c-0.8,0.8-2.5,0.8-4.2,0.8h-2.5v-7.6h1.7c1.7,0,3.4,0,4.2,0.8c1.7,0.8,2.5,1.7,2.5,2.5
				C2152.8,231.3,2151.9,232.1,2151.1,232.9z M2144.3,238.9h1.7h1.7c0.8,0,1.7,0,2.5,0c0.8,0,1.7,0.8,1.7,1.7c0,0.8,0,1.7,0,3.4
				c0,1.7,0,2.5,0.8,3.4h6.8v-0.8v-0.8v-0.8v-2.5c0-2.5-0.8-4.2-2.5-5.9c-0.8-0.8-2.5-0.8-4.2-1.7c1.7,0,3.4-0.8,5.1-1.7
				c1.7-0.8,1.7-2.5,1.7-4.2c0-2.5-0.8-5.1-3.4-5.9c-1.7-0.8-3.4-0.8-5.1-1.7c0,0-2.5,0-5.9,0c-3.4,0-5.9,0-7.6,0v25.4h6.8
				L2144.3,238.9L2144.3,238.9z"/>
		</g>
	</g>
	<g id="bottom_type_and_TM">
		<g>
			<path fill="#231F20" d="M1979.4,1433.2h-10.7v-6.8h29.1v6.8h-10.7v28.1h-7.8L1979.4,1433.2L1979.4,1433.2z"/>
			<path fill="#231F20" d="M2001.7,1426.4h10.7l7.8,24.3l0,0l7.8-24.3h10.7v34.9h-6.8v-25.2l0,0l-8.7,25.2h-5.8l-8.7-24.3l0,0v24.3
				h-6.8L2001.7,1426.4L2001.7,1426.4z"/>
		</g>
		<g>
			<g>
				<g>
					<path fill="#231F20" d="M747.1,1453.6c1,5.8,2.9,11.6,3.9,17.5c-6.8,2.9-9.7,10.7-7.8,21.3c1,5.8,2.9,9.7,4.9,12.6
						c1.9,2.9,4.9,3.9,6.8,2.9c1,0,1.9-1,2.9-1.9c1-1,1-2.9,1-5.8c0-1.9,0-7.8,0-16.5c0-7.8,0-13.6,1-17.5c1-3.9,1.9-6.8,4.9-9.7
						c1.9-2.9,4.9-3.9,6.8-3.9c2.9,0,5.8,0,8.7,2.9c2.9,1.9,5.8,5.8,7.8,9.7c1.9,3.9,3.9,9.7,4.9,15.5c1.9,9.7,1.9,17.5,0,23.3
						c-1.9,5.8-4.9,9.7-10.7,11.6c-1.9-5.8-2.9-10.7-4.9-16.5c2.9-1.9,4.9-3.9,5.8-5.8c1-2.9,1-5.8,0-10.7c-1-4.9-1.9-7.8-3.9-9.7
						c-1.9-1.9-2.9-2.9-4.9-2.9c-1.9,0-2.9,1.9-2.9,3.9c-1,2.9-1,7.8,0,16.5c0,8.7,0,15.5,0,19.4c-1,3.9-1.9,7.8-3.9,9.7
						c-1.9,2.9-4.9,4.9-7.8,5.8c-4.9,1-9.7,0-14.6-4.9c-4.9-4.9-8.7-13.6-11.6-26.2C728.7,1472,733.5,1458.4,747.1,1453.6z"/>
					<path fill="#231F20" d="M789.8,1598.2c1,5.8,1.9,10.7,2.9,16.5c-6.8,1-13.6-1-18.4-4.9c-4.9-3.9-9.7-10.7-12.6-18.4
						c-3.9-10.7-4.9-20.4-2.9-28.1c2.9-9.7,8.7-15.5,17.5-18.4c9.7-2.9,18.4-1.9,26.2,2.9c6.8,3.9,11.6,11.6,15.5,21.3
						c2.9,7.8,3.9,15.5,2.9,22.3c-1,4.9-2.9,9.7-6.8,13.6c-2.9-3.9-5.8-8.7-8.7-12.6c2.9-1.9,3.9-4.9,3.9-8.7c0-3.9,0-6.8-1.9-10.7
						c-1.9-5.8-4.9-8.7-9.7-11.6c-3.9-1.9-9.7-1.9-16.5,0c-6.8,2.9-11.6,6.8-12.6,10.7c-1.9,4.9-1,9.7,1,15.5
						c1.9,3.9,3.9,7.8,6.8,9.7C782,1598.2,785.9,1599.1,789.8,1598.2z"/>
					<path fill="#231F20" d="M788.8,1644.7c17.5-9.7,34-19.4,51.4-29.1c1.9,3.9,4.9,8.7,6.8,12.6c-6.8,3.9-13.6,7.8-20.4,12.6
						c4.9,8.7,10.7,17.5,15.5,25.2c6.8-4.9,12.6-8.7,19.4-13.6c2.9,3.9,5.8,7.8,7.8,11.6c-15.5,11.6-32,23.3-47.5,35.9
						c-2.9-3.9-5.8-8.7-8.7-13.6c6.8-4.9,14.6-9.7,21.3-14.6c-5.8-8.7-10.7-16.5-16.5-26.2c-7.8,4.9-14.6,8.7-22.3,13.6
						C793.7,1654.4,790.8,1649.6,788.8,1644.7z"/>
					<path fill="#231F20" d="M859.7,1699.1c5.8-4.9,10.7-6.8,16.5-7.8c5.8-1,10.7,0,15.5,2.9c4.9,1.9,9.7,5.8,14.6,10.7
						c6.8,6.8,10.7,14.6,11.6,22.3c1,7.8-1.9,15.5-8.7,23.3c-6.8,7.8-14.6,10.7-23.3,9.7c-7.8-1-16.5-4.9-23.3-13.6
						c-7.8-7.8-11.6-16.5-12.6-25.2C848,1712.7,851.9,1704.9,859.7,1699.1z M870.3,1710.7c-4.9,4.9-7.8,9.7-7.8,14.6
						c0,4.9,1.9,10.7,6.8,14.6c3.9,4.9,8.7,6.8,13.6,6.8c4.9,0,10.7-1.9,15.5-6.8c4.9-4.9,6.8-9.7,6.8-14.6c0-4.9-1.9-9.7-5.8-13.6
						c-3.9-3.9-8.7-6.8-13.6-6.8C880,1703.9,875.2,1705.9,870.3,1710.7z"/>
					<path fill="#231F20" d="M905.3,1787.4c12.6-15.5,25.2-30.1,37.8-45.6c3.9,2.9,6.8,5.8,10.7,8.7c-9.7,12.6-20.4,25.2-30.1,38.8
						c9.7,7.8,20.4,14.6,30.1,22.3c-1.9,2.9-3.9,5.8-5.8,8.7C933.4,1809.7,918.8,1799,905.3,1787.4z"/>
					<path fill="#231F20" d="M1026.6,1861.1c-4.9-1.9-9.7-4.9-14.6-6.8c0-4.9,0-9.7,0-14.6c-8.7-3.9-17.5-8.7-26.2-13.6
						c-3.9,2.9-7.8,5.8-12.6,8.7c-4.9-2.9-9.7-5.8-13.6-8.7c19.4-11.6,37.8-23.3,54.3-36.9c3.9,1.9,8.7,4.9,12.6,6.8
						C1025.6,1817.5,1025.6,1839.8,1026.6,1861.1z M1012,1829.1c0-7.8,1-15.5,1.9-24.3c-6.8,4.9-12.6,9.7-19.4,14.6
						C1000.4,1822.3,1006.2,1826.2,1012,1829.1z"/>
					<path fill="#231F20" d="M1042.1,1867.9c7.8-18.4,15.5-36.9,23.3-54.3c8.7,3.9,17.5,6.8,26.2,9.7c6.8,1.9,11.6,3.9,14.6,5.8
						c2.9,1.9,4.9,3.9,5.8,7.8c1,2.9,1,6.8,0,9.7c-1,4.9-3.9,7.8-7.8,9.7c-3.9,1.9-8.7,1.9-14.6,1c2.9,1.9,4.9,4.9,5.8,6.8
						c1,1.9,2.9,5.8,4.9,11.6c1.9,4.9,3.9,8.7,5.8,13.6c-5.8-1.9-11.6-2.9-17.5-4.9c-1.9-4.9-3.9-10.7-6.8-15.5
						c-1.9-5.8-3.9-8.7-4.9-10.7c-1-1.9-1.9-2.9-2.9-3.9c-1-1-3.9-1.9-6.8-2.9c-1,0-1.9-1-2.9-1c-2.9,7.8-5.8,15.5-8.7,23.3
						C1051.8,1871.8,1046.9,1869.9,1042.1,1867.9z M1069.2,1841.7c2.9,1,6.8,1.9,9.7,3.9c5.8,1.9,9.7,2.9,11.6,2.9
						c1.9,0,3.9,0,4.9-1c1-1,1.9-1.9,2.9-3.9c1-1.9,1-2.9,0-4.9c-1-1-1.9-2.9-2.9-3.9c-1-1-4.9-1.9-10.7-3.9c-2.9-1-6.8-1.9-9.7-3.9
						C1072.2,1832,1071.2,1836.9,1069.2,1841.7z"/>
					<path fill="#231F20" d="M1124.6,1873.7c4.9,1,9.7,1,14.6,1.9c0,7.8,4.9,12.6,13.6,13.6c4.9,1,7.8,1,10.7-1
						c2.9-1,4.9-2.9,4.9-4.9c0-1,0-2.9-1-3.9c-1-1-1.9-1.9-3.9-2.9c-1.9-1-5.8-2.9-12.6-4.9c-5.8-1.9-9.7-4.9-12.6-6.8
						c-2.9-1.9-3.9-4.9-4.9-6.8c-1-2.9-1-5.8-1-7.8c1-2.9,2.9-5.8,4.9-7.8c2.9-1.9,5.8-2.9,9.7-3.9c3.9-1,7.8,0,13.6,0
						c7.8,1,13.6,3.9,17.5,7.8c3.9,3.9,5.8,8.7,4.9,13.6c-4.9,0-9.7-1-13.6-1c0-2.9-1-5.8-2.9-6.8c-1.9-1.9-4.9-2.9-7.8-2.9
						c-3.9-1-6.8-1-8.7,0c-1.9,1-3.9,1.9-3.9,3.9s0,2.9,1.9,4.9c1.9,1,5.8,3.9,11.6,5.8c6.8,2.9,11.6,4.9,14.6,6.8
						c2.9,1.9,4.9,3.9,6.8,6.8c1,2.9,1.9,5.8,1,9.7c-1,4.9-3.9,8.7-8.7,11.6c-4.9,2.9-13.6,3.9-23.3,1.9
						C1132.3,1896.1,1123.6,1887.3,1124.6,1873.7z"/>
					<path fill="#231F20" d="M1203.2,1904.8c1.9-19.4,2.9-38.8,4.9-59.2c4.9,0,8.7,1,13.6,1c0,7.8-1,15.5-1,23.3
						c9.7,0,18.4,1,28.1,1c0-7.8,0-15.5,0-23.3c4.9,0,8.7,0,13.6,0c1,19.4,1,39.8,1.9,59.2c-4.9,0-9.7,0-15.5,0c0-8.7,0-17.5,0-26.2
						c-9.7,0-18.4,0-28.1-1c0,8.7-1,17.5-1,26.2C1212.9,1905.8,1208,1905.8,1203.2,1904.8z"/>
					<path fill="#231F20" d="M1287.6,1904.8c-1.9-19.4-2.9-38.8-4.9-59.2c4.9,0,8.7-1,13.6-1c1.9,19.4,3.9,38.8,6.8,58.2
						C1298.2,1904.8,1292.4,1904.8,1287.6,1904.8z"/>
					<path fill="#231F20" d="M1326.4,1900.9c-2.9-19.4-5.8-38.8-8.7-58.2c6.8-1,14.6-1.9,21.3-3.9c7.8-1.9,13.6-1.9,15.5-1.9
						c3.9,0,7.8,1,10.7,3.9c2.9,1.9,5.8,5.8,6.8,10.7c1,3.9,1,7.8-1,11.6c-1.9,2.9-3.9,5.8-6.8,7.8c-2.9,1.9-8.7,3.9-17.5,5.8
						c-2.9,1-5.8,1-9.7,1.9c1,7.8,2.9,14.6,3.9,22.3C1337.1,1899,1331.2,1899.9,1326.4,1900.9z M1332.2,1850.4
						c1,5.8,1.9,10.7,2.9,16.5c2.9,0,4.9-1,7.8-1c4.9-1,8.7-1.9,10.7-2.9c1.9-1,2.9-1.9,3.9-3.9c1-1.9,1-2.9,1-4.9s-1.9-3.9-2.9-4.9
						c-1.9-1-2.9-1.9-4.9-1.9s-5.8,0-11.6,1.9C1337.1,1849.5,1335.1,1849.5,1332.2,1850.4z"/>
					<path fill="#231F20" d="M1473.9,1834c4.9-1,9.7-1.9,14.6-2.9c1,6.8,0,12.6-2.9,17.5c-2.9,4.9-8.7,9.7-15.5,12.6
						c-8.7,3.9-17.5,4.9-25.2,1.9c-8.7-2.9-14.6-8.7-18.4-17.5c-3.9-9.7-3.9-17.5,0-25.2c2.9-6.8,8.7-11.6,17.5-15.5
						c6.8-2.9,13.6-3.9,19.4-2.9c4.9,1,8.7,2.9,12.6,6.8c-3.9,2.9-6.8,5.8-10.7,8.7c-1.9-2.9-4.9-3.9-7.8-4.9c-2.9,0-6.8,0-9.7,1.9
						c-4.9,1.9-7.8,4.9-9.7,8.7c-1.9,3.9-1,9.7,1.9,16.5c2.9,6.8,6.8,10.7,10.7,12.6c3.9,1.9,8.7,1,13.6-1c3.9-1.9,5.8-3.9,7.8-6.8
						C1474.8,1841.7,1474.8,1838.8,1473.9,1834z"/>
					<path fill="#231F20" d="M1516.6,1835.9c-9.7-17.5-20.4-34-30.1-51.4c3.9-1.9,7.8-4.9,11.6-6.8c3.9,6.8,8.7,13.6,12.6,19.4
						c7.8-4.9,15.5-9.7,23.3-15.5c-4.9-6.8-8.7-12.6-13.6-19.4c3.9-2.9,7.8-4.9,10.7-7.8c11.6,15.5,24.3,32,35.9,47.5
						c-3.9,2.9-7.8,5.8-12.6,8.7c-4.9-6.8-9.7-13.6-15.5-21.3c-7.8,5.8-15.5,10.7-24.3,15.5c4.9,7.8,9.7,14.6,13.6,22.3
						C1525.3,1831,1521.4,1834,1516.6,1835.9z"/>
					<path fill="#231F20" d="M1637.9,1738.9c-3.9,3.9-7.8,8.7-11.6,12.6c-4.9-1.9-9.7-2.9-14.6-4.9c-6.8,6.8-14.6,14.6-22.3,20.4
						c1.9,4.9,2.9,9.7,3.9,14.6c-3.9,3.9-8.7,6.8-12.6,10.7c-4.9-21.3-10.7-42.7-17.5-63.1c3.9-2.9,6.8-6.8,10.7-9.7
						C1595.2,1726.2,1616.5,1733,1637.9,1738.9z M1602,1742.7c-7.8-2.9-15.5-5.8-22.3-8.7c2.9,7.8,5.8,15.5,7.8,23.3
						C1592.3,1752.4,1597.1,1747.6,1602,1742.7z"/>
					<path fill="#231F20" d="M1649.5,1725.3c-15.5-12.6-30.1-25.2-45.6-38.8c6.8-7.8,12.6-15.5,18.4-23.3
						c4.9-5.8,7.8-10.7,10.7-12.6c2.9-1.9,5.8-3.9,8.7-3.9c2.9,0,6.8,0,9.7,2.9c3.9,2.9,5.8,5.8,6.8,10.7c0,4.9-1,9.7-3.9,15.5
						c2.9-1.9,5.8-2.9,8.7-3.9c2.9-1,6.8-1.9,12.6-1.9c4.9-1,9.7-1,14.6-1.9c-3.9,5.8-6.8,10.7-10.7,16.5c-5.8,1-11.6,1-17.5,1.9
						c-5.8,1-9.7,1-11.6,1.9c-1.9,0-2.9,1-4.9,1.9c-1,1-2.9,2.9-4.9,5.8c-1,1-1,1.9-1.9,2.9c6.8,4.9,12.6,10.7,19.4,15.5
						C1656.3,1716.5,1653.4,1721.4,1649.5,1725.3z M1633,1691.3c1.9-2.9,4.9-5.8,6.8-8.7c3.9-5.8,6.8-8.7,6.8-10.7
						c1-1.9,1-3.9,1-4.9c0-1.9-1-2.9-2.9-3.9c-1.9-1-2.9-1.9-4.9-1c-1.9,0-2.9,1-4.9,1.9c-1,1-3.9,3.9-7.8,9.7
						c-1.9,2.9-4.9,5.8-6.8,8.7C1625.3,1684.5,1629.1,1688.4,1633,1691.3z"/>
					<path fill="#231F20" d="M1700.9,1650.6c-17.5-9.7-34-20.4-51.4-30.1c1.9-3.9,4.9-8.7,6.8-12.6c17.5,9.7,34.9,19.4,52.4,28.1
						C1706.8,1640.9,1703.8,1645.7,1700.9,1650.6z"/>
					<path fill="#231F20" d="M1728.1,1594.3c-14.6-6.8-30.1-13.6-44.6-19.4c-2.9,6.8-5.8,14.6-8.7,21.3c-2.9-1.9-5.8-2.9-8.7-4.9
						c8.7-17.5,15.5-36.9,22.3-56.3c2.9,1,5.8,1.9,9.7,2.9c-1.9,7.8-4.9,14.6-7.8,22.3c15.5,5.8,30.1,12.6,45.6,18.4
						C1733,1583.6,1730,1589.4,1728.1,1594.3z"/>
					<path fill="#231F20" d="M1755.3,1508.9c-7.8-1.9-16.5-3.9-24.3-5.8c-13.6,7.8-27.2,14.6-40.8,20.4c1.9-5.8,2.9-11.6,4.9-18.4
						c8.7-3.9,17.5-8.7,27.2-13.6c-5.8-7.8-12.6-16.5-18.4-24.3c1-6.8,1.9-12.6,2.9-19.4c9.7,11.6,19.4,24.3,28.1,36.9
						c7.8,1.9,16.5,3.9,24.3,4.9C1758.2,1496.3,1757.2,1503.1,1755.3,1508.9z"/>
				</g>
			</g>
			<circle fill="#231F20" cx="1402.1" cy="1858.2" r="8.7"/>
		</g>
	</g>
</g>
</svg>
