<?xml version="1.0" encoding="utf-8"?>
<!-- Generator: Adobe Illustrator 18.1.1, SVG Export Plug-In . SVG Version: 6.00 Build 0)  -->
<!DOCTYPE svg PUBLIC "-//W3C//DTD SVG 1.1//EN" "http://www.w3.org/Graphics/SVG/1.1/DTD/svg11.dtd">
<svg version="1.1" xmlns="http://www.w3.org/2000/svg" xmlns:xlink="http://www.w3.org/1999/xlink" x="0px" y="0px"
	 viewBox="0 0 282 244" enable-background="new 0 0 282 244" xml:space="preserve">
<g id="bottom_type_and_TM">
	<g>
		<g enable-background="new    ">
			<path fill="#231F20" d="M85.5,196.5l1.7,2.5l-6.1,5.5l-1-1.6l1.5-1.3l-0.7-1l-1.8,0.9l-1-1.6L85.5,196.5z M85.4,198.4L85.4,198.4
				L82,200l0.5,0.8L85.4,198.4z"/>
			<path fill="#231F20" d="M89.9,204.7l-0.9-1l1.1-1l3,3.3l-1.1,1l-0.9-1l-4.9,4.5l-1.3-1.4L89.9,204.7z"/>
			<path fill="#231F20" d="M96.5,209.2l1.4,1.2l-4.2,5.2l1.4,1.1l-0.9,1.1l-2.8-2.3L96.5,209.2z"/>
			<path fill="#231F20" d="M103.8,214.7l2.6,1.6l-3.3,7.6l-1.6-1l0.8-1.8l-1-0.6l-1.2,1.5l-1.6-1L103.8,214.7z M104.5,216.5
				L104.5,216.5l-2.3,2.9l0.8,0.5L104.5,216.5z"/>
			<path fill="#231F20" d="M111.9,221.3L111.9,221.3l-2.5,5.8l-1.6-0.7l3.3-7.4l2.5,1.1l-1.4,6.3l0,0l2.5-5.8l1.6,0.7l-3.3,7.4
				l-2.5-1.1L111.9,221.3z"/>
			<path fill="#231F20" d="M121.3,224.6l-1.3-0.4l0.4-1.4l4.3,1.3l-0.4,1.4l-1.3-0.4l-1.9,6.4l-1.8-0.5L121.3,224.6z"/>
			<path fill="#231F20" d="M129.2,225.1l3,0.5l-0.1,8.2l-1.9-0.3l0.1-2l-1.2-0.2l-0.5,1.9l-1.9-0.3L129.2,225.1z M130.5,226.4
				L130.5,226.4l-1,3.5l0.9,0.1L130.5,226.4z"/>
			<path fill="#231F20" d="M136.2,235c0.5,0,0.7-0.2,0.7-0.7c0-0.1,0-0.1,0-0.2l-0.7,0l0.1-1.7l1.7,0.1l-0.1,1.9
				c-0.1,1.2-0.9,1.5-1.7,1.5L136.2,235z"/>
			<path fill="#231F20" d="M147.5,227.4c-0.2-1.3,0.6-1.8,2.2-2c1.5-0.2,2.4-0.1,2.7,1.6l0.1,0.8l-1.8,0.3l-0.1-0.8
				c-0.1-0.4-0.2-0.4-0.7-0.4c-0.4,0.1-0.5,0.2-0.4,0.6l0.7,4.7c0,0.2,0.2,0.3,0.5,0.2c0.5-0.1,0.6-0.2,0.6-0.3l-0.2-1.3l-0.6,0.1
				l-0.2-1.5l2.4-0.3l0.4,2.6c0.2,1.6-0.4,1.9-2.1,2.2c-1.5,0.2-2.4,0-2.6-1.3L147.5,227.4z"/>
			<path fill="#231F20" d="M156.9,224.1l3.4-1l0.4,1.4l-1.7,0.5l0.5,1.7l1.5-0.4l0.4,1.3L160,228l0.6,2l1.8-0.5l0.4,1.4l-3.6,1
				L156.9,224.1z"/>
			<path fill="#231F20" d="M165.6,222.9c-0.5-1.2,0.1-1.9,1.5-2.5c1.4-0.6,2.4-0.7,2.9,0.6l2,4.6c0.5,1.2-0.1,1.9-1.5,2.5
				c-1.4,0.6-2.4,0.7-2.9-0.6L165.6,222.9z M168.3,221.8c-0.1-0.3-0.3-0.3-0.6-0.2c-0.3,0.1-0.4,0.3-0.3,0.5l1.9,4.4
				c0.1,0.3,0.3,0.3,0.6,0.2c0.3-0.1,0.4-0.3,0.3-0.5L168.3,221.8z"/>
			<path fill="#231F20" d="M173.8,217.2l2-1.2c1.7-1,2.4-1,3.2,0.3l0.5,0.8c0.6,1.1,0.4,1.5-0.2,2.1l0,0c0.8-0.3,1.3-0.4,1.8,0.5
				l1.2,1.9l-1.6,1l-1.2-2c-0.2-0.3-0.4-0.3-1,0l-0.3,0.2l1.5,2.4l-1.6,1L173.8,217.2z M177.5,219.6l0.3-0.2c0.6-0.3,0.6-0.6,0.3-1
				l-0.6-1c-0.2-0.4-0.5-0.4-0.8-0.2l-0.5,0.3L177.5,219.6z"/>
			<path fill="#231F20" d="M183,213c-0.8-1-0.4-1.8,0.8-2.8c1.1-0.9,2-1.3,3.1,0l0.5,0.6l-1.4,1.1l-0.5-0.7c-0.2-0.3-0.4-0.3-0.8,0
				c-0.3,0.2-0.3,0.4-0.1,0.7l3,3.7c0.1,0.2,0.3,0.1,0.6-0.1c0.4-0.3,0.4-0.5,0.3-0.6l-0.8-1l-0.4,0.4l-1-1.2l1.8-1.5l1.7,2
				c1,1.2,0.7,1.8-0.7,3c-1.2,1-2.1,1.3-2.9,0.2L183,213z"/>
			<path fill="#231F20" d="M189.3,205.2l1.3-1.4l6,5.6l-1.3,1.4L189.3,205.2z"/>
			<path fill="#231F20" d="M194.3,199.2l1.7-2.5l7.5,3.5l-1.1,1.6l-1.8-0.9l-0.7,1l1.5,1.3l-1.1,1.6L194.3,199.2z M196.1,198.6
				L196.1,198.6l2.8,2.4l0.5-0.7L196.1,198.6z"/>
		</g>
		<g>
			<path fill="#231F20" d="M215.5,188.1h-1.1v-0.7h2.9v0.7h-1.1v2.9h-0.8V188.1z"/>
			<path fill="#231F20" d="M217.8,187.4h1.1l0.8,2.5h0l0.8-2.5h1.1v3.6h-0.7v-2.5h0L220,191h-0.6l-0.9-2.5h0v2.5h-0.7V187.4z"/>
		</g>
	</g>
</g>
<g id="outer_blue_shape">
	<path fill="#FFFFFF" stroke="#231F20" stroke-width="0.75" stroke-miterlimit="10" d="M239.8,132.8l35.5,0l-38.8,29.3l16.7,21.9
		h-40.5l-3.7,5.3l-11.6-2.9c-1.2-0.3-2.3-0.6-3.5-0.8c-2.7,7.8-8.6,15.1-17.2,21.4c-6.2,4.5-19.1,12-35.9,12
		c-16.8,0-29.7-7.5-35.9-12c-8.6-6.3-14.5-13.6-17.2-21.4c-1.2,0.3-2.3,0.5-3.4,0.8l-11.6,2.9l-3.7-5.3H28.3L45,162.2L6.2,132.8
		h36.8l0-27.4c0-4,1.6-8,4.5-10.8c2.7-2.8,6.6-4.4,10.6-4.4h34c3.5,0,7,0.6,10.3,1.9c4.8-1.6,10.3-2.4,16.2-2.4
		c3.2,0,6.2,0.2,9.1,0.7c0.4,0,0.9-0.1,1.3-0.1l79.5,0c4.1,0,7.9,1.6,10.7,4.4c2.9,2.9,4.4,6.7,4.4,10.7l0,2.1l2.4,0.7
		c3.6,0.3,13.8,3.4,13.8,3.4L239.8,132.8z"/>
</g>
<g id="round_5_top_outer_blue_shape">
	<path fill="#FFFFFF" stroke="#231F20" stroke-width="0.75" d="M200.3,112.7h-12.7L186,109c-1.2,0.2-2.5,0.4-3.7,0.4l-1,3.3h-34.8
		l-0.4-0.7c-2.5,0.9-5.2,1.4-7.9,1.4c-1.3,0-2.7-0.1-4-0.3l-12,8.8v-9.1h-4.1l-1.4-1.1c-0.3,0-0.6,0-0.9,0c-0.4,0-0.8,0-1.2,0
		c-1.7-0.1-3.4-0.4-5.1-0.8c-2,0.6-4,1-6,1c-1.6,0-3.3-0.2-4.9-0.6c-2.6,1.1-5.3,1.6-8.2,1.6c-1.5,0-3-0.2-4.5-0.5
		c-2.2,1.1-4.5,1.6-7.1,1.7l-0.5,0c-2.2,0-4.4-0.4-6.4-1.2c-1,0.4-2.1,0.7-3.1,0.9l-1.1,0.3h-1.5v1.7l-9.8-0.9
		c-22.1-2-31.4-21.7-30.7-39.2c0.4-10.5,3.9-21,9.7-29.8c-1.1-2.2-1.8-4.5-2-7c-0.4-4.8,1.1-9.4,4.2-13c1.1-1.3,2.4-2.4,3.8-3.3
		c1.8-4.6,5.2-8.2,9.7-10.3c2.5-1.1,5.1-1.7,7.8-1.7c0.8,0,1.6,0,2.3,0.1c3.6-2.9,7.9-4.4,12.4-4.4c1.4,0,2.8,0.1,4.1,0.4
		c3.8,0.8,7.2,2.7,9.8,5.4c1.2-0.2,2.5-0.3,3.7-0.3c6.9,0,13.1,3.1,17,8.4c6.1,8.1,6,21.6-5.4,31.3c0.7,1.6,1.2,3.2,1.4,4.9
		c3.2,0.3,6.2,1.5,8.7,3.5c1-0.1,2-0.2,3-0.2c3-4.6,8-7.6,13.5-7.9c0.3,0,0.6,0,0.9,0c4.7,0,9.2,1.9,12.4,5.3
		c1.5,1.6,2.6,3.4,3.4,5.4c0.2,0.1,0.4,0.2,0.6,0.4c5.1-8.4,12.6-13.1,21-13.1c4.5,0,8.9,1.5,12.3,4.2c0,0,0.1,0,0.1,0
		c1.3,0,2.7,0.2,4,0.5c2.3-1.4,4.7-2.3,7.2-2.8c1.2-0.2,2.5-0.3,3.7-0.3c4.8,0,9.1,1.6,12.6,4.6c3.8-4.4,9.2-6.9,15-6.9
		c3,0,5.9,0.6,8.6,1.9c0.5-0.1,1.1-0.1,1.7-0.1c9.6,0,17.4,7.8,17.4,17.4c0,2.3-0.5,4.6-1.3,6.7c1.8,1.9,3.1,4.1,3.9,6.6
		c0.7,2.3,1,4.6,0.7,7c1.6,2.8,2.4,5.9,2.2,9c-0.3,7.9-6.7,16.2-17.9,16.2h-25.3l-12.5,10.2V112.7z"/>
	<rect x="232.6" y="105.3" fill="#FFFFFF" width="6.7" height="11"/>
</g>
<g id="middle_gray_shape">
	<path fill="#231F20" d="M140.7,216.8c-16.2,0-28.6-7.3-34.5-11.6c-9-6.5-14.9-14.2-17-22.2c-1.9,0.4-3.7,0.8-5.5,1.3l-10.1,2.5
		l-3.5-5H32.9l15.3-20.1L13,135.1h32.4l0-29.7c0-3.4,1.4-6.8,3.8-9.2c2.3-2.4,5.6-3.7,9.1-3.7h34c3.5,0,7,0.7,10.2,2
		c4.8-1.7,10.2-2.5,16.3-2.5c3.1,0,6.2,0.2,9,0.7c0.5,0,0.9-0.1,1.4-0.1l108.3,11.8v5.2l0.1,2.1v23.3l31.1,0l-35.2,26.6l15.3,20.1
		h-37.2l-3.5,5l-10.1-2.5c-1.8-0.5-3.7-0.9-5.6-1.3c-2.2,8-8,15.7-17,22.2C169.3,209.5,156.9,216.8,140.7,216.8z"/>
</g>
<g id="round_5_top_middle_gray_shape">
	<path fill="#231F20" d="M202.7,110.3h-13.5l-1.4-3.3c-0.5-0.2-0.9-0.4-1.4-0.6c-1.5,0.4-3,0.5-4.5,0.5c-0.4,0-0.9,0-1.3,0l-1,3.3
		h-31.5l-0.7-1.4c-2.8,1.4-5.9,2.1-9.1,2.1c-1.6,0-3.1-0.2-4.6-0.5l-9,6.6v-6.7h-5.7l-1.4-1.2c-0.6,0-1.1,0.1-1.7,0.1
		c-0.4,0-0.7,0-1.1,0c-1.8-0.1-3.6-0.4-5.3-1c-2,0.7-4,1.1-6,1.1c-1.7,0-3.4-0.3-5-0.8c-2.5,1.2-5.2,1.7-8,1.7
		c-1.6,0-3.2-0.2-4.8-0.7c-2,1.2-4.4,1.8-6.9,1.9c0,0-0.4,0-0.4,0c-2.2,0-4.4-0.5-6.3-1.4c-1.3,0.5-2.5,0.9-3.8,1.2l-0.8,0.2h-3.6
		v1.5l-7.2-0.7c-20.5-1.9-29.2-20.4-28.5-36.7c0.4-10.6,4.1-21.2,10.2-29.7c-1.4-2.2-2.2-4.7-2.4-7.3c-0.3-4.1,1-8.1,3.6-11.2
		c1.1-1.3,2.5-2.4,4-3.3c1.5-4.3,4.5-7.8,8.7-9.7c2.1-1,4.4-1.5,6.8-1.5c1,0,2,0.1,3.1,0.3c3.3-3,7.4-4.6,11.7-4.6
		c1.2,0,2.4,0.1,3.6,0.4c3.7,0.8,7,2.8,9.5,5.7c1.5-0.3,3.1-0.5,4.6-0.5c6.1,0,11.6,2.7,15.1,7.4c5.6,7.6,5.3,20.4-6.5,29.2
		c1.4,2.3,2.1,4.8,2.1,7.3c0,0.2,0,0.4,0,0.5c0.1,0,0.3,0,0.4,0c3.7,0,7.2,1.4,9.9,3.7c1.2-0.3,2.4-0.4,3.7-0.4c0.3,0,0.6,0,0.8,0
		c0.2,0,0.3,0,0.5,0c2.6-5,7.6-7.7,12.3-7.9c0.2,0,0.5,0,0.7,0c4.1,0,8,1.6,10.7,4.5c1.5,1.6,2.6,3.4,3.2,5.5
		c1.2,0.6,2.3,1.3,3.4,2.1c4.6-9,11.9-14.2,20.2-14.2c4.3,0,8.4,1.5,11.5,4.3c0.3,0,0.6,0,0.9,0c1.5,0,3,0.2,4.4,0.7
		c2.3-1.5,4.7-2.5,7.2-3c1.1-0.2,2.2-0.3,3.2-0.3c5.2,0,9.7,2.2,12.8,5.8c3.2-5,8.6-8.2,14.8-8.2c2.9,0,5.7,0.7,8.1,2
		c0.7-0.1,1.4-0.1,2.1-0.1c8.3,0,15,6.7,15,15c0,2.6-0.7,5.1-1.9,7.3c2.1,1.7,3.7,4,4.5,6.7c0.7,2.2,0.9,4.5,0.5,6.7
		c1.6,2.5,2.4,5.4,2.3,8.4c-0.3,6.7-5.8,13.9-15.5,13.9H212l-9.3,7.6V110.3z"/>
</g>
<g id="original_logo_x5F_bottom_half_main">
	<path fill="#FFFFFF" d="M215.8,114.9l16,1.5v24.4l19.8,0l-26.2,19.8l11.8,15.4h-28.6l-3,4.2l-6.3-1.6c-3.8-1-7.7-1.8-11.7-2.6
		c0,8.5-5.6,17.1-15.6,24.4c-5.4,3.9-16.6,10.5-31.2,10.5c-14.6,0-25.8-6.6-31.2-10.5c-10-7.3-15.6-15.9-15.6-24.4
		c-4,0.8-7.9,1.6-11.7,2.6l-6.3,1.6l-3-4.2H44.4l11.8-15.4L30,140.8H51l0-35.4c0-1.9,0.8-3.8,2.1-5.1c1.3-1.3,3.1-2.1,5-2.1h34
		c3.5,0,7,0.9,10,2.5c4.6-2,10.1-3,16.5-3c3.2,0,6.2,0.3,8.9,0.8c0.5-0.1,0.9-0.1,1.4-0.1l86.8-1.3L215.8,114.9z"/>
	<path fill="#231F20" d="M129.1,104.9c-0.2,0-0.3,0.1-0.4,0.2c-0.1,0.1-0.1,0.2-0.1,0.3c-2.9-0.7-6.2-1.1-9.8-1.1
		c-7.1,0-12.8,1.4-16.9,4.1c-2.5-2.3-6-3.6-9.6-3.6h-34c-0.2,0-0.3,0.1-0.4,0.2c-0.1,0.1-0.2,0.3-0.2,0.4l0.1,19.3
		c0,0.2,0.1,0.3,0.2,0.4c0.1,0.1,0.3,0.2,0.4,0.2c0,0,3.5,0,4.4,0c0,0.8,0,3.7,0,4.3c-0.7,0.2-4.7,1-4.7,1c-0.3,0.1-0.5,0.3-0.5,0.6
		c0,0,0.1,11.3,0.1,16.3c-4.2,0-8,0-8,0s12.9,9.8,15.8,12c-1.7,2.3-7.7,10.1-7.7,10.1s16.3,0,18.7,0c0.6,0.8,2.3,3.3,2.3,3.3
		l1.9-0.5c7.2-1.8,14.6-3.3,22.3-4.4c-1.6,2.8-2.4,5.5-2.4,8.1c0,6.2,4.7,13.2,12.9,19.2c4.8,3.5,14.6,9.2,27.3,9.2
		c12.7,0,22.6-5.8,27.3-9.2c8.2-5.9,12.9-12.9,12.9-19.2c0-2.6-0.8-5.4-2.4-8.1c7.7,1.1,15.2,2.6,22.4,4.4l1.9,0.5
		c0,0,1.8-2.5,2.3-3.3c2.4,0,18.7,0,18.7,0s-6-7.8-7.7-10.1c2.9-2.2,15.8-12,15.8-12l-6,0c0,0-0.3,0-0.7,0v-24
		c0-0.3-0.2-0.5-0.5-0.6c0,0-14.7-1.3-15.7-1.4c0-1,0-15.9,0-15.9c0-0.2-0.1-0.3-0.2-0.4c-0.1-0.1-0.3-0.2-0.4-0.2L129.1,104.9z
		 M205.9,108.2c0,1,0,12.9,0,13.9c-0.9,0-3.5-0.1-3.5-0.1c-0.2,0-0.3,0.1-0.4,0.2c-0.1,0.1-0.2,0.3-0.2,0.4l0,5.6
		c0,0.3,0.2,0.5,0.5,0.6l3.7,0.8c0.2,0,0.4,0,0.5-0.1c0.1-0.1,0.2-0.3,0.2-0.4c0,0-0.2-3.6-0.2-4.6c1.2,0.1,14.7,1.3,15.6,1.4
		c0,0.8,0,16.6,0,21.5c-1.4,0-3,0-4.5,0c-0.4-0.1-0.7-0.2-0.7-0.2c-9.7-3-24.1-6.5-33.6-8.2c0,0-2.7-0.5-3.4-0.6c0-0.9,0-11.9,0-13
		c1,0.1,4.3,0.5,4.3,0.5c0.2,0,0.3,0,0.4-0.1c0.1-0.1,0.2-0.3,0.2-0.4l0-3.5c0-0.3-0.2-0.6-0.6-0.6l-3.8-0.1c-0.2,0-0.4,0.1-0.5,0.3
		c0,0-6.7,15-7.1,15.7c-0.7-0.1-11.6-1-12.2-1.1c-0.2-0.5-1.6-3.1-1.6-3.1c-0.1-0.2-0.3-0.3-0.5-0.3h0c-0.2,0-0.4,0.1-0.5,0.3
		c0,0-1.2,2.2-1.5,2.8c-0.7,0-12-0.4-12.6-0.5c-0.3-0.6-3.7-7.8-3.7-7.8c-0.1-0.2-0.3-0.3-0.6-0.3c-0.2,0-0.4,0.2-0.5,0.4
		c-2.8,8.8-13.4,9.4-19.7,9.7c-7.4,0.4-12.8-0.6-16.5-3c-0.1-0.1-0.3-0.1-0.5-0.1c-0.2,0-0.3,0.1-0.4,0.3c-1.8,3.5-5.3,4.6-7.2,5
		c-8.6,1.5-19.7,4.3-29.2,7.3c0,0-0.7,0.2-1.7,0.5c-1.1,0-2.3,0-3.5,0c0-3.5-0.1-13.4-0.1-14.1c0.8-0.2,4.7-1,4.7-1
		c0.3-0.1,0.5-0.3,0.5-0.6l0-9.2c0-0.2-0.1-0.3-0.2-0.4c-0.1-0.1-0.3-0.2-0.4-0.2c0,0-3.6,0-4.5,0c0-1-0.1-12.9-0.1-13.9
		c1.1,0,31.4,0,31.4,0c3.7,0,7,1.6,8.8,4.2c0.1,0.1,0.2,0.2,0.4,0.2c0.2,0,0.3,0,0.4-0.1c3.6-3.2,9.3-4.8,16.9-4.8
		c4.8,0,8.9,0.7,12.2,2c0.2,0.1,0.4,0.1,0.5-0.1c0.2-0.1,0.3-0.3,0.3-0.5c0,0,0-0.4,0-0.8L205.9,108.2z"/>
	<g>
		<path fill="#A2A19F" enable-background="new    " d="M158.8,137.7L158.8,137.7L158.8,137.7z"/>
	</g>
	<path fill="#231F20" d="M115.1,122.7c0,2.3,1.5,3.5,3.7,3.5c2.1,0,3.7-1.2,3.7-3.5c0-2.3-1.5-4-3.7-4
		C116.7,118.7,115.1,120.3,115.1,122.7z"/>
	<path fill="#FFFFFF" d="M223.6,150.2c-4.4,0-11.6,0-11.6,0c-21.6-6.6-46.2-10.2-71.2-10.2c-24.9,0-49.6,3.6-71.2,10.2
		c0,0-7.2,0-11.6,0c3.8,2.9,11.4,8.6,11.4,8.6s-4.1,5.3-6,7.8c3.9,0,14.5,0,14.5,0s1.4,2.1,2.1,3c9.4-2.3,19.2-4.2,29.3-5.4
		c-3.8,4-5.9,8.2-5.9,11.8c0,5.2,4.4,11.6,11.7,16.9c4.5,3.3,13.8,8.7,25.7,8.7c11.9,0,21.2-5.5,25.7-8.7
		c7.3-5.3,11.7-11.7,11.7-16.9c0-3.7-2.1-7.8-5.9-11.8c10.1,1.2,20,3,29.4,5.4c0.6-0.9,2.1-3,2.1-3s10.6,0,14.5,0
		c-1.9-2.5-6-7.8-6-7.8S219.8,153.1,223.6,150.2z"/>
	<g>
		<path fill="#FFFFFF" d="M108.6,176.1c0-6.7,14.9-20.3,32.1-20.3c17.2,0,32.1,13.6,32.1,20.3c0,6.7-14.9,20.3-32.1,20.3
			C123.5,196.4,108.6,182.8,108.6,176.1z"/>
	</g>
	<g>
		<path fill="#231F20" d="M140.7,159.1c-5.6,0-10.8,1.6-15.1,3.8v26.4c4.4,2.2,9.6,3.8,15.1,3.8c5.6,0,10.8-1.6,15.1-3.8v-26.4
			C151.5,160.6,146.3,159.1,140.7,159.1z"/>
		<path fill="#231F20" d="M112,176.1c0,2.1,3.3,6.4,8.6,10.2v-20.3C115.2,169.7,112,174,112,176.1z"/>
		<path fill="#231F20" d="M169.5,176.1c0-2.1-3.3-6.4-8.6-10.2v20.3C166.3,182.5,169.5,178.1,169.5,176.1z"/>
	</g>
	<path fill="#FFFFFF" d="M126.8,185.5c0,0,5.7,3.4,14,3.4c9.7,0,16-2.8,18.2-4.4c0-2.5,0-5.4,0-6.9c-4.2,2.4-6.4,3.9-13.9,6.1
		C136.4,186.2,126.8,185.5,126.8,185.5z"/>
	<path fill="#FFFFFF" d="M163,181.7c0,0,3.7-2.9,5.5-6.2c-0.9-0.4-4.4-0.5-5.5-0.1C163,177.4,163,181.7,163,181.7z"/>
	<path fill="#231F20" d="M142,145.4c0,0,0,0.3,0,0.7c0,0.3,0,0.6,0,0.6c-0.2,0-1.1,0-1.1,0s-2.6,4.9-2.6,4.9c0,0-1.3,0-1.3,0
		c0,0,0,0,0,0c0-0.1-2.7-4.8-2.7-4.8l-1.2,0c0,0,0-0.4,0-0.8c0-0.3,0-0.5,0-0.5c0.4,0,5-0.1,5-0.1c0,0,0,0.3,0,0.6
		c0,0.3,0,0.6,0,0.7c-0.1,0-0.8,0-0.8,0l1.1,1.9l1-1.9c0,0-0.7,0-0.8,0c0-0.2,0-1.3,0-1.3C138.4,145.5,142,145.4,142,145.4z"/>
	<path fill="#231F20" d="M147.2,150.2c0-0.3-0.2-0.5-0.5-0.5c-0.4,0-1.5-0.1-1.5-0.1c-0.4,0-1.6-0.2-2-0.5c-0.8-0.4-1.2-1.2-1.1-1.7
		c0-0.8,0.5-1.2,0.8-1.4c0.4-0.3,1.1-0.5,1.9-0.5l1.4,0c0.7,0,1.1,0.3,1.4,0.5l0.2,0.1c0,0,0.1-0.5,0.1-0.6c0.1,0,1.4,0,1.4,0
		c0,0,0,1.4,0,1.6c-0.3,0-1.4,0-1.6,0c-0.2-0.5-0.8-0.7-1-0.7c0,0-1.6,0-1.6,0c-0.4,0-0.7,0.2-0.7,0.5c0,0.5,0.7,0.6,0.9,0.6
		c0,0,1,0,1,0c0.5,0,1.7,0.2,2,0.3c0.4,0.2,1.3,0.5,1.3,1.7c-0.1,2-2.5,2-2.8,2l-1.4,0c-0.6,0-1.2-0.3-1.5-0.6l-0.2-0.2
		c0,0-0.1,0.6-0.1,0.7c-0.2,0-1.3,0-1.6,0c0-0.3,0-1.5,0-1.7c0.3,0,1.5,0,1.7,0c0.1,0.7,1.1,0.7,1.1,0.7l1.9,0.1
		C146.8,150.7,147.2,150.6,147.2,150.2z"/>
	<g>
		<g>
			<path fill="#231F20" d="M109.1,146.3c0,0,0,0.1,0,0.1l0.7,4.5c0,0,0,0,0,0c-0.2,0-2.8,0.4-2.9,0.4c0,0,0,0,0,0
				c-0.5-0.8-1.5-2.1-3.4-1.8c-2.2,0.3-2.5,2.5-2.3,3.5c0.1,0.6,0.7,3.3,3.6,2.8c2.4-0.4,3-2.5,3.1-2.8c0.2,0,1.8-0.3,2.1-0.3
				c0,0,0,0.1,0,0.1c-0.2,3.2-2.2,5-5.7,5.6c-2.8,0.4-4.9,0.1-6.4-0.9c-1.3-1-1.8-2.4-1.9-3.4c-0.2-1.6,0.1-3.2,1-4.4
				c1-1.3,2.6-2.2,4.7-2.5c1.7-0.3,2.9,0,4.1,0.8l0.4,0.3l-0.1-1.5c0,0,0,0,0-0.1C106.7,146.6,108.8,146.3,109.1,146.3z"/>
		</g>
		<g>
			<path fill="#231F20" d="M125.1,144.8c0,0,0,0.1,0,0.1l0.4,4.5c0,0,0,0,0,0c-0.2,0-2.9,0.2-2.9,0.3c0,0,0,0,0,0
				c-0.7-1.4-1.9-2.1-3.3-2c-2.2,0.2-2.6,2.3-2.5,3.4c0,0.6,0.4,3.3,3.4,3.1c2.5-0.2,3.2-2.2,3.3-2.6c0.2,0,1.8-0.2,2.2-0.2
				c0,0,0,0.1,0,0.1c-0.5,3.1-2.5,4.9-6.1,5.2c-6.5,0.6-7.8-2.8-8-4.9c-0.2-2.9,1.2-6.1,6.1-6.5c1.7-0.1,2.9,0.2,4.1,1l0.4,0.3
				l0-1.6c0,0,0,0,0-0.1C122.7,145,124.8,144.8,125.1,144.8z"/>
		</g>
		<g>
			<path fill="#231F20" d="M166.1,155.1c0.2-0.1,0.3-0.3,0.3-0.5c0-0.3,0-0.5-0.2-0.8c-0.2-0.2-0.5-0.3-0.6-0.4l-2.8-0.3
				c-0.8-0.1-2.9-0.7-3.7-1.1c-1.5-0.9-2-2.3-1.9-3.3c0.1-1.5,1.2-2.3,1.8-2.7c0.7-0.5,2-0.8,3.5-0.7l2.7,0.3
				c1.2,0.1,2.1,0.7,2.6,1.1l0.3,0.3c0,0,0.3-1,0.3-1.1c0.3,0,2.6,0.2,2.6,0.2c0,0,0,0,0,0c0,0,0,0.1,0,0.1s-0.2,2.6-0.3,2.9
				c-0.2,0-2.9-0.3-3-0.3c-0.3-1-1.4-1.3-1.7-1.4l-3-0.3c-0.3,0-0.7,0-1,0.2c-0.2,0.2-0.3,0.4-0.3,0.7c0,0,0,0.1,0,0.1
				c0,0.2,0.1,0.4,0.2,0.5c0.4,0.4,1.1,0.5,1.5,0.5c0,0,1.9,0.2,1.9,0.2c0.9,0.1,3.1,0.6,3.7,0.8l0.1,0c0.6,0.3,2.1,1,2.1,3
				c0,0.1,0,0.3,0,0.4c-0.4,3.8-5,3.5-5.5,3.4l-2.6-0.2c-1.1-0.1-2.1-0.8-2.7-1.3l-0.3-0.3c0,0-0.2,1.2-0.2,1.3
				c-0.4,0-2.5-0.2-3.1-0.3c0-0.5,0.3-2.9,0.3-3.2c0.6,0.1,2.9,0.3,3.3,0.3c0.2,1.3,2,1.5,2,1.5c0,0,3.5,0.3,3.5,0.3
				C165.4,155.3,165.8,155.3,166.1,155.1z"/>
		</g>
		<g>
			<path fill="#231F20" d="M174.2,146.5c0.5,0.1,14.3,2.4,14.8,2.5c0,0,0,0.1,0,0.1l-0.8,4.5c0,0,0,0,0,0c-0.5-0.1-2.3-0.4-2.8-0.5
				c0.1-0.4,0.4-2.1,0.4-2.1l-5.6-1l-0.3,2c0,0,2.8,0.5,3,0.5c-0.1,0.4-0.3,2-0.4,2.3c-0.3,0-2.8-0.5-2.8-0.5l-0.2,0l-0.3,2.1l5.7,1
				l0.4-2.2c0,0,0,0,0-0.1c0.3,0.1,2.5,0.4,3,0.5c0,0,0,0.1,0,0.1l-0.8,4.7c0,0-14.9-2.5-15.1-2.6c0.1-0.4,0.4-2.4,0.4-2.4s0,0,0,0
				c0.4,0.1,2.2,0.4,2.2,0.4l1.1-6.4c0,0-2-0.3-2.2-0.4C173.8,148.6,174.1,146.9,174.2,146.5z"/>
		</g>
		<g>
			<path fill="#231F20" d="M196.3,162.6c-6.4-1.6-6.5-5.2-6-7.2c0.7-2.8,3.2-5.4,7.9-4.2c1.6,0.4,2.7,1.1,3.5,2.3l0.3,0.4l0.5-1.5
				c0,0,0,0,0-0.1c0.5,0.1,2.6,0.7,2.9,0.7c0,0,0,0.1,0,0.1l-1.1,4.4c0,0,0,0,0,0c-0.2,0-2.8-0.7-2.9-0.7c0,0,0,0,0,0
				c-0.2-1.6-1.1-2.6-2.4-3c-0.7-0.2-1.4-0.1-2,0.3c-0.8,0.5-1.3,1.4-1.5,2.1c-0.1,0.4-0.3,1.6,0.3,2.7c0.4,0.6,1,1.1,1.9,1.3
				c2.4,0.6,3.8-1.1,4-1.4c0.2,0,1.7,0.4,2.1,0.5c0,0-0.1,0.1-0.1,0.1C202.3,162.5,199.8,163.5,196.3,162.6z"/>
		</g>
		<g>
			<g>
				<path fill="#231F20" d="M95.8,157.5c-0.2,0-2.2,0.5-2.2,0.5s-5.9-7.9-5.9-7.9c0-0.1-0.1-0.1-0.2-0.1c0,0-4.4,1-4.4,1
					c0,0-0.1,0.1-0.1,0.2l-1.8,9.5l-2.1,0.5l0.5,2.4c0,0,5.7-1.3,6.5-1.5c0,0,0-0.1,0-0.1s-0.5-2-0.5-2.3c-0.2,0-2,0.5-2,0.5l0.3-2
					l3.3-0.8l1.2,1.6c0,0-1.6,0.4-1.9,0.4c0,0,0.5,2.3,0.6,2.3c0.3-0.1,9.1-2.1,9.1-2.1C96.4,159.7,95.8,157.5,95.8,157.5z
					 M84.3,157.1l0.5-2.4c0-0.1,0.1-0.2,0.2-0.2c0.1,0,0.3,0,0.4,0.1l1.4,2L84.3,157.1z"/>
			</g>
		</g>
	</g>
	<g>
		<g>
			<path fill="#231F20" d="M182.1,111.8h-12.6l0,5.6c0,0,1.2,0,1.7,0c-0.5,1.1-1.5,3.4-2.1,4.7c-0.6-1.3-1.7-3.6-2.3-4.7
				c0.5,0,1.6,0,1.6,0l0-5.6h-14.7l0,5.6c0,0,1.4,0,2.1,0c-0.6,1.1-1.7,3.3-2.3,4.6c-0.6-1.2-1.8-3.4-2.3-4.6c0.5,0,1.6,0,1.6,0
				l-0.1-5.6h-17.6l0.1,5.6c0,0,3.6,0,4.3,0c0.3,0.7,6.8,14.4,6.8,14.4l8.5,0.3c0,0,3.1-5.9,4-7.5c0.8,1.6,4.2,8.1,4.2,8.1l8,0.7
				c0,0,6.8-15.2,7.1-15.9c0.6,0,4.2,0,4.2,0L182.1,111.8z"/>
		</g>
	</g>
	<g>
		<g>
			<path fill="#231F20" d="M118.7,111.2c-11.6,0-17.9,4.1-17.9,11.4c0,3.1,0.9,5.7,2.8,7.5c2.9,2.9,8.1,4.1,15.9,3.7
				c10.9-0.6,17.2-2.6,17.2-11.1C136.6,115.3,130.2,111.2,118.7,111.2z M118.8,129.1c-3.6,0-6.4-2.5-6.4-6.4c0-4,2.8-6.9,6.4-6.9
				c3.6,0,6.4,3,6.4,6.9C125.2,126.6,122.4,129.1,118.8,129.1z"/>
		</g>
	</g>
	<g>
		<g>
			<path fill="#231F20" d="M96.6,123.6c1.2-0.9,2.6-2.6,2.6-5.7c0-4.9-4.4-6.2-7.1-6.2H64.2l0,6.6c0,0,4.1,0,5.1,0
				c0,1.2,0,15.9,0,16.9c-0.8,0.2-5.1,1.1-5.1,1.1l0,7.4l0.8-0.2c9.6-3,20.9-5.8,29.6-7.4c5.5-1.1,5.5-5.5,5.5-6.9
				C100.1,126,98.2,124.3,96.6,123.6z M79.6,117.2l5.4,0c1.9,0,2.8,0.5,2.8,2.2c0,1.8-2,2.2-2.7,2.3c-0.8,0.1-5.5,0.9-5.5,0.9
				L79.6,117.2z M86.1,131.1l-6.5,1.5v-4.6c3.4-0.8,5-1.1,6.3-1.4c1.2-0.3,2.7,0,2.7,1.9C88.7,130.7,86.1,131.1,86.1,131.1z"/>
		</g>
	</g>
	<path fill="#231F20" d="M201.9,111.8h-18.6l0,5.8c0,0,4,0.1,5,0.1c0,1.1,0,11.1,0,12.3c-1-0.1-4.9-0.6-4.9-0.6v5.8l0.5,0.1
		c9.5,1.6,24.2,5.2,34,8.3l0.8,0.2v-14.7l-8.5-0.8c0,0,0.3,4.6,0.3,5.8c-1.8-0.4-6.8-1.5-12-2.6c0-1,0-12.3,0-13.4
		c0.9,0,4.1,0.2,4.1,0.2l0-6.5H201.9z"/>
	<path fill="#FFFFFF" d="M152.1,164.4l0,0.8c-0.8-0.2-1.8-0.5-3.1-0.8v-0.8l-1.9-0.3v0.8c-0.9-0.2-2-0.3-3.1-0.4v-0.8l-1.9-0.1v0.8
		c-0.4,0-0.9,0-1.3,0c-0.6,0-1.2,0-1.7,0v-0.8l-1.9,0.1v0.8c-1.1,0.1-2.1,0.2-3.1,0.4v-0.8l-1.9,0.3v0.8c-1.3,0.3-2.4,0.5-3.1,0.7
		l0-0.7l-1.9,0.6l0,4.4l1.9-0.6l0-0.8c0.2-0.1,1.3-0.4,3.1-0.8v0.7l1.9-0.3v-0.7c0.9-0.2,2-0.3,3.1-0.4v0.8l1.9-0.1v-0.8
		c0.6,0,1.1,0,1.7,0c0.5,0,0.9,0,1.3,0v0.8l1.9,0.1v-0.8c1.1,0.1,2.1,0.2,3.1,0.4v0.7l1.9,0.3v-0.7c1.5,0.3,2.5,0.7,3.1,0.8l0,0.7
		l1.9,0.6l0-4.4L152.1,164.4z"/>
</g>
<g id="round_4_small_logo_x5F_bottom_outline_adjusted">
	<path fill="#FFFFFF" d="M243.8,90.2c1.1-1.9,1.4-4.2,0.7-6.3c-1-3.3-4.1-5.5-7.6-5.5c-1.5,0-3.1,0.4-4.5,1.3
		c-0.3,0.2-0.6,0.3-0.9,0.5c-0.2-0.3-0.3-0.6-0.5-0.9c0.6-1.1,1.1-2.1,1.5-3.1c0.2,0,0.4,0,0.6,0c4.6,0,8.4-3.8,8.4-8.4
		c0-4.6-3.8-8.4-8.4-8.4c-1.1,0-2.2,0.2-3.2,0.6c-1.9-1.5-4.3-2.5-7-2.5c-6.5,0-11.3,5.4-11.3,12.5c0,1.1,0.1,2.3,0.3,3.5
		c-1.1-0.3-2.4-0.5-3.9-0.5l-0.2,0c-0.7,0-1.4,0.1-2,0.2c0.1-1.5,0-3-0.2-4.4c-1-5.4-5-8.9-10.2-8.9c-0.7,0-1.4,0.1-2,0.2
		c-2.7,0.5-5.3,2-7.5,4.3c-1.4-1.2-3.3-1.9-5.3-1.9c-1.2,0-2.3,0.2-3.3,0.7c-2-3.2-5.5-4.9-9.1-4.9c-7.1,0-13,5.9-16.2,15
		c-0.9-0.2-1.9-0.3-3-0.3l-0.2,0c-1,0-2,0.1-2.9,0.3c-1.7-2.4-4.2-4-7.2-4.4c0-2.3-0.7-4.4-2.2-6c-1.5-1.6-3.6-2.5-5.9-2.5
		c-0.1,0-0.3,0-0.4,0c-3.4,0.2-7.3,2.7-7.7,7.8c-0.1,0.6-0.1,1.1-0.1,1.6c-1.5-0.9-3.4-1.4-5.5-1.5c-0.2,0-0.3,0-0.5,0
		c-2.1,0-4,0.6-5.9,1.6c-1.4-2.9-4.3-5-7.7-5c-2.1,0-4,0.7-5.4,2c-0.7-1.8-1.8-3.4-3.3-4.6c1.1-1.2,1.7-2.7,1.7-4.5
		c0-3.7-3.1-6.8-6.6-8.9c2.4-0.8,4.9-2,7.1-3.7c8.5-6.3,9-14.8,5.2-20c-2.2-3-5.8-4.7-9.8-4.7c-2.5,0-5,0.6-7.5,1.9
		c-0.1-0.3-0.2-0.6-0.4-0.9c-1.5-3.3-4.2-5.6-7.6-6.3c-0.7-0.2-1.5-0.2-2.2-0.2c-3.9,0-7.4,2.1-9.7,5.7c-1.6-0.9-3.3-1.4-5.1-1.4
		c-1.4,0-2.7,0.3-4,0.9c-2.9,1.3-4.9,3.9-5.5,7.1c-0.1,0.4-0.2,0.9-0.2,1.3c-1.8,0.4-3.5,1.4-4.7,2.8c-1.5,1.8-2.2,4-2.1,6.4
		c0.2,2.7,1.6,5.4,4,7.4c0.1,0.1,0.2,0.2,0.3,0.3c-6.9,7.7-11.7,18.6-12.1,30.1c-0.5,13.4,6.3,28.4,22.6,29.9v-0.9h5v0h4.4
		c2-0.5,4.1-1.3,6.1-2.2c1.6,1.5,3.6,2.2,5.6,2.2l0.3,0c2.6-0.1,4.7-1.2,6.1-3c1.8,1.2,3.8,1.8,5.8,1.8c2.7,0,5.3-0.9,7.6-2.5
		c1.8,1.1,3.8,1.5,5.5,1.5c2,0,4-0.6,5.8-1.6c1.8,0.9,3.8,1.4,5.8,1.5c0.3,0,0.5,0,0.8,0c1.4,0,2.7-0.2,4-0.5
		c0.4,0.6,0.9,1.1,1.4,1.6h9.9v0.3c0.4-0.3,0.7-0.6,1.1-1c1.7,0.8,3.7,1.3,5.9,1.3c4.8,0,8.4-2.2,10.8-5.1v1.8h2.1
		c0.3,0.9,0.7,1.8,1.1,2.6h22.5c0.4-1.3,0.7-2.8,0.7-4.3c0-0.3,0-0.6,0-0.9c1.4,0.9,3.1,1.6,4.9,1.8c0.5,0.1,1.1,0.1,1.6,0.1
		c1.8,0,3.6-0.4,5.2-1c1.8,1.2,3.8,1.9,5.9,2.2c0.1,0.7,0.3,1.5,0.6,2.2h15.8v1c0.9-0.8,1.5-1.6,2.5-2.6v2.3h26.3
		c5.6,0,8.7-3.8,8.9-7.6C247.2,94.1,245.9,91.7,243.8,90.2z"/>
	<path fill="#FFFFFF" d="M155,103.6c2,3.5,5,6,8.9,6c3.8,0,6.8-2.4,8.3-6H155z"/>
	<path fill="#231F20" d="M72.2,52.9c-0.1,2.5-3.1,5.6-4.6,3.2c-0.8-1.8,1.2-5.1,3.1-5.2C72.1,51,72.2,52.3,72.2,52.9z M96.4,29
		c-2.3-3.1-7.3-3.3-12.3,0.5c-5,3.7-7.9,9.8-5.6,12.9c2.3,3.1,8.9,2.1,13.9-1.6C97.5,36.9,98.7,32.1,96.4,29z M74.7,21.1
		c-3-0.7-6.1,1.8-7.1,6.6c-1,4.8,0.4,9.9,3.4,10.5c3,0.7,6.4-3.3,7.5-8.2C79.5,25.3,77.7,21.8,74.7,21.1z M57.4,25.7
		c-2.3,1-3.1,4.1-1.4,7.8c1.7,3.6,5.1,6.2,7.3,5.2c2.3-1,2.5-5.3,0.9-8.9C62.5,26,59.7,24.6,57.4,25.7z M49,35.4
		c-1.2,1.4-0.8,3.6,1.3,5.4c2.1,1.8,5,2.4,6.2,1c1.2-1.4,0.1-4.2-2-6C52.5,34.1,50.2,34.1,49,35.4z M102.6,71
		c-1.4,0-2.6,1.1-2.6,2.6c0,1.4,1.1,2.6,2.6,2.6c1.4,0,2.6-1.1,2.6-2.6C105.1,72.2,104,71,102.6,71z M148.8,83.9
		c3.1,0,4.3-1.2,4.3-2.5c0-1.6-1.9-2.4-4.3-2.4c-2.5,0-4.2,0.9-4.2,2.4C144.6,82.6,145.7,83.9,148.8,83.9z M207.9,83.9
		c3.1,0,4.3-1.2,4.3-2.5c0-1.6-1.9-2.4-4.3-2.4c-2.4,0-4.2,0.9-4.2,2.4C203.7,82.6,204.8,83.9,207.9,83.9z M180.5,68.6
		c-1.3,0-2.4,1.1-2.4,2.4c0,1.3,1.1,2.4,2.4,2.4c1.3,0,2.4-1.1,2.4-2.4C182.9,69.7,181.8,68.6,180.5,68.6z M203,89.2
		c-0.4,1.6-2.6,6.3-8,6.4h-0.1c-2.5,0-5-1.2-6.8-3.4c-2.6,1.6-5,2.4-6.8,2.1c-3.8-0.6-5-3.6-5.3-5.6c-2.2,2.6-5.1,3.8-8,4.1
		c1,2,1.5,4.3,1.5,6.5c0,3.4-2,6.8-5.5,6.8c-5,0-8-7-8.3-13.8c-0.9,0.3-2.3,0.6-2.9-0.8c-0.8-1.6,1.2-3.1,2.8-4.1
		c0.3-13.6,6.2-23.2,12.6-23.2c2.2,0,4.8,1.3,4.8,5.3c0,4.1-2.5,9.4-6.4,14.1c-0.5,0.6-1.8,1.9-3.2,3.2c5.6,4,9-0.3,10.4-2.9
		c0.3-0.7,0.6-1.4,0.8-2c0.8-2.3,0.6-1.7,1.3-4c1.1-3.2,2.8-3.1,3.6-2.9c2.8,0.5,1.1,3.6,0.4,6.3l0,0.1c-1.1,4.6-0.6,8.3,2.3,8.9
		c0.9,0.1,2.5-0.4,4.2-1.6c-3.8-9.9,2-21.6,8.1-22.7c2-0.4,4.7,0.4,5.3,3.9c0.7,3.7-0.7,9-3.6,13.9c-0.7,1.1-2.5,3.7-4.8,5.6
		c0,0,0,0,0,0c1.7,2.2,3.8,2.2,3.8,2.2c3.2,0,4.1-2.4,4.5-3.5c0.5-1.2,1.4-1.5,2.3-1.2C203.1,87.3,203.2,88.4,203,89.2z M237.6,98.4
		c-3.4-0.2-6.9-2.7-10-6.2c-5.5,1.3-11.2,1.5-15.1,1.5c-3.3,3.4-6.4,6.2-8.7,7.8c0,0-3,2.3-4.5,0.3c-0.9-1.3-0.4-2.7,1.9-4.2
		c1.5-0.9,3.3-2.4,5.3-4.3c-3.4-0.9-2.5-4.4,0.8-4c0.2,0,1.3,0.2,3,0.3c3.3-3.4,6.6-7.3,9.2-10.9c-1.2-3.1-1.9-6.1-1.9-8.5
		c0-3.1,1.8-6.6,5.4-6.6c3.5,0,5.3,2.9,5.3,5.9c0,2.5-1.6,6-3.9,9.7c1.4,2.9,3.1,5.9,5.1,8.5c2.1-0.7,4.2-1.6,6.2-2.8
		c2.7-1.6,4.9,1.5,2.2,3.4c-1.7,1.1-3.5,1.9-5.5,2.6c2,2,4.2,3.3,6.3,3.5C242,94.6,242.2,98.7,237.6,98.4z M89.6,57.9
		c0-1.8-4.8-5.1-8.2-5.4c0,0.9,0,1.9,0,2.9c-0.1,2.4-0.5,4.8-1.1,7.2C86.5,58.4,89.6,59.5,89.6,57.9z M145,89.6
		c-2.1,0.2-2.5,4.6-6.6,4.8c-2.8,0.1-4.1-3.2-4.1-3.2s7.9-3.5,7.9-10.9c-0.1-2.1-1.3-5.6-5.4-5.6c-1.8,0-3.8,1.1-5,2.3
		c0.4-2,0.8-4.6,1-8.1c0.1-2.3-1.6-2.5-2.2-2.5c-0.5,0-1.9,0.4-2.1,2.4c-0.6,6.9-0.7,8-1.3,12.3c-1.1,8.1-7,10.9-10.9,10.7
		c-1.6-0.1-4.2-0.9-4.2-5.2c0-4.6,3-8,4.7-7.8c1.1,0.1,1.7,1.3,0.7,2.9c-0.8,1.3-1.7,3.2,0.4,4c2.5,0.8,4.4-2.7,4.4-5.9
		c0-2.5-1.6-5.4-5.7-5.6c-4.2-0.2-9.3,5.3-9.3,12.8c0,0.6,0,1.2,0.1,1.8c-0.3,1.7-1.8,3.4-3.3,3.4c-1.6,0-3-2.3-2.8-5.2
		c0.2-3,1.1-5,1.5-6.2c0.8-2.5-0.2-3-1.3-3.2c-0.9-0.2-2.4,0.1-3.2,2.5c-0.7,2.3-1.6,5.3-2.4,7.6c-0.5,1.4-1.1,3-2,4.1
		c-0.7,0.8-1.5,1.3-2.3,1.3c-2.6,0-0.4-5.1-0.4-8.6c0-1-0.8-2.8-3.4-2.3c2.9-4.1,4.3-7.7,4.3-11.3c-0.2-4-3.1-5.1-5.3-5.1
		c-5.9,0.1-9.1,6.6-10.2,21.8c-5.4,5-11.9,8.1-18.1,7.6c-8.8-0.7-13.3-9.3-12.8-19.6C46.4,61.4,57.9,43.9,68.8,45
		c3.8,0.4,6.5,3.7,6.1,11.1c-0.5,8.5-6.6,20.8-13.1,20.4c-3-0.2-3.9-3.2-3.7-5.9c0.5-5.8,3.5-7.4,3.7-9.8c0.1-1.4-1.3-2-2.4-1.7
		c-1.8,0.6-5.4,5-5.8,11.3c-0.5,7.7,4.6,10.1,7.6,10.3c9,0.5,17.7-12,18.4-25.1c0.5-8.5-3.2-14-10.2-14.7
		c-13.6-1.5-28,16.4-28.7,35.1c-0.4,11.2,5,22.9,17.6,23.8c6,0.4,12.3-2,17.8-6.2c0,0.9,0,1.8,0,2.4c0,1.6,0.6,2.9,2.3,2.9
		c1.6-0.1,2.1-1.2,2-2.7c0-0.8,0-1.6,0-2.4c0.4-6.8,3.8-7.8,5.1-7.5c1.9,0.4,0.4,2.1,0.6,7c0.1,3.5,3,4.4,4.3,4.4
		c3.1,0,5.8-2.2,7.4-5.6l0.1,0c1.4,3.4,3.7,4.7,5.6,4.7c2.2,0,4.3-1.6,5.6-3.4c1.8,2.2,4.4,3.2,6.3,3.3c3.9,0.2,7.3-1.6,9.8-4
		c-0.3,1.9-0.6,4.4-0.6,4.8c0,1.1,0.5,1.9,1.6,2c1.8,0.2,3.2-1,3.7-7c0,0,2.6,5.9,8.3,5.9c5.8,0,8.3-5.5,8.3-7.2
		C146.5,90.7,146.4,89.5,145,89.6z M159.9,84.9c5.1-4.8,9.1-11.6,9.1-15.3c0-0.7-0.2-1.3-0.9-1.3C166.5,68.2,161.3,73.3,159.9,84.9z
		 M163.8,92.5c-1.8-0.5-3.2-1.5-4.1-2.5c-0.1,0-0.1,0.1-0.2,0.1c0,0.1,0,0.2,0,0.2c0,6.2,2.2,12,4.7,11.7
		C166.8,101.6,165.6,96.2,163.8,92.5z M189.8,86c4.5-5,6.8-12.4,6.3-15.4c-0.1-0.6-0.4-1.1-1-1C192.9,69.8,188,78.8,189.8,86z
		 M222.3,74.2c1-1.9,1.7-3.5,1.8-4.7c0.1-0.7,0-1.9-1.1-1.9C221.1,67.6,221.1,70.4,222.3,74.2z M224.9,88.7
		c-1.2-1.8-2.4-3.7-3.4-5.6c-1.7,2.2-3.5,4.5-5.4,6.6C218.7,89.6,221.8,89.4,224.9,88.7z M84.9,79.7c-1,1.5-2.3,3.1-3.9,5
		c0.1-0.7,0.2-1.5,0.3-2.1c1.3-9.7,3.2-13,5.7-12.6c0.8,0.2,1.1,1,1.2,1.7C88.2,73.7,87.2,76.3,84.9,79.7z M135.9,78.9
		c1.6,0,2,1.5,1.9,2.4c-0.3,3.6-5.4,6.5-6.7,6.6C131.8,80.5,134.1,79,135.9,78.9z"/>
	<g>
		<path fill="#231F20" d="M233.1,65.4c-1.4,0-2.5,1.1-2.5,2.5c0,1.4,1.1,2.5,2.5,2.5c1.4,0,2.5-1.1,2.5-2.5
			C235.6,66.5,234.5,65.4,233.1,65.4z M233.1,69.9c-1.1,0-2-0.9-2-2c0-1.1,0.9-2,2-2c1.1,0,2,0.9,2,2
			C235.1,69,234.2,69.9,233.1,69.9z"/>
		<path fill="#231F20" d="M233.4,67.7c-0.1,0.1-0.2,0.1-0.4,0.1h-0.3v-0.7h0.2c0.2,0,0.3,0,0.4,0.1c0.1,0.1,0.2,0.2,0.2,0.3
			C233.5,67.5,233.5,67.6,233.4,67.7z M232.7,68.3h0.2l0.2,0c0.1,0,0.2,0,0.2,0c0.1,0,0.2,0.1,0.2,0.2c0,0.1,0,0.2,0,0.3
			c0,0.2,0,0.3,0,0.4h0.7l0-0.1c0,0,0,0,0-0.1c0,0,0,0,0-0.1v-0.2c0-0.3-0.1-0.5-0.2-0.6c-0.1-0.1-0.2-0.1-0.4-0.1
			c0.2,0,0.4-0.1,0.5-0.2c0.1-0.1,0.2-0.3,0.2-0.5c0-0.3-0.1-0.5-0.4-0.6c-0.1-0.1-0.3-0.1-0.5-0.1c0,0-0.2,0-0.6,0
			c-0.3,0-0.6,0-0.8,0v2.6h0.7V68.3z"/>
	</g>
</g>
</svg>
