<?xml version="1.0" encoding="utf-8"?>
<!-- Generator: Adobe Illustrator 18.1.1, SVG Export Plug-In . SVG Version: 6.00 Build 0)  -->
<!DOCTYPE svg PUBLIC "-//W3C//DTD SVG 1.1//EN" "http://www.w3.org/Graphics/SVG/1.1/DTD/svg11.dtd">
<svg version="1.1" id="Layer_1" xmlns="http://www.w3.org/2000/svg" xmlns:xlink="http://www.w3.org/1999/xlink" x="0px" y="0px"
	 viewBox="0 0 2560 1440" enable-background="new 0 0 2560 1440" xml:space="preserve">
<g id="Background">
</g>
<g id="Guides">
</g>
<g id="Foreground">
</g>
<g>
	<path d="M251.4,801.1c-3.7-3.5-9.3-3.5-13.1-0.1C214.1,822.6,190,835,155.1,835c-61.2,0-107.8-50.5-107.8-115v-0.8
		c0-64.1,46.2-114.2,107.8-114.2c34.1,0,58.9,12.9,80.5,31.9c3.9,3.4,9.8,3.3,13.3-0.5l8.5-9.1c3.7-3.9,3.4-10.1-0.5-13.6
		c-26-22.7-55.2-37.7-101.4-37.7c-82,0-140.8,65.3-140.8,144v0.8c0,80,59.3,143.2,139.7,143.2c46.5,0,77.1-16.6,104.4-42
		c3.9-3.7,3.9-9.9,0-13.7L251.4,801.1z"/>
	<path d="M534.6,580.7h-12.4c-5.2,0-9.5,4.3-9.5,9.5v114.2H352V590.3c0-5.2-4.3-9.5-9.5-9.5h-12.4c-5.2,0-9.5,4.3-9.5,9.5v259.5
		c0,5.2,4.3,9.5,9.5,9.5h12.4c5.2,0,9.5-4.3,9.5-9.5V734h160.7v115.8c0,5.2,4.3,9.5,9.5,9.5h12.4c5.2,0,9.5-4.3,9.5-9.5V590.3
		C544.2,585,540,580.7,534.6,580.7z"/>
	<path d="M753.3,576c-84.7,0-142.4,67.2-142.4,144v0.8c0,76.8,56.9,143.2,141.6,143.2s142.4-67.2,142.4-144v-0.8
		C894.8,642.5,838,576,753.3,576z M862.3,720.8c0,63.3-45.3,114.2-109,114.2s-109.8-51.7-109.8-115v-0.8
		c0-63.2,45.4-114.2,109-114.2c63.7,0,109.8,51.7,109.8,115V720.8z"/>
	<path d="M1091.5,576c-84.7,0-142.4,67.2-142.4,144v0.8c0,76.8,56.9,143.2,141.6,143.2s142.4-67.2,142.4-144v-0.8
		C1233.1,642.5,1176.2,576,1091.5,576z M1200.5,720.8c0,63.3-45.3,114.2-109,114.2s-109.8-51.7-109.8-115v-0.8
		c0-63.2,45.3-114.2,109-114.2s109.8,51.7,109.8,115V720.8z"/>
	<path d="M1397.6,704.9c-61.2-13.2-75.6-27.8-75.6-54.2v-0.8c0-25.1,23.1-44.9,59.3-44.9c25.8,0,49.3,7.4,72.7,24.4
		c4.3,3.1,10.2,2.5,13.3-1.7l6.8-9c3.1-4.2,2.3-10.3-1.8-13.4c-26-18.8-53.4-28.5-90.3-28.5c-52.9,0-91.5,32.2-91.5,76v0.8
		c0,45.8,29.4,66.4,93.5,80.4c58.5,12.3,72.3,27,72.3,52.9v0.8c0,27.4-24.7,47.4-62,47.4c-35.4,0-61.7-11-88.2-33
		c-4-3.4-10.1-3-13.4,1l-7.2,8.5c-3.4,4-3,10.2,1.2,13.6c31.3,25.6,65.5,38.2,106.5,38.2c55.3,0,95-31.1,95-78.7v-0.8
		C1488.3,741.2,1459.7,718.4,1397.6,704.9z"/>
	<path d="M1746.2,830.6h-162.4v-97.5h142.5c5.2,0,9.5-4.3,9.5-9.5v-9.7c0-5.2-4.3-9.5-9.5-9.5H1584v-95h160.3c5.2,0,9.5-4.3,9.5-9.5
		v-9.7c0-5.2-4.3-9.5-9.5-9.5h-179.7c-6.7,0-12,5.4-12,12v254.3c0,6.7,5.4,12,12,12h181.7c5.2,0,9.5-4.3,9.5-9.5v-9.3
		C1755.8,834.9,1751.5,830.6,1746.2,830.6z"/>
	<g>
		<path d="M2012.3,798.2l24.3,54.8c3.9,8.9,12.7,14.5,22.3,14.5h12.1c8.4,0,16.1-4.2,20.5-11.2c4.6-7,5.2-15.7,1.7-23.4l-111-245.3
			c-4.2-9.3-13.4-15.3-23.6-15.3h-14.1c-10.2,0-19.4,6-23.6,15.3l-111,245.1c-3.4,7.6-2.9,16.3,1.7,23.4c4.6,7,12.3,11.2,20.5,11.2
			h10.6c9.5,0,18.3-5.6,22.3-14.4l24.7-54.8l25.5-58l35.9-80l35.8,80L2012.3,798.2z"/>
		<path d="M2280.1,574.3H2092c-13.4,0-24.4,11-24.4,24.4v9.4c0,13.4,11,24.4,24.4,24.4h63.6V843c0,13.4,11,24.4,24.4,24.4h12
			c13.4,0,24.4-11,24.4-24.4V632.7h63.6c13.4,0,24.4-11,24.4-24.4v-9.4C2304.5,585.3,2293.6,574.3,2280.1,574.3z"/>
		<path d="M2521,809.2h-123.1V598.9c0-13.4-11-24.4-24.4-24.4h-11.6c-13.4,0-24.4,11-24.4,24.4v243.7c0,13.7,11.2,24.9,24.9,24.9
			h158.7c13.4,0,24.4-11,24.4-24.4v-9.4C2545.4,820.1,2534.4,809.2,2521,809.2z"/>
		<circle fill="#4F4F4F" cx="1951.6" cy="812.3" r="30.2"/>
	</g>
</g>
</svg>
