<?xml version="1.0" encoding="utf-8"?>
<!-- Generator: Adobe Illustrator 18.1.1, SVG Export Plug-In . SVG Version: 6.00 Build 0)  -->
<!DOCTYPE svg PUBLIC "-//W3C//DTD SVG 1.1//EN" "http://www.w3.org/Graphics/SVG/1.1/DTD/svg11.dtd">
<svg version="1.1" id="Layer_1" xmlns="http://www.w3.org/2000/svg" xmlns:xlink="http://www.w3.org/1999/xlink" x="0px" y="0px"
	 viewBox="0 0 2560 1440" enable-background="new 0 0 2560 1440" xml:space="preserve">
<g>
	<g>
		<g>
			<path fill="#231F20" d="M1944.9,1175.1c49.9,2.7,193.3-11.8,207-167.9c-10,11.8-56.3,59.9-156.1,59.9l-4.5-25.4
				c0,0,148,4.5,163.4-108V826.6c0,0-65.4,16.3-85.3,61.7c-19.1,41.8,4.5,96.2,4.5,96.2s-29,0-30.9,0c0,0-25.4-51.7,0.9-108.9
				c28.1-62.6,110.7-76.2,110.7-76.2v-39.9c0,0-101.7,11.8-145.2,98c-30.9,61.7-3.6,127.1-3.6,127.1h-25.4
				c-5.4-39.9-22.7-159.8-23.6-162.5c-2.7-20,3.6-23.6,34.5-42.7l-56.3,10l-28.1,195.2h-23.6c0,0,28.1-65.4-3.6-127.1
				c-43.6-85.3-145.2-98-145.2-98v39.9c0,0,82.6,13.6,110.7,76.2c26.3,57.2,0.9,109.8,0.9,108.9c-1.8,0-30.9,0-30.9,0
				s23.6-54.5,4.5-96.2c-20-45.4-85.3-61.7-85.3-61.7v106.2c15.4,112.6,163.4,108,163.4,108l-4.5,25.4
				c-99.8,0-146.1-48.1-156.1-59.9C1751.5,1163.3,1894.9,1177,1944.9,1175.1z"/>
		</g>
	</g>
	<path fill="#231F20" d="M388.2,531.6V280.2h84.4l39.9,171.6h0.9l41.8-171.6h81.7v251.4H586V337.3h-0.9L537,531.6h-49.9l-46.3-194.2
		h-0.9v194.2H388.2z"/>
	<path fill="#231F20" d="M715.8,451.7c0,20.9,0.9,52.6,22.7,52.6c17.2,0,20.9-16.3,20.9-31.8h49.9c-0.9,19.1-7.3,34.5-19.1,45.4
		c-11.8,10.9-29,17.2-51.7,17.2c-63.5,0-71.7-39-71.7-93.5c0-48.1,7.3-89,71.7-89c66.3,0,73.5,42.7,71.7,99.8h-94.4V451.7z
		 M760.3,424.5c0-17.2,0.9-41.8-22.7-41.8c-22.7,0-22.7,26.3-22.7,41.8H760.3z"/>
	<path fill="#231F20" d="M824.8,355.5h20v-28.1l49-21.8v49.9h25.4v30h-25.4v94.4c0,13.6,0,21.8,15.4,21.8c2.7,0,6.4,0,9.1-0.9v30
		c-6.4,0.9-13.6,1.8-25.4,1.8c-42.7,0-48.1-28.1-48.1-39V384.5h-20L824.8,355.5L824.8,355.5z"/>
	<path fill="#231F20" d="M995.4,355.5v22.7h0.9c9.1-20,25.4-26.3,45.4-26.3v43.6c-43.6-2.7-43.6,22.7-43.6,39.9v96.2h-49V355.5
		H995.4z"/>
	<path fill="#231F20" d="M1060.8,441.7c0-48.1,7.3-89,71.7-89s71.7,40.8,71.7,89c0,55.4-8.2,93.5-71.7,93.5
		S1060.8,497.1,1060.8,441.7z M1155.2,439c0-36.3-1.8-55.4-22.7-55.4c-20.9,0-22.7,18.2-22.7,55.4c0,53.6,4.5,65.4,22.7,65.4
		S1155.2,492.6,1155.2,439z"/>
	<path fill="#231F20" d="M370,852l69.9-252.3h69L577,851.1h-55.4L508,795.7h-71.7l-14.5,55.4H370V852z M471.7,648.7L471.7,648.7
		l-24.5,108.9h49.9L471.7,648.7z"/>
	<path fill="#231F20" d="M580.6,675.9h20v-28.1l49-21.8v49.9H675v30h-25.4v94.4c0,13.6,0,21.8,15.4,21.8c2.7,0,6.4,0,9.1-0.9v30
		c-6.4,0.9-13.6,1.8-25.4,1.8c-42.7,0-48.1-28.1-48.1-39v-108h-20L580.6,675.9L580.6,675.9z"/>
	<path fill="#231F20" d="M757.6,599.7v251.4h-49V599.7H757.6z"/>
	<path fill="#231F20" d="M927.3,818.4c0,10.9,1.8,21.8,2.7,32.7h-45.4l-1.8-23.6h-0.9c-10.9,18.2-24.5,27.2-46.3,27.2
		c-34.5,0-46.3-25.4-46.3-56.3c0-58.1,45.4-60.8,90.8-59.9v-13.6c0-15.4-1.8-25.4-20-25.4c-17.2,0-18.2,12.7-18.2,27.2h-48.1
		c0-20.9,6.4-34.5,18.2-42.7c10.9-8.2,27.2-11.8,46.3-11.8c62.6,0,70.8,27.2,70.8,59v87.1H927.3z M836.6,796.6
		c0,12.7,1.8,28.1,18.2,28.1c29,0,24.5-39,24.5-58.1C854.7,767.6,836.6,765.8,836.6,796.6z"/>
	<path fill="#231F20" d="M1017.2,693.2L1017.2,693.2c10.9-15.4,23.6-20.9,41.8-20.9c23.6,0,43.6,13.6,43.6,38.1V852h-49V730.4
		c0-15.4-2.7-28.1-18.2-28.1c-15.4,0-18.2,11.8-18.2,28.1V852h-49V675.9h49V693.2z"/>
	<path fill="#231F20" d="M1123.4,675.9h20v-28.1l49-21.8v49.9h25.4v30h-25.4v94.4c0,13.6,0,21.8,15.4,21.8c2.7,0,6.4,0,9.1-0.9v30
		c-6.4,0.9-13.6,1.8-25.4,1.8c-42.7,0-48.1-28.1-48.1-39v-108h-20V675.9L1123.4,675.9z"/>
	<path fill="#231F20" d="M1373,818.4c0,10.9,1.8,21.8,2.7,32.7h-45.4l-1.8-23.6h-0.9c-10.9,18.2-24.5,27.2-46.3,27.2
		c-34.5,0-46.3-25.4-46.3-56.3c0-58.1,45.4-60.8,90.8-59.9v-13.6c0-15.4-1.8-25.4-20-25.4c-17.2,0-18.2,12.7-18.2,27.2h-49
		c0-20.9,6.4-34.5,18.2-42.7c10.9-8.2,27.2-11.8,46.3-11.8c62.6,0,70.8,27.2,70.8,59v87.1H1373z M1283.1,796.6
		c0,12.7,1.8,28.1,18.2,28.1c29,0,24.5-39,24.5-58.1C1301.3,767.6,1283.1,765.8,1283.1,796.6z"/>
	<path fill="#231F20" d="M387.3,1045.3c0-66.3,0-129.8,87.1-129.8c53.6,0,75.3,30,73.5,83.5h-51.7c0-33.6-6.4-46.3-21.8-46.3
		c-30,0-33.6,28.1-33.6,92.6c0,64.4,3.6,92.6,33.6,92.6c24.5,0,23.6-31.8,24.5-50.8h51.7c0,67.2-27.2,89-76.2,89
		C387.3,1175.1,387.3,1111.6,387.3,1045.3z"/>
	<path fill="#231F20" d="M666.8,1171.5v-121.6c0-15.4-2.7-28.1-18.2-28.1s-18.2,11.8-18.2,28.1v121.6h-49V919.2h49v93.5l0,0
		c10-15.4,22.7-20.9,41.8-20.9c23.6,0,43.6,13.6,43.6,38.1v141.6L666.8,1171.5L666.8,1171.5z"/>
	<path fill="#231F20" d="M889.2,1138.8c0,10.9,1.8,21.8,2.7,32.7h-45.4l-1.8-23.6h-0.9c-10.9,18.2-24.5,27.2-46.3,27.2
		c-34.5,0-46.3-25.4-46.3-56.3c0-58.1,45.4-60.8,90.8-59.9v-13.6c0-15.4-1.8-25.4-20-25.4c-17.2,0-18.2,12.7-18.2,27.2h-48.1
		c0-20.9,6.4-34.5,18.2-42.7c10.9-8.2,27.2-11.8,46.3-11.8c62.6,0,70.8,27.2,70.8,59v87.1H889.2z M798.4,1116.1
		c0,12.7,1.8,28.1,18.2,28.1c29,0,24.5-39,24.5-58.1C816.6,1087.1,798.4,1085.3,798.4,1116.1z"/>
	<path fill="#231F20" d="M975.4,1012.7L975.4,1012.7c10.9-15.4,23.6-20.9,41.8-20.9c17.2,0,31.8,8.2,39,22.7
		c11.8-15.4,25.4-22.7,45.4-22.7c23.6,0,43.6,13.6,43.6,38.1v141.6h-49v-121.6c0-15.4-2.7-28.1-18.2-28.1s-18.2,11.8-18.2,28.1
		v121.6h-48.1v-121.6c0-15.4-2.7-28.1-18.2-28.1c-15.4,0-18.2,11.8-18.2,28.1v121.6h-49V995.4h49V1012.7z"/>
	<path fill="#231F20" d="M1181.5,919.2h49v92.6h0.9c10-15.4,22.7-20,39.9-20c49.9,0,48.1,54.5,48.1,90.8c0,36.3,1.8,92.6-49,92.6
		c-19.1,0-32.7-6.4-41.8-22.7h-0.9v20h-46.3V919.2z M1271.3,1081.6c0-35.4,0-59.9-20.9-59.9c-20,0-20,24.5-20,59.9
		c0,44.5,2.7,62.6,20,62.6C1268.6,1144.3,1271.3,1126.1,1271.3,1081.6z"/>
	<path fill="#231F20" d="M1393.9,1090.7c0,20.9,0.9,52.6,22.7,52.6c17.2,0,20.9-16.3,20.9-31.8h49.9c-0.9,19.1-7.3,34.5-19.1,45.4
		c-11.8,10.9-29,17.2-51.7,17.2c-63.5,0-71.7-39-71.7-93.5c0-48.1,7.3-89,71.7-89c66.3,0,73.5,42.7,71.7,99.8h-94.4V1090.7z
		 M1438.4,1063.5c0-17.2,0.9-41.8-22.7-41.8c-22.7,0-22.7,26.3-22.7,41.8H1438.4z"/>
	<path fill="#231F20" d="M1561.8,995.4v22.7h0.9c9.1-20,25.4-26.3,45.4-26.3v43.6c-43.6-2.7-43.6,22.7-43.6,39.9v96.2h-49V995.4
		H1561.8z"/>
</g>
</svg>
