<?xml version="1.0" encoding="utf-8"?>
<!-- Generator: Adobe Illustrator 18.1.1, SVG Export Plug-In . SVG Version: 6.00 Build 0)  -->
<!DOCTYPE svg PUBLIC "-//W3C//DTD SVG 1.1//EN" "http://www.w3.org/Graphics/SVG/1.1/DTD/svg11.dtd">
<svg version="1.1" id="Layer_1" xmlns="http://www.w3.org/2000/svg" xmlns:xlink="http://www.w3.org/1999/xlink" x="0px" y="0px"
	 viewBox="0 0 2560 1440" enable-background="new 0 0 2560 1440" xml:space="preserve">
<g id="Background">
</g>
<g id="Guides">
</g>
<g id="Foreground">
</g>
<g id="Layer_1_1_">
	<g>
		<path fill="#161616" d="M227.1,647.4c15.8,17.8,70.6,78.5,126.7,139.2c51.5,55.4,121.4,126.7,126.7,132c25.7,25.7,31.7,31,35.6,31
			c3.3,0,4.6-2.6,4.6-34.3l0.7-285c0-29,2-39.6,17.8-43.5c5.9-1.3,9.2-1.3,11.9-1.3c3.3,0,5.3-1.3,5.3-3.3c0-2.6-3.3-3.3-8.6-3.3
			c-19.8,0-36.3,1.3-41.6,1.3s-28.4-1.3-50.8-1.3c-5.9,0-9.9,0.7-9.9,3.3c0,2,0.7,3.3,4,3.3c4,0,15.2,0.7,23.8,2.6
			c15.2,4,18.5,14.5,19.1,46.2l5.3,246.8c-15.8-15.8-68.6-75.2-116.8-126.7C306.2,673.8,233.7,596,226.4,587.4
			c-4.6-4.6-13.2-15.8-17.2-15.8c-4,0-5.3,5.3-5.3,24.4l-0.7,278.4c0,44.2-2.6,58.1-14.5,62C181.5,939,173,939,169,939
			c-2.6,0-4,0.7-4,2.6c0,3.3,2.6,4,7.9,4c21.8,0,42.2-1.3,46.8-1.3s23.8,1.3,51.5,1.3c5.9,0,8.6-0.7,8.6-4c0-2-1.3-2.6-4-2.6
			c-4.6,0-15.2-0.7-24.4-2.6c-13.2-4-17.8-16.5-19.1-56.1L227.1,647.4z"/>
		<path fill="#161616" d="M679,651.4l-80.5,242.1c-4.6,11.9-6.6,23.8-6.6,32.3c0,9.9,9.9,13.9,18.5,13.9h4.6c3.3,0,4.6,0.7,4.6,2.6
			c0,2.6-2.6,4-7.3,4c-11.9,0-32.3-1.3-37.6-1.3s-32.3,1.3-54.8,1.3c-6.6,0-9.2-0.7-9.2-4c0-2,2-2.6,4.6-2.6c3.3,0,9.9-0.7,13.9-0.7
			c22.4-2.6,32.3-21.1,40.9-45.5L680.3,592c5.9-15.8,7.9-19.1,10.6-19.1c2.6,0,4.6,2.6,10.6,17.8c7.3,18.5,83.8,219,113.5,292.9
			c17.8,43.5,31.7,50.8,41.6,54.1c7.3,2.6,14.5,2.6,19.1,2.6c2.6,0,4.6,0.7,4.6,2.6c0,2.6-4.6,4-9.9,4c-7.3,0-42.9,0-76.5-0.7
			c-9.2-0.7-14.5-0.7-14.5-3.3c0-2,1.3-2.6,3.3-3.3c2.6-0.7,5.9-5.3,2.6-13.2l-99-275.1C683.6,644.1,681.7,644.1,679,651.4z"/>
		<path fill="#161616" d="M920.5,720c0-75.9,0-89.7,0.7-104.9c0.7-17.2,4.6-25.1,17.8-27.7c5.9-0.7,8.6-1.3,11.9-1.3
			c2,0,4-0.7,4-2.6c0-2.6-2.6-4-7.9-4c-14.5,0-45.5,1.3-47.5,1.3c-2,0-33-1.3-48.8-1.3c-5.3,0-7.9,0.7-7.9,4c0,2,2,2.6,4,2.6
			c3.3,0,9.9,0.7,15.2,2c10.6,2.6,15.8,10.6,16.5,27.1c0.7,15.8,0.7,29,0.7,104.9v85.8c0,46.8,0,85.1-2.6,105.6
			c-2,13.9-4.6,25.1-13.9,27.1c-4.6,0.7-9.9,2-14.5,2c-2.6,0-4,1.3-4,2.6c0,2.6,2.6,4,7.9,4c14.5,0,45.5-1.3,47.5-1.3s33,1.3,60,1.3
			c5.3,0,7.9-1.3,7.9-4c0-1.3-0.7-2.6-4-2.6c-4.6,0-15.2-0.7-21.8-2c-14.5-2-17.8-12.5-19.1-27.1c-2.6-20.5-2.6-58.7-2.6-105.6V720
			H920.5z"/>
		<path fill="#161616" d="M1056.4,953.6c26.4,0,52.8-5.9,73.2-20.5c33.6-23.8,41.6-60.7,41.6-80.5c0-38.9-13.9-69.3-71.3-114.1
			l-13.9-10.6c-45.5-37.6-59.4-54.1-59.4-81.8c0-35.6,26.4-56.1,60-56.1c44.9,0,58.1,20.5,60.7,25.7c2.6,5.3,5.9,18.5,6.6,24.4
			c0.7,4,0.7,6.6,4,6.6c2.6,0,3.3-3.3,3.3-11.2c0-33,2-48.8,2-51.5c0-2.6-0.7-3.3-4.6-3.3c-4,0-7.9-0.7-17.2-2.6
			c-11.9-2.6-26.4-4.6-45.5-4.6c-62,0-100.3,35.6-100.3,87.8c0,33,11.9,63.3,63.3,105.6l21.8,17.8c41.6,34.3,56.1,54.1,56.1,87.8
			c0,31-23.1,64.7-69.3,64.7c-32.3,0-64.7-13.9-71.9-49.5c-1.3-6.6-1.3-13.9-1.3-17.8s-0.7-5.3-3.3-5.3c-2.6,0-3.3,2.6-4,7.9
			c-0.7,7.9-2.6,27.1-2.6,51.5c0,13.2,0.7,15.2,7.3,18.5C1011.5,950.3,1033.3,953.6,1056.4,953.6z"/>
		<path fill="#161616" d="M1553.9,585.4c-0.7-9.2-2.6-13.2-5.9-13.2c-3.3,0-5.3,3.3-7.3,7.9l-143.2,305.5l-148.5-306.1
			c-2.6-5.3-4.6-7.3-7.3-7.3c-2.6,0-4.6,3.3-5.3,8.6l-35,316.7c-2,18.5-3.3,37.6-19.1,40.2c-7.3,1.3-10.6,1.3-14.5,1.3
			c-2.6,0-4.6,0.7-4.6,2.6c0,3.3,3.3,4.6,8.6,4.6c13.2,0,36.3-1.3,40.9-1.3c4,0,27.1,1.3,45.5,1.3c5.9,0,8.6-0.7,8.6-4.6
			c0-1.3-2-2.6-4-2.6c-2.6,0-9.9-0.7-18.5-2.6c-7.3-1.3-12.5-7.9-12.5-15.2c0-8.6,0-17.2,0.7-25.1l19.1-225.6h2
			c5.3,13.2,60,130,64,138.6c2.6,4.6,44.2,89.1,56.7,112.8c9.2,17.8,11.9,22.4,15.2,22.4c4.6,0,5.9-4.6,15.8-25.7l118.8-252.7h1.3
			l23.1,250.7c0.7,8.6,0.7,17.2-2,17.8s-3.3,1.3-3.3,3.3c0,2.6,2.6,4,13.9,4.6c17.8,1.3,70.6,2.6,81.2,2.6c5.9,0,9.9-1.3,9.9-4.6
			c0-2-1.3-2.6-4-2.6c-4.6,0-17.8,0-31.7-4.6c-21.1-6.6-24.4-34.3-26.4-51.5L1553.9,585.4z"/>
		<path fill="#161616" d="M1898.3,599.9l61.4,0.7c46.8,0.7,58.1,11.9,60,27.1l0.7,5.3c0.7,6.6,1.3,8.6,4,8.6c2,0,3.3-2,3.3-6.6
			c0-5.3,1.3-38.9,1.3-53.4c0-2.6,0-5.9-2.6-5.9c-4,0-17.2,4.6-48.2,4.6H1796c-5.9,0-24.4-0.7-38.3-2.6c-13.2-0.7-17.8-5.9-21.1-5.9
			c-2,0-4,6.6-4.6,9.2c-0.7,4-10.6,45.5-10.6,50.8c0,2.6,0.7,4.6,2.6,4.6s3.3-0.7,4.6-4.6c1.3-3.3,2.6-6.6,8.6-15.2
			c7.9-11.9,19.1-15.2,49.5-15.8l71.9-0.7v205.9c0,46.8,0,85.1-2.6,105.6c-2,13.9-4.6,25.1-13.9,27.1c-4.6,0.7-9.9,2-14.5,2
			c-2.6,0-4,1.3-4,2.6c0,2.6,2.6,4,7.9,4c14.5,0,45.5-1.3,47.5-1.3s33,1.3,60,1.3c5.3,0,7.9-1.3,7.9-4c0-1.3-0.7-2.6-4-2.6
			c-4.6,0-15.2-0.7-21.8-2c-14.5-2-17.8-12.5-19.1-27.1c-2.6-20.5-2.6-58.7-2.6-105.6V599.9H1898.3z"/>
		<path fill="#161616" d="M2352.9,720c0-75.9,0-89.7,0.7-104.9c0.7-17.2,4.6-25.1,17.8-27.7c5.9-0.7,8.6-1.3,11.9-1.3
			c2,0,4-0.7,4-2.6c0-2.6-2.6-4-7.9-4c-14.5,0-45.5,1.3-47.5,1.3c-2.6,0-33-1.3-54.8-1.3c-5.3,0-7.9,0.7-7.9,4c0,2,2,2.6,4,2.6
			c4.6,0,12.5,0.7,16.5,1.3c15.8,3.3,19.8,11.2,21.1,27.7c0.7,15.8,0.7,29,0.7,104.9v10.6c0,2.6-1.3,2.6-2.6,2.6h-205.9
			c-1.3,0-2.6-0.7-2.6-2.6v-9.9c0-75.9,0-89.7,0.7-104.9c0.7-17.2,4.6-25.1,17.8-27.7c5.9-0.7,8.6-1.3,11.9-1.3c2,0,4-0.7,4-2.6
			c0-2.6-2.6-4-7.9-4c-14.5,0-45.5,1.3-47.5,1.3s-33-1.3-54.8-1.3c-5.3,0-7.9,0.7-7.9,4c0,2,2,2.6,4,2.6c4.6,0,12.5,0.7,16.5,1.3
			c15.8,3.3,19.8,11.2,21.1,27.7c0.7,15.8,0.7,29,0.7,104.9v85.8c0,46.8,0,85.1-2.6,105.6c-2,13.9-4.6,25.1-13.9,27.1
			c-4.6,0.7-9.9,2-14.5,2c-2.6,0-4,1.3-4,2.6c0,2.6,2.6,4,7.9,4c14.5,0,45.5-1.3,47.5-1.3s33,1.3,60,1.3c5.3,0,7.9-1.3,7.9-4
			c0-1.3-0.7-2.6-4-2.6c-4.6,0-15.2-0.7-21.8-2c-14.5-2-17.8-12.5-19.1-27.1c-2.6-20.5-2.6-58.7-2.6-105.6v-50.8
			c0-2.6,1.3-2.6,2.6-2.6H2308c1.3,0,2.6,0.7,2.6,2.6v50.8c0,46.8,0,85.1-2.6,105.6c-2,13.9-4.6,25.1-13.9,27.1
			c-4.6,0.7-9.9,2-14.5,2c-2.6,0-4,1.3-4,2.6c0,2.6,2.6,4,7.9,4c14.5,0,45.5-1.3,47.5-1.3c2.6,0,33,1.3,60,1.3c5.3,0,7.9-1.3,7.9-4
			c0-1.3-0.7-2.6-4-2.6c-4.6,0-15.2-0.7-21.8-2c-14.5-2-17.8-12.5-19.1-27.1c-2.6-20.5-2.6-58.7-2.6-105.6V720H2352.9z"/>
		<g>
			<path fill="#161616" d="M1786.8,997.1h20.5l49.5,94.3h-28.4l-9.9-19.8h-44.2l-9.2,19.8h-27.7L1786.8,997.1z M1796,1024.8
				l-13.9,29h27.7L1796,1024.8z"/>
			<path fill="#161616" d="M1848.1,997.1h27.1l17.8,60.7l0,0l23.8-60.7h23.1l23.8,62l0,0l19.1-62h25.1l-33,94.3h-22.4l-25.1-65.3
				l0,0l-25.1,65.3h-21.8L1848.1,997.1z"/>
			<path fill="#161616" d="M2049.4,997.1h20.5l49.5,94.3h-28.4l-9.9-19.8h-44.2l-9.2,19.8h-27.7L2049.4,997.1z M2059.3,1024.8
				l-13.9,29h27.7L2059.3,1024.8z"/>
			<path fill="#161616" d="M2122.6,997.1h43.5c23.1,0,42.9,6.6,42.9,28.4c0,13.2-8.6,23.8-24.4,25.7l29,39.6H2184l-23.8-37.6h-12.5
				v37.6h-25.1V997.1z M2147.7,1036h14.5c9.2,0,21.1,0,21.1-10.6c0-9.2-10.6-11.2-19.1-11.2h-16.5L2147.7,1036L2147.7,1036z"/>
			<path fill="#161616" d="M2218.9,997.1h37.6c36.3,0,67.3,13.2,67.3,47.5c0,30.3-29.7,46.8-64,46.8h-40.9V997.1z M2244,1072.3h13.2
				c23.1,0,40.9-7.3,40.9-29c0-18.5-17.8-27.1-38.9-27.1h-14.5v56.1H2244z"/>
			<path fill="#161616" d="M2388.5,1020.2c-4-4-11.9-5.9-17.8-5.9c-7.3,0-16.5,2.6-16.5,9.9c0,17.2,52.1,5.9,52.1,38.9
				c0,21.1-20.5,31-43.5,31c-14.5,0-27.1-3.3-38.3-11.9l17.8-16.5c5.3,5.3,13.2,9.2,21.8,9.2c7.9,0,17.2-3.3,17.2-9.9
				c0-17.2-53.4-7.9-53.4-39.6c0-20.5,21.1-30.3,42.9-30.3c12.5,0,25.1,2.6,35,9.9L2388.5,1020.2z"/>
		</g>
		<path fill="#161616" d="M1287.3,725.3C1078.8,844,757.5,883,570.2,811.1c-20.5-7.9-38.9-16.5-54.1-26.4
			c210.5,74.6,560.8,31,790.4-99.6c60-34.3,105.6-70.6,137.2-108.2C1421.3,627,1368.5,679.1,1287.3,725.3z"/>
		<path fill="#161616" d="M1287.3,725.3C1078.8,844,757.5,883,570.2,811.1c-20.5-7.9-38.9-16.5-54.1-26.4
			c210.5,74.6,560.8,31,790.4-99.6c60-34.3,105.6-70.6,137.2-108.2C1421.3,627,1368.5,679.1,1287.3,725.3z"/>
		<path fill="#161616" d="M1782.8,652.7c-2-17.2-5.3-50.1-5.3-52.1c0-2,4-21.1,4-23.1c0.7-20.5-25.7-73.9-28.4-77.9
			c-4-5.3-6.6-13.9-13.9-15.8c-12.5-3.3-21.1-18.5-32.3-29.7c-4-4-10.6-7.9-14.5-13.2s-7.9-15.2-7.9-17.2c0-2,4.6-21.1,4.6-22.4
			c0-2,4.6-16.5,7.3-25.1c-1.3,0,0-7.9,1.3-7.9v-2.6c0-7.3-9.9-21.8-13.9-23.8c-3.3-2-9.9-2-11.9-2c-2,0-8.6-0.7-11.9,1.3
			c-5.3,3.3-27.1,15.2-27.1,28.4c0,2,0.7,4,2,6.6c-0.7,0.7-1.3,1.3-2.6,2l-0.7,14.5c0,2,2.6,7.3,3.3,11.2c2.6,11.9,4,26.4,8.6,39.6
			c-2.6,0.7-7.3,1.3-9.9,4c-5.3,4.6-8.6,13.2-16.5,19.1c-8.6,7.3-19.1,12.5-28.4,17.8c-5.9,3.3-11.2,9.2-17.2,9.9
			c-0.7,0.7-2,1.3-2.6,2c-5.3,0.7-13.9,2-15.8,2s-29.7-5.3-31.7-5.3s-12.5,1.3-14.5,1.3c-6.6,0-16.5-8.6-21.1-9.2
			c-4.6-0.7-9.2-0.7-13.9-0.7c-2-2-5.9-5.3-7.9-5.3h-4c0.7,2-2.6,0.7-1.3,0c-9.9,1.3-21.1,5.3-31,11.2c-4,2.6-13.9,19.8-13.9,25.1
			c0,2,2.6,9.9,2.6,14.5c2.6,26.4,16.5,42.9,36.9,43.5c8.6,0,13.2-2,23.8-5.3c10.6,9.9,21.8,11.2,32.3,15.8c4,2,9.9,5.3,15.2,6.6
			c4,1.3,7.9,0,11.9,0c4.6,0,10.6,2,15.8,3.3c9.9,2,19.8,5.9,29,9.2c17.8,6.6,15.2,8.6,29.7,9.2c5.9,0,13.2-0.7,19.1-4.6
			c16.5-10.6,27.1-21.1,44.2-36.9c1.3-1.3,4-2,5.9-2s4,1.3,4.6,2.6c1.3,1.3,15.2,39.6,15.2,48.8c0,2-7.9,6.6-10.6,10.6
			c-1.3,2-2.6,4.6-4,6.6c-6.6,10.6-13.2,24.4-16.5,36.9c-4,13.2-12.5,27.7-16.5,41.6c-5.3,18.5-7.3,37.6-9.9,56.7
			c-2,13.9-0.7,18.5-2.6,29.7c-1.3,9.9-2.6,18.5-6.6,26.4c-0.7,0.7-2,2.6-2,4.6c0,2-0.7,4-1.3,7.3c-0.7,11.2-1.3,13.9-1.3,15.8
			s2,7.3,3.3,20.5c1.3,17.8,2.6,29,2.6,31c0,1.3,2,7.3,2,7.3s-0.7,0.7-1.3,0.7c0,5.3-0.7,12.5-0.7,14.5c0,2,2,4,2,6.6
			c-0.7,10.6-7.3,24.4-1.3,35.6c2.6,5.9,4.6,11.9,9.2,13.9c2.6,0.7,5.9,2,8.6,2.6c6.6,2,7.3,0.7,9.2,0.7c3.3,0,11.2-2.6,11.2-4.6
			c0-2-3.3-18.5-3.3-20.5l0,0l-7.9-15.2c0,0,0,0,0-0.7c-2.6-4.6-2.6-7.9-5.3-12.5c-1.3-2-0.7-3.3-0.7-5.9c0.7-2,2-12.5,0-18.5
			c-0.7,0-2,0-3.3,0c0.7-1.3,2.6-1.3,4-2c0-4,2-7.3,2.6-17.8l11.2-50.8c-0.7-6.6-2.6-17.2-2.6-19.1s2-13.2,4-19.1
			c2.6-6.6,6.6-11.9,7.9-17.8c2.6-9.9,7.3-21.8,10.6-31.7c6.6-19.8,23.1-38.3,32.3-58.1c2,0.7,3.3,0.7,4.6,1.3
			c-0.7,48.2-5.3,55.4-5.9,57.4c-0.7,3.3-2.6,15.2-3.3,17.2c-0.7,10.6-1.3,13.2-3.3,27.7c-0.7,3.3-4,7.3-4,9.2
			c0,5.3-9.9,35-9.9,38.3c0,2-3.3,32.3-4.6,48.8c-0.7,16.5,0,48.8,0,50.8c-0.7,15.2-5.9,37.6-9.2,50.8c-0.7,2.6-2.6,5.3-2.6,7.9
			c-0.7,0.7-1.3,0.7-2,1.3c0,3.3-0.7,7.3-0.7,11.2c1.3,5.9,6.6,10.6,9.9,13.2c0,0,0.7,0,0.7-0.7c5.3-1.3,17.2,0.7,22.4-1.3
			c3.3-1.3,9.9-9.2,9.9-12.5c0-2-0.7-2.6,0-19.1c-1.3-5.9-5.9-15.2-5.9-17.2l1.3-28.4c0-2,11.9-49.5,15.2-65.3c2-7.9,4-31,7.9-39.6
			c1.3-2.6,2.6-24.4,4.6-26.4c7.3-10.6,27.1-73.9,27.1-89.7c0-2,4-16.5,5.3-25.1c0.7-3.3,0.7-7.3,1.3-10.6L1782.8,652.7z
			 M1645.6,541.9c-9.2,6.6-15.2,15.8-23.8,24.4c-2.6,2.6-7.3,4-9.2,4l-25.7-0.7c-2,0-4.6,1.3-7.3,2c-3.3,0-7.3,0-9.2,0
			c-14.5-0.7-15.2-2.6-32.3-9.9c4.6,5.9-39.6-7.9-36.9-6.6c-2.6,1.3-4.6,0.7-4,0.7c0.7-9.2,0-11.9,0.7-13.2c2,2,1.3-2,1.3-2
			c0-2,0-4.6,0.7-7.3c0,0,3.3-0.7,2-2c0-3.3-0.7-6.6-0.7-8.6v-5.9h4c2,0,22.4,4.6,32.3,8.6c4.6,1.3,10.6,5.9,12.5,5.9l11.9,0.7
			c2,0,12.5-5.3,18.5-7.3c9.9-4,20.5-8.6,30.3-14.5c7.3-4.6,19.1-12.5,23.8-21.8c1.3,0,4-2,5.9-1.3c2,0,7.3,2,9.9,4
			c1.3,1.3,14.5,20.5,14.5,25.1c0,2,0.7,5.9,0.7,7.9C1664.7,527.3,1646.3,541.2,1645.6,541.9z"/>
	</g>
</g>
</svg>
