<?xml version="1.0" encoding="utf-8"?>
<!-- Generator: Adobe Illustrator 18.1.1, SVG Export Plug-In . SVG Version: 6.00 Build 0)  -->
<!DOCTYPE svg PUBLIC "-//W3C//DTD SVG 1.1//EN" "http://www.w3.org/Graphics/SVG/1.1/DTD/svg11.dtd">
<svg version="1.1" id="Layer_1" xmlns="http://www.w3.org/2000/svg" xmlns:xlink="http://www.w3.org/1999/xlink" x="0px" y="0px"
	 viewBox="0 0 2560 1440" enable-background="new 0 0 2560 1440" xml:space="preserve">
<g id="Background">
</g>
<g id="Guides">
</g>
<g id="Foreground">
</g>
<g>
	<g>
		<path fill="#676767" d="M359.5,679.3h-89.4v-82h278.2v82h-89.4v238.5h-99.4V679.3L359.5,679.3z"/>
		<path fill="#676767" d="M563.2,597.4h270.7v82H662.5v39.8h171.4v77.1H662.5v39.8h171.4v82H563.2V597.4z"/>
		<path fill="#676767" d="M851.3,597.4h161.5c106.8,0,144.1,79.5,144.1,158.9c0,99.4-52.1,161.5-164,161.5H848.8V597.4H851.3z
			 M950.8,835.8h39.8c62,0,69.6-49.7,69.6-79.5c0-19.8-7.5-77.1-77.1-77.1h-32.3L950.8,835.8L950.8,835.8z"/>
	</g>
	<g>
		<g>
			<path fill="#676767" d="M1300.9,793.6l-29.8-49.7l-29.8,49.7h-72.1l69.6-101.9l-67.1-96.9h72.1l27.3,47.2l27.3-47.2h72.1
				l-67.1,96.9l69.6,101.9H1300.9z"/>
		</g>
	</g>
</g>
<g enable-background="new    ">
	<path fill="#383838" d="M1470.3,598.6l91.9,272.5l90.9-272.5h48.5l-116.7,319.9h-46l-116.5-319.9H1470.3z"/>
	<path fill="#383838" d="M1829.4,777.4c9-1.2,15-5,18.1-11.3c1.7-3.5,2.5-8.6,2.5-15.1c0-13.4-4.7-23.2-14.2-29.2
		c-9.5-6-23.1-9.1-40.7-9.1c-20.4,0-35,5.5-43.4,16.6c-4.8,6.2-7.9,15.3-9.4,27.3h-36.6c0.7-28.8,10.1-48.9,28-60.2
		c18-11.3,38.7-16.9,62.3-16.9c27.5,0,49.7,5.2,66.7,15.7c17,10.5,25.5,26.7,25.5,48.8v134.4c0,4,0.8,7.4,2.5,9.8
		c1.6,2.4,5.2,3.8,10.6,3.8c1.7,0,3.8-0.1,5.9-0.3c2.1-0.3,4.6-0.5,7-0.9v28.9c-6.2,1.7-10.7,2.8-13.9,3.2
		c-3.2,0.4-7.5,0.7-13.1,0.7c-13.5,0-23.3-4.8-29.3-14.3c-3.2-5.1-5.5-12.3-6.7-21.6c-8,10.5-19.4,19.6-34.4,27.2
		c-15,7.6-31.5,11.5-49.5,11.5c-21.6,0-39.3-6.6-53.1-19.7c-13.7-13.1-20.6-29.5-20.6-49.3c0-21.6,6.7-38.3,20.2-50.3
		s31.2-19.2,53.2-22L1829.4,777.4z M1746.8,883.2c8.3,6.6,18.1,9.8,29.3,9.8c13.8,0,27.2-3.2,40.1-9.5c21.8-10.6,32.7-27.9,32.7-52
		V800c-4.8,3.1-11,5.6-18.5,7.6c-7.5,2-14.9,3.5-22.1,4.4l-23.7,3.1c-14.2,1.9-24.9,4.8-32,9c-12.1,6.8-18.2,17.7-18.2,32.6
		C1734.3,867.8,1738.5,876.7,1746.8,883.2z"/>
	<path fill="#383838" d="M1952.4,598.6h39.8v44.5h-39.8V598.6z M1952.4,686.4h39.8v232.1h-39.8V686.4z"/>
	<path fill="#383838" d="M2052.6,598.6h39.3v319.9h-39.3V598.6z"/>
</g>
</svg>
