<?xml version="1.0" encoding="utf-8"?>
<!-- Generator: Adobe Illustrator 18.1.1, SVG Export Plug-In . SVG Version: 6.00 Build 0)  -->
<!DOCTYPE svg PUBLIC "-//W3C//DTD SVG 1.1//EN" "http://www.w3.org/Graphics/SVG/1.1/DTD/svg11.dtd">
<svg version="1.1" id="Layer_1" xmlns="http://www.w3.org/2000/svg" xmlns:xlink="http://www.w3.org/1999/xlink" x="0px" y="0px"
	 viewBox="0 0 40 40" enable-background="new 0 0 40 40" xml:space="preserve">
<g>
	<g>
		<path d="M27,12.4c-1.5-2.5-4.1-4.3-7.2-4.8C14.3,6.8,9.7,11,8.3,16.7c-1.7,7.2,0.2,9.7,3.7,9.8c0.6-0.6,1.4-1,2.3-1.3L27,12.4z
			 M16.8,11.9c0.2-1.4,1.4-2.3,2.8-2.1c1.4,0.2,2.3,1.4,2.1,2.8s-1.4,2.3-2.8,2.1C17.5,14.5,16.6,13.3,16.8,11.9z M11.6,14.6
			c0.1-1,1.1-1.7,2.1-1.6c1,0.1,1.7,1.1,1.6,2.1c-0.1,1-1.1,1.7-2.1,1.6C12.2,16.5,11.5,15.6,11.6,14.6z M12.1,22.9
			c-1-0.1-1.7-1.1-1.6-2.1c0.1-1,1.1-1.7,2.1-1.6c1,0.1,1.7,1.1,1.6,2.1C14.1,22.3,13.1,23,12.1,22.9z"/>
		<path d="M22.7,24.2l0.3-0.3l9.4-12.2c0-0.2-0.1-0.5-0.5-0.8c-0.7-0.6-1.2-0.3-1.2-0.3L19.8,21.1l-0.3,0.3L22.7,24.2z"/>
		<path d="M18.9,28.4l0.3-0.3l2.9-3.3L18.9,22L16,25.2l-0.3,0.3L18.9,28.4z M17.2,25.1l1.5-1.7c0.1-0.2,0.4-0.2,0.5,0l0.2,0.2
			c0.1,0.1,0.1,0.2,0.1,0.3c0,0.1,0,0.2-0.1,0.3l-1.5,1.7c-0.1,0.2-0.4,0.2-0.5,0l-0.2-0.2c-0.1-0.1-0.1-0.2-0.1-0.3
			C17.1,25.2,17.1,25.1,17.2,25.1z"/>
		<path d="M18,29.3L18,29.3c0,0,0.2-0.3,0.2-0.3l-3-2.7c-0.1,0-0.1,0-0.2,0c0,0,0,0,0,0c-2.4,0.6-4.8,3.1-2.4,6
			c0.1,0.1,0.3,0.2,0.5,0.1s0.3-0.2,0.3-0.3c0.1-0.4,0.2-0.8,0.5-1.1C14.7,30.3,16.7,31.5,18,29.3z M15.1,30c-0.6,0-1.2,0-1.7,0.5
			c-0.1,0.1-0.2,0.2-0.2,0.3c-0.1,0.1-0.2,0.2-0.4,0.1c-0.1,0-0.2-0.1-0.3-0.3c-0.1-0.4-0.2-0.9,0-1.3c0.1-0.3,0.2-0.5,0.4-0.7
			c0.6,0.7,1.1,1,2.1,0.9c0.6-0.1,1.2,0,1.7,0.1C16.2,29.9,15.7,30,15.1,30z"/>
	</g>
</g>
</svg>
