<?xml version="1.0" encoding="utf-8"?>
<!-- Generator: Adobe Illustrator 18.1.1, SVG Export Plug-In . SVG Version: 6.00 Build 0)  -->
<!DOCTYPE svg PUBLIC "-//W3C//DTD SVG 1.1//EN" "http://www.w3.org/Graphics/SVG/1.1/DTD/svg11.dtd">
<svg version="1.1" id="Layer_1" xmlns="http://www.w3.org/2000/svg" xmlns:xlink="http://www.w3.org/1999/xlink" x="0px" y="0px"
	 viewBox="0 0 40 40" enable-background="new 0 0 40 40" xml:space="preserve">
<g>
	<g>
		<path d="M20.7,7.7C13.9,7.7,8.3,13.2,8.3,20s5.5,12.3,12.3,12.3S33,26.8,33,20S27.5,7.7,20.7,7.7z M24.1,17.1
			c0.7,0,1.3,0.8,1.5,1.9c0,0.2,0,0.4-0.1,0.6c-0.1,0.2-0.3,0.3-0.5,0.3h-1.6c-0.2,0-0.4-0.1-0.5-0.3c-0.1-0.2-0.2-0.4-0.1-0.6
			C22.8,17.9,23.4,17.1,24.1,17.1z M17.2,17.1c0.7,0,1.3,0.8,1.5,1.9c0,0.2,0,0.4-0.1,0.6c-0.1,0.2-0.3,0.3-0.5,0.3h-1.6
			c-0.2,0-0.4-0.1-0.5-0.3c-0.1-0.2-0.2-0.4-0.1-0.6C16,17.9,16.6,17.1,17.2,17.1z M20.7,27.9c-3.2,0-6-1.7-7.5-4.3
			c-0.1-0.2-0.1-0.5,0-0.7c0.1-0.2,0.3-0.3,0.6-0.3h13.9c0.2,0,0.5,0.1,0.6,0.3c0.1,0.2,0.1,0.5,0,0.7
			C26.7,26.2,23.9,27.9,20.7,27.9z"/>
	</g>
</g>
</svg>
