<?xml version="1.0" encoding="utf-8"?>
<!-- Generator: Adobe Illustrator 18.1.1, SVG Export Plug-In . SVG Version: 6.00 Build 0)  -->
<!DOCTYPE svg PUBLIC "-//W3C//DTD SVG 1.1//EN" "http://www.w3.org/Graphics/SVG/1.1/DTD/svg11.dtd">
<svg version="1.1" id="Layer_1" xmlns="http://www.w3.org/2000/svg" xmlns:xlink="http://www.w3.org/1999/xlink" x="0px" y="0px"
	 viewBox="0 0 40 40" enable-background="new 0 0 40 40" xml:space="preserve">
<g>
	<path d="M31.5,19.4L28,15.9c-0.3-0.3-0.2-0.7,0.2-0.8c0,0,0.4-0.1,0.8-0.6c1-1,1-2.6,0-3.6c-1-1-2.6-1-3.6,0
		c-0.5,0.5-0.6,0.8-0.6,0.8c-0.1,0.5-0.5,0.6-0.8,0.2l-3.5-3.5c-0.3-0.3-0.9-0.3-1.2,0L15.9,12c-0.3,0.3-0.2,0.7,0.2,0.8
		c0,0,0.4,0.1,0.8,0.6c1,1,1,2.6,0,3.6c-1,1-2.6,1-3.6,0c-0.5-0.5-0.6-0.8-0.6-0.8c-0.1-0.5-0.5-0.6-0.8-0.2l-3.5,3.5
		c-0.3,0.3-0.3,0.9,0,1.2l3.5,3.5c0.3,0.3,0.2,0.7-0.2,0.8c0,0-0.4,0.1-0.8,0.6c-1,1-1,2.6,0,3.6c1,1,2.6,1,3.6,0
		c0.5-0.5,0.6-0.8,0.6-0.8c0.1-0.5,0.5-0.6,0.8-0.2l3.5,3.5c0.3,0.3,0.9,0.3,1.2,0l3.5-3.5c0.3-0.3,0.2-0.7-0.2-0.8
		c0,0-0.4-0.1-0.8-0.6c-1-1-1-2.6,0-3.6c1-1,2.6-1,3.6,0c0.5,0.5,0.6,0.8,0.6,0.8c0.1,0.5,0.5,0.6,0.8,0.2l3.5-3.5
		C31.8,20.3,31.8,19.7,31.5,19.4z"/>
</g>
</svg>
