<?xml version="1.0" encoding="utf-8"?>
<!-- Generator: Adobe Illustrator 18.1.1, SVG Export Plug-In . SVG Version: 6.00 Build 0)  -->
<!DOCTYPE svg PUBLIC "-//W3C//DTD SVG 1.1//EN" "http://www.w3.org/Graphics/SVG/1.1/DTD/svg11.dtd">
<svg version="1.1" id="Layer_1" xmlns="http://www.w3.org/2000/svg" xmlns:xlink="http://www.w3.org/1999/xlink" x="0px" y="0px"
	 viewBox="0 0 21 21" enable-background="new 0 0 21 21" xml:space="preserve">
<g>
	<path fill="#010101" d="M12.6,3.8c0,0.6-0.5,1.4-0.8,1.8c-0.3,0.3-0.8,0.3-1.2,0.3c-0.4,0-0.9,0-1.2-0.3C8.9,5.2,8.4,4.4,8.4,3.8
		c0-0.7,1.3-0.8,2.1-0.8C11.3,2.9,12.6,3,12.6,3.8z M9.4,6.3l-0.7,8.2c-0.1,0.6,0.2,1.3,0.6,1.7l1.2,1.3l1.2-1.3
		c0.5-0.5,0.7-1.1,0.6-1.8l-0.8-8.2c0-0.1-0.1-0.2-0.2-0.2H9.7C9.5,6.1,9.5,6.2,9.4,6.3z"/>
</g>
</svg>
