<?xml version="1.0" encoding="utf-8"?>
<!-- Generator: Adobe Illustrator 18.1.1, SVG Export Plug-In . SVG Version: 6.00 Build 0)  -->
<!DOCTYPE svg PUBLIC "-//W3C//DTD SVG 1.1//EN" "http://www.w3.org/Graphics/SVG/1.1/DTD/svg11.dtd">
<svg version="1.1" id="Layer_1" xmlns="http://www.w3.org/2000/svg" xmlns:xlink="http://www.w3.org/1999/xlink" x="0px" y="0px"
	 viewBox="0 0 40 40" enable-background="new 0 0 40 40" xml:space="preserve">
<g>
	<path d="M20,7.7C13.2,7.7,7.7,13.2,7.7,20S13.2,32.3,20,32.3c6.8,0,12.3-5.5,12.3-12.3S26.8,7.7,20,7.7z M20.5,30.3v-1.8
		c0-0.3-0.2-0.5-0.5-0.5c-0.3,0-0.5,0.2-0.5,0.5v1.8c-5.3-0.3-9.5-4.5-9.8-9.8h1.8c0.3,0,0.5-0.2,0.5-0.5s-0.2-0.5-0.5-0.5H9.7
		c0.3-5.3,4.5-9.5,9.8-9.8c0,0,0,0,0,0v1.9c0,0.3,0.2,0.5,0.5,0.5c0.3,0,0.5-0.2,0.5-0.5V9.7c0,0,0,0,0,0c5.3,0.3,9.5,4.5,9.8,9.8
		h-1.8c-0.3,0-0.5,0.2-0.5,0.5s0.2,0.5,0.5,0.5h1.8C30,25.8,25.8,30,20.5,30.3z"/>
	<path d="M26.7,19.5h-5.9C20.7,19.2,20.4,19,20,19c-0.1,0-0.2,0-0.3,0.1L15.6,15c-0.2-0.2-0.5-0.2-0.7,0c-0.2,0.2-0.2,0.5,0,0.7
		l4.1,4.1c0,0,0,0.1,0,0.1c0,0.6,0.5,1,1,1c0.4,0,0.7-0.2,0.9-0.5h5.9c0.3,0,0.5-0.2,0.5-0.5S27,19.5,26.7,19.5z"/>
</g>
</svg>
