<?xml version="1.0" encoding="utf-8"?>
<!-- Generator: Adobe Illustrator 18.1.1, SVG Export Plug-In . SVG Version: 6.00 Build 0)  -->
<!DOCTYPE svg PUBLIC "-//W3C//DTD SVG 1.1//EN" "http://www.w3.org/Graphics/SVG/1.1/DTD/svg11.dtd">
<svg version="1.1" id="Layer_1" xmlns="http://www.w3.org/2000/svg" xmlns:xlink="http://www.w3.org/1999/xlink" x="0px" y="0px"
	 viewBox="0 0 40 40" enable-background="new 0 0 40 40" xml:space="preserve">
<g>
	<rect x="6.2" y="6.2" transform="matrix(0.7071 -0.7071 0.7071 0.7071 -8.2843 20)" width="27.7" height="27.7"/>
</g>
<g>
	<path fill-rule="evenodd" clip-rule="evenodd" fill="#FFFFFF" d="M16.9,25.5v-7.4h-2.5v7.4H16.9L16.9,25.5z M15.6,17.1
		c0.9,0,1.4-0.6,1.4-1.3c0-0.7-0.5-1.3-1.4-1.3c-0.8,0-1.4,0.6-1.4,1.3C14.2,16.5,14.8,17.1,15.6,17.1L15.6,17.1L15.6,17.1z"/>
	<path fill-rule="evenodd" clip-rule="evenodd" fill="#FFFFFF" d="M18.2,25.5h2.5v-4.1c0-0.2,0-0.4,0.1-0.6c0.2-0.4,0.6-0.9,1.3-0.9
		c0.9,0,1.2,0.7,1.2,1.7v4h2.5v-4.3c0-2.3-1.2-3.3-2.8-3.3c-1.3,0-1.9,0.7-2.2,1.3h0v-1.1h-2.5C18.3,18.8,18.2,25.5,18.2,25.5
		L18.2,25.5z"/>
</g>
</svg>
