<?xml version="1.0" encoding="utf-8"?>
<!-- Generator: Adobe Illustrator 18.1.1, SVG Export Plug-In . SVG Version: 6.00 Build 0)  -->
<!DOCTYPE svg PUBLIC "-//W3C//DTD SVG 1.1//EN" "http://www.w3.org/Graphics/SVG/1.1/DTD/svg11.dtd">
<svg version="1.1" id="Layer_1" xmlns="http://www.w3.org/2000/svg" xmlns:xlink="http://www.w3.org/1999/xlink" x="0px" y="0px"
	 viewBox="0 0 40 40" enable-background="new 0 0 40 40" xml:space="preserve">
<g>
	<rect x="6.7" y="6.7" transform="matrix(-0.7071 0.7071 -0.7071 -0.7071 48.2843 20)" fill="#FFFFFF" width="26.7" height="26.7"/>
	<path d="M20,1.8L38.2,20L20,38.2L1.8,20L20,1.8 M20,0.4L0.4,20L20,39.6L39.6,20L20,0.4L20,0.4z"/>
</g>
<path d="M13.3,24.3c1.2,0.8,2.7,1.3,4.3,1.3c5.2,0,8-4.3,8-8c0-0.1,0-0.2,0-0.4c0.5-0.4,1-0.9,1.4-1.5c-0.5,0.2-1,0.4-1.6,0.4
	c0.6-0.3,1-0.9,1.2-1.5c-0.5,0.3-1.1,0.6-1.8,0.7c-0.5-0.5-1.2-0.9-2-0.9c-1.5,0-2.8,1.3-2.8,2.8c0,0.2,0,0.4,0.1,0.6
	c-2.3-0.1-4.4-1.2-5.8-2.9c-0.2,0.4-0.4,0.9-0.4,1.4c0,1,0.1,1.8,0.8,2.3c-0.5,0-1.7-0.1-1.7-0.4c0,0,0,0,0,0c0,1.4,1.4,2.5,2.7,2.7
	c-0.2,0.1-0.3,0.1-0.5,0.1c-0.2,0-0.2,0-0.4-0.1c0.4,1.1,1.4,1.9,2.7,1.9c-1,0.8-2.1,1.2-3.5,1.2C13.7,24.3,13.5,24.3,13.3,24.3z"/>
</svg>
