<?xml version="1.0" encoding="utf-8"?>
<!-- Generator: Adobe Illustrator 18.1.1, SVG Export Plug-In . SVG Version: 6.00 Build 0)  -->
<!DOCTYPE svg PUBLIC "-//W3C//DTD SVG 1.1//EN" "http://www.w3.org/Graphics/SVG/1.1/DTD/svg11.dtd">
<svg version="1.1" id="Layer_1" xmlns="http://www.w3.org/2000/svg" xmlns:xlink="http://www.w3.org/1999/xlink" x="0px" y="0px"
	 viewBox="0 0 88.5 60.3" enable-background="new 0 0 88.5 60.3" xml:space="preserve">
<g>
	<g>
		<path d="M16.2,5.1c0.1-0.5,1-0.5,1.2,0l18.3,45.7L53.8,5.1c0.2-0.5,1-0.5,1.2,0l12.8,47.6c0.1,0.3,0.1,0.5-0.3,0.5l-0.7,0.1
			c-0.3,0.1-0.4-0.1-0.5-0.4L54.1,8.2L36.3,53.8c-0.2,0.5-1,0.5-1.2,0L16.9,8.2L5.2,53c-0.1,0.3-0.3,0.5-0.5,0.4L4,53.3
			c-0.3-0.1-0.3-0.2-0.3-0.5L16.2,5.1z"/>
	</g>
	<g>
		<path d="M33.4,5.1c0.1-0.5,1-0.5,1.2,0l18.3,45.7L71,5.1c0.2-0.5,1-0.5,1.2,0L85,52.7c0.1,0.3,0.1,0.5-0.3,0.5L84,53.4
			c-0.3,0.1-0.4-0.1-0.5-0.4L71.3,8.2L53.5,53.8c-0.2,0.5-1,0.5-1.2,0L34.2,8.2L22.4,53c-0.1,0.3-0.3,0.5-0.5,0.4l-0.7-0.1
			c-0.3-0.1-0.3-0.2-0.3-0.5L33.4,5.1z"/>
	</g>
</g>
</svg>
